<?xml version="1.0" encoding="UTF-8" standalone="no"?>
<!DOCTYPE svg PUBLIC "-//W3C//DTD SVG 1.1//EN"
 "http://www.w3.org/Graphics/SVG/1.1/DTD/svg11.dtd">
<!-- Generated by graphviz version 5.0.0 (20220707.1540)
 -->
<!-- Title: dependencies Pages: 1 -->
<svg width="7308pt" height="391pt"
 viewBox="0.00 0.00 7308.00 390.80" xmlns="http://www.w3.org/2000/svg" xmlns:xlink="http://www.w3.org/1999/xlink">
<g id="graph0" class="graph" transform="scale(1 1) rotate(0) translate(4 386.8)">
<title>dependencies</title>
<polygon fill="white" stroke="transparent" points="-4,4 -4,-386.8 7304,-386.8 7304,4 -4,4"/>
<text text-anchor="middle" x="3650" y="-8.2" font-family="sans-serif" font-size="14.00">dependencies</text>
<g id="clust1" class="cluster">
<title>cluster_AppModule</title>
<polygon fill="none" stroke="black" stroke-dasharray="1,5" points="3206,-100.8 3206,-374.8 6948,-374.8 6948,-100.8 3206,-100.8"/>
</g>
<g id="clust2" class="cluster">
<title>cluster_AppModule_declarations</title>
<polygon fill="none" stroke="black" points="5319,-184.8 5319,-236.8 6940,-236.8 6940,-184.8 5319,-184.8"/>
</g>
<g id="clust14" class="cluster">
<title>cluster_AppModule_imports</title>
<polygon fill="none" stroke="black" points="3346,-108.8 3346,-236.8 5311,-236.8 5311,-108.8 3346,-108.8"/>
</g>
<g id="clust16" class="cluster">
<title>cluster_AppModule_bootstrap</title>
<polygon fill="none" stroke="black" points="4859,-314.8 4859,-366.8 4983,-366.8 4983,-314.8 4859,-314.8"/>
</g>
<g id="clust17" class="cluster">
<title>cluster_AppModule_providers</title>
<polygon fill="none" stroke="black" points="3214,-184.8 3214,-236.8 3338,-236.8 3338,-184.8 3214,-184.8"/>
</g>
<g id="clust18" class="cluster">
<title>cluster_AppRoutingModule</title>
<polygon fill="none" stroke="black" stroke-dasharray="1,5" points="6956,-176.8 6956,-244.8 7292,-244.8 7292,-176.8 6956,-176.8"/>
</g>
<g id="clust20" class="cluster">
<title>cluster_AppRoutingModule_imports</title>
<polygon fill="none" stroke="black" points="7090,-184.8 7090,-236.8 7284,-236.8 7284,-184.8 7090,-184.8"/>
</g>
<g id="clust21" class="cluster">
<title>cluster_AppRoutingModule_exports</title>
<polygon fill="none" stroke="black" points="6964,-184.8 6964,-236.8 7082,-236.8 7082,-184.8 6964,-184.8"/>
</g>
<g id="clust24" class="cluster">
<title>cluster_SessionModule</title>
<polygon fill="none" stroke="black" stroke-dasharray="1,5" points="8,-100.8 8,-168.8 2692,-168.8 2692,-100.8 8,-100.8"/>
</g>
<g id="clust25" class="cluster">
<title>cluster_SessionModule_declarations</title>
<polygon fill="none" stroke="black" points="558,-108.8 558,-160.8 1504,-160.8 1504,-108.8 558,-108.8"/>
</g>
<g id="clust31" class="cluster">
<title>cluster_SessionModule_imports</title>
<polygon fill="none" stroke="black" points="1512,-108.8 1512,-160.8 2684,-160.8 2684,-108.8 1512,-108.8"/>
</g>
<g id="clust32" class="cluster">
<title>cluster_SessionModule_exports</title>
<polygon fill="none" stroke="black" points="16,-108.8 16,-160.8 550,-160.8 550,-108.8 16,-108.8"/>
</g>
<g id="clust35" class="cluster">
<title>cluster_SongModule</title>
<polygon fill="none" stroke="black" stroke-dasharray="1,5" points="2700,-32.8 2700,-168.8 3198,-168.8 3198,-32.8 2700,-32.8"/>
</g>
<g id="clust36" class="cluster">
<title>cluster_SongModule_declarations</title>
<polygon fill="none" stroke="black" points="2896,-108.8 2896,-160.8 3022,-160.8 3022,-108.8 2896,-108.8"/>
</g>
<g id="clust37" class="cluster">
<title>cluster_SongModule_SongComponent_providers</title>
<polygon fill="none" stroke="black" points="2708,-40.8 2708,-92.8 3044,-92.8 3044,-40.8 2708,-40.8"/>
</g>
<g id="clust38" class="cluster">
<title>cluster_SongModule_imports</title>
<polygon fill="none" stroke="black" points="3052,-40.8 3052,-92.8 3190,-92.8 3190,-40.8 3052,-40.8"/>
</g>
<!-- AppComponent -->
<g id="node1" class="node">
<title>AppComponent</title>
<polygon fill="#ffffb3" stroke="black" points="6621.94,-228.8 6516.06,-228.8 6516.06,-192.8 6621.94,-192.8 6621.94,-228.8"/>
<text text-anchor="middle" x="6569" y="-206.6" font-family="Times,serif" font-size="14.00">AppComponent</text>
</g>
<!-- AppModule -->
<g id="node12" class="node">
<title>AppModule</title>
<polygon fill="#8dd3c7" stroke="black" points="4962.66,-293.8 4959.66,-297.8 4938.66,-297.8 4935.66,-293.8 4879.34,-293.8 4879.34,-257.8 4962.66,-257.8 4962.66,-293.8"/>
<text text-anchor="middle" x="4921" y="-271.6" font-family="Times,serif" font-size="14.00">AppModule</text>
</g>
<!-- AppComponent&#45;&gt;AppModule -->
<g id="edge1" class="edge">
<title>AppComponent&#45;&gt;AppModule</title>
<path fill="none" stroke="black" d="M6569,-228.96C6569,-251.15 6569,-285.8 6569,-285.8 6569,-285.8 4972.98,-285.8 4972.98,-285.8"/>
<polygon fill="black" stroke="black" points="4972.98,-282.3 4962.98,-285.8 4972.98,-289.3 4972.98,-282.3"/>
</g>
<!-- LandingPageComponent -->
<g id="node2" class="node">
<title>LandingPageComponent</title>
<polygon fill="#ffffb3" stroke="black" points="6498.7,-228.8 6343.3,-228.8 6343.3,-192.8 6498.7,-192.8 6498.7,-228.8"/>
<text text-anchor="middle" x="6421" y="-206.6" font-family="Times,serif" font-size="14.00">LandingPageComponent</text>
</g>
<!-- LandingPageComponent&#45;&gt;AppModule -->
<g id="edge2" class="edge">
<title>LandingPageComponent&#45;&gt;AppModule</title>
<path fill="none" stroke="black" d="M6421,-228.97C6421,-250.3 6421,-282.8 6421,-282.8 6421,-282.8 4972.68,-282.8 4972.68,-282.8"/>
<polygon fill="black" stroke="black" points="4972.68,-279.3 4962.68,-282.8 4972.68,-286.3 4972.68,-279.3"/>
</g>
<!-- HeaderComponent -->
<g id="node3" class="node">
<title>HeaderComponent</title>
<polygon fill="#ffffb3" stroke="black" points="6325.75,-228.8 6204.25,-228.8 6204.25,-192.8 6325.75,-192.8 6325.75,-228.8"/>
<text text-anchor="middle" x="6265" y="-206.6" font-family="Times,serif" font-size="14.00">HeaderComponent</text>
</g>
<!-- HeaderComponent&#45;&gt;AppModule -->
<g id="edge3" class="edge">
<title>HeaderComponent&#45;&gt;AppModule</title>
<path fill="none" stroke="black" d="M6265,-228.83C6265,-249.57 6265,-280.8 6265,-280.8 6265,-280.8 4972.7,-280.8 4972.7,-280.8"/>
<polygon fill="black" stroke="black" points="4972.7,-277.3 4962.7,-280.8 4972.7,-284.3 4972.7,-277.3"/>
</g>
<!-- FooterComponent -->
<g id="node4" class="node">
<title>FooterComponent</title>
<polygon fill="#ffffb3" stroke="black" points="6185.88,-228.8 6068.12,-228.8 6068.12,-192.8 6185.88,-192.8 6185.88,-228.8"/>
<text text-anchor="middle" x="6127" y="-206.6" font-family="Times,serif" font-size="14.00">FooterComponent</text>
</g>
<!-- FooterComponent&#45;&gt;AppModule -->
<g id="edge4" class="edge">
<title>FooterComponent&#45;&gt;AppModule</title>
<path fill="none" stroke="black" d="M6127,-229.11C6127,-248.95 6127,-277.8 6127,-277.8 6127,-277.8 4972.86,-277.8 4972.86,-277.8"/>
<polygon fill="black" stroke="black" points="4972.86,-274.3 4962.86,-277.8 4972.86,-281.3 4972.86,-274.3"/>
</g>
<!-- NavigationComponent -->
<g id="node5" class="node">
<title>NavigationComponent</title>
<polygon fill="#ffffb3" stroke="black" points="6049.54,-228.8 5906.46,-228.8 5906.46,-192.8 6049.54,-192.8 6049.54,-228.8"/>
<text text-anchor="middle" x="5978" y="-206.6" font-family="Times,serif" font-size="14.00">NavigationComponent</text>
</g>
<!-- NavigationComponent&#45;&gt;AppModule -->
<g id="edge5" class="edge">
<title>NavigationComponent&#45;&gt;AppModule</title>
<path fill="none" stroke="black" d="M5978,-228.97C5978,-247.89 5978,-274.8 5978,-274.8 5978,-274.8 4972.76,-274.8 4972.76,-274.8"/>
<polygon fill="black" stroke="black" points="4972.76,-271.3 4962.76,-274.8 4972.76,-278.3 4972.76,-271.3"/>
</g>
<!-- ChordComponent -->
<g id="node6" class="node">
<title>ChordComponent</title>
<polygon fill="#ffffb3" stroke="black" points="5888.33,-228.8 5771.67,-228.8 5771.67,-192.8 5888.33,-192.8 5888.33,-228.8"/>
<text text-anchor="middle" x="5830" y="-206.6" font-family="Times,serif" font-size="14.00">ChordComponent</text>
</g>
<!-- ChordComponent&#45;&gt;AppModule -->
<g id="edge6" class="edge">
<title>ChordComponent&#45;&gt;AppModule</title>
<path fill="none" stroke="black" d="M5830,-229.1C5830,-247.07 5830,-271.8 5830,-271.8 5830,-271.8 4972.72,-271.8 4972.72,-271.8"/>
<polygon fill="black" stroke="black" points="4972.72,-268.3 4962.72,-271.8 4972.72,-275.3 4972.72,-268.3"/>
</g>
<!-- ExercisesComponent -->
<g id="node7" class="node">
<title>ExercisesComponent</title>
<polygon fill="#ffffb3" stroke="black" points="5753.47,-228.8 5618.53,-228.8 5618.53,-192.8 5753.47,-192.8 5753.47,-228.8"/>
<text text-anchor="middle" x="5686" y="-206.6" font-family="Times,serif" font-size="14.00">ExercisesComponent</text>
</g>
<!-- ExercisesComponent&#45;&gt;AppModule -->
<g id="edge7" class="edge">
<title>ExercisesComponent&#45;&gt;AppModule</title>
<path fill="none" stroke="black" d="M5686,-228.82C5686,-246.17 5686,-269.8 5686,-269.8 5686,-269.8 4972.67,-269.8 4972.67,-269.8"/>
<polygon fill="black" stroke="black" points="4972.67,-266.3 4962.67,-269.8 4972.67,-273.3 4972.67,-266.3"/>
</g>
<!-- AuthComponent -->
<g id="node8" class="node">
<title>AuthComponent</title>
<polygon fill="#ffffb3" stroke="black" points="5600.83,-228.8 5491.17,-228.8 5491.17,-192.8 5600.83,-192.8 5600.83,-228.8"/>
<text text-anchor="middle" x="5546" y="-206.6" font-family="Times,serif" font-size="14.00">AuthComponent</text>
</g>
<!-- AuthComponent&#45;&gt;AppModule -->
<g id="edge8" class="edge">
<title>AuthComponent&#45;&gt;AppModule</title>
<path fill="none" stroke="black" d="M5546,-228.83C5546,-245.2 5546,-266.8 5546,-266.8 5546,-266.8 4972.98,-266.8 4972.98,-266.8"/>
<polygon fill="black" stroke="black" points="4972.98,-263.3 4962.98,-266.8 4972.98,-270.3 4972.98,-263.3"/>
</g>
<!-- MetronomeComponent -->
<g id="node9" class="node">
<title>MetronomeComponent</title>
<polygon fill="#ffffb3" stroke="black" points="5473.15,-228.8 5326.85,-228.8 5326.85,-192.8 5473.15,-192.8 5473.15,-228.8"/>
<text text-anchor="middle" x="5400" y="-206.6" font-family="Times,serif" font-size="14.00">MetronomeComponent</text>
</g>
<!-- MetronomeComponent&#45;&gt;AppModule -->
<g id="edge9" class="edge">
<title>MetronomeComponent&#45;&gt;AppModule</title>
<path fill="none" stroke="black" d="M5326.38,-201.8C5199.76,-201.8 4954.19,-201.8 4954.19,-201.8 4954.19,-201.8 4954.19,-247.51 4954.19,-247.51"/>
<polygon fill="black" stroke="black" points="4950.69,-247.51 4954.19,-257.51 4957.69,-247.51 4950.69,-247.51"/>
</g>
<!-- SongLibraryComponent -->
<g id="node10" class="node">
<title>SongLibraryComponent</title>
<polygon fill="#ffffb3" stroke="black" points="6932.1,-228.8 6779.9,-228.8 6779.9,-192.8 6932.1,-192.8 6932.1,-228.8"/>
<text text-anchor="middle" x="6856" y="-206.6" font-family="Times,serif" font-size="14.00">SongLibraryComponent</text>
</g>
<!-- SongLibraryComponent&#45;&gt;AppModule -->
<g id="edge10" class="edge">
<title>SongLibraryComponent&#45;&gt;AppModule</title>
<path fill="none" stroke="black" d="M6856,-229.18C6856,-253.08 6856,-291.8 6856,-291.8 6856,-291.8 4972.76,-291.8 4972.76,-291.8"/>
<polygon fill="black" stroke="black" points="4972.76,-288.3 4962.76,-291.8 4972.76,-295.3 4972.76,-288.3"/>
</g>
<!-- UploadComponent -->
<g id="node11" class="node">
<title>UploadComponent</title>
<polygon fill="#ffffb3" stroke="black" points="6762.05,-228.8 6639.95,-228.8 6639.95,-192.8 6762.05,-192.8 6762.05,-228.8"/>
<text text-anchor="middle" x="6701" y="-206.6" font-family="Times,serif" font-size="14.00">UploadComponent</text>
</g>
<!-- UploadComponent&#45;&gt;AppModule -->
<g id="edge11" class="edge">
<title>UploadComponent&#45;&gt;AppModule</title>
<path fill="none" stroke="black" d="M6701,-228.89C6701,-251.93 6701,-288.8 6701,-288.8 6701,-288.8 4972.81,-288.8 4972.81,-288.8"/>
<polygon fill="black" stroke="black" points="4972.81,-285.3 4962.81,-288.8 4972.81,-292.3 4972.81,-285.3"/>
</g>
<!-- AppComponent  -->
<g id="node29" class="node">
<title>AppComponent </title>
<polygon fill="#80b1d3" stroke="black" points="4975.44,-358.8 4866.56,-358.8 4866.56,-322.8 4975.44,-322.8 4975.44,-358.8"/>
<text text-anchor="middle" x="4921" y="-336.6" font-family="Times,serif" font-size="14.00">AppComponent </text>
</g>
<!-- AppModule&#45;&gt;AppComponent  -->
<g id="edge28" class="edge">
<title>AppModule&#45;&gt;AppComponent </title>
<path fill="none" stroke="black" stroke-dasharray="1,5" d="M4921,-293.91C4921,-293.91 4921,-312.79 4921,-312.79"/>
<polygon fill="black" stroke="black" points="4917.5,-312.79 4921,-322.79 4924.5,-312.79 4917.5,-312.79"/>
</g>
<!-- BrowserModule -->
<g id="node13" class="node">
<title>BrowserModule</title>
<polygon fill="#8dd3c7" stroke="black" points="4103.49,-152.8 4100.49,-156.8 4079.49,-156.8 4076.49,-152.8 3996.51,-152.8 3996.51,-116.8 4103.49,-116.8 4103.49,-152.8"/>
<text text-anchor="middle" x="4050" y="-130.6" font-family="Times,serif" font-size="14.00">BrowserModule</text>
</g>
<!-- BrowserModule&#45;&gt;AppModule -->
<g id="edge12" class="edge">
<title>BrowserModule&#45;&gt;AppModule</title>
<path fill="none" stroke="black" d="M4050,-152.99C4050,-190.26 4050,-271.8 4050,-271.8 4050,-271.8 4869.28,-271.8 4869.28,-271.8"/>
<polygon fill="black" stroke="black" points="4869.28,-275.3 4879.28,-271.8 4869.28,-268.3 4869.28,-275.3"/>
</g>
<!-- BrowserAnimationsModule -->
<g id="node14" class="node">
<title>BrowserAnimationsModule</title>
<polygon fill="#8dd3c7" stroke="black" points="4294.32,-152.8 4291.32,-156.8 4270.32,-156.8 4267.32,-152.8 4121.68,-152.8 4121.68,-116.8 4294.32,-116.8 4294.32,-152.8"/>
<text text-anchor="middle" x="4208" y="-130.6" font-family="Times,serif" font-size="14.00">BrowserAnimationsModule</text>
</g>
<!-- BrowserAnimationsModule&#45;&gt;AppModule -->
<g id="edge13" class="edge">
<title>BrowserAnimationsModule&#45;&gt;AppModule</title>
<path fill="none" stroke="black" d="M4208,-153.01C4208,-189.86 4208,-269.8 4208,-269.8 4208,-269.8 4869.32,-269.8 4869.32,-269.8"/>
<polygon fill="black" stroke="black" points="4869.32,-273.3 4879.32,-269.8 4869.32,-266.3 4869.32,-273.3"/>
</g>
<!-- AppRoutingModule -->
<g id="node15" class="node">
<title>AppRoutingModule</title>
<polygon fill="#8dd3c7" stroke="black" points="5303.28,-152.8 5300.28,-156.8 5279.28,-156.8 5276.28,-152.8 5174.72,-152.8 5174.72,-116.8 5303.28,-116.8 5303.28,-152.8"/>
<text text-anchor="middle" x="5239" y="-130.6" font-family="Times,serif" font-size="14.00">AppRoutingModule</text>
</g>
<!-- AppRoutingModule&#45;&gt;AppModule -->
<g id="edge14" class="edge">
<title>AppRoutingModule&#45;&gt;AppModule</title>
<path fill="none" stroke="black" d="M5239,-153.01C5239,-188.57 5239,-263.8 5239,-263.8 5239,-263.8 4972.9,-263.8 4972.9,-263.8"/>
<polygon fill="black" stroke="black" points="4972.9,-260.3 4962.9,-263.8 4972.9,-267.3 4972.9,-260.3"/>
</g>
<!-- RouterModule  -->
<g id="node32" class="node">
<title>RouterModule </title>
<polygon fill="#fb8072" stroke="black" points="7073.66,-228.8 6972.34,-228.8 6972.34,-192.8 7073.66,-192.8 7073.66,-228.8"/>
<text text-anchor="middle" x="7023" y="-206.6" font-family="Times,serif" font-size="14.00">RouterModule </text>
</g>
<!-- AppRoutingModule&#45;&gt;RouterModule  -->
<g id="edge31" class="edge">
<title>AppRoutingModule&#45;&gt;RouterModule </title>
<path fill="none" stroke="black" stroke-dasharray="5,2" d="M5303.28,-140.8C5622.61,-140.8 7023,-140.8 7023,-140.8 7023,-140.8 7023,-182.77 7023,-182.77"/>
<polygon fill="black" stroke="black" points="7019.5,-182.77 7023,-192.77 7026.5,-182.77 7019.5,-182.77"/>
</g>
<!-- SessionModule -->
<g id="node16" class="node">
<title>SessionModule</title>
<polygon fill="#8dd3c7" stroke="black" points="3456.34,-228.8 3453.34,-232.8 3432.34,-232.8 3429.34,-228.8 3353.66,-228.8 3353.66,-192.8 3456.34,-192.8 3456.34,-228.8"/>
<text text-anchor="middle" x="3405" y="-206.6" font-family="Times,serif" font-size="14.00">SessionModule</text>
</g>
<!-- SessionModule&#45;&gt;AppModule -->
<g id="edge15" class="edge">
<title>SessionModule&#45;&gt;AppModule</title>
<path fill="none" stroke="black" d="M3435.7,-228.89C3435.7,-251.93 3435.7,-288.8 3435.7,-288.8 3435.7,-288.8 4869.33,-288.8 4869.33,-288.8"/>
<polygon fill="black" stroke="black" points="4869.33,-292.3 4879.33,-288.8 4869.33,-285.3 4869.33,-292.3"/>
</g>
<!-- DisplaySessionComponent  -->
<g id="node47" class="node">
<title>DisplaySessionComponent </title>
<polygon fill="#fb8072" stroke="black" points="541.67,-152.8 370.33,-152.8 370.33,-116.8 541.67,-116.8 541.67,-152.8"/>
<text text-anchor="middle" x="456" y="-130.6" font-family="Times,serif" font-size="14.00">DisplaySessionComponent </text>
</g>
<!-- SessionModule&#45;&gt;DisplaySessionComponent  -->
<g id="edge50" class="edge">
<title>SessionModule&#45;&gt;DisplaySessionComponent </title>
<path fill="none" stroke="black" stroke-dasharray="5,2" d="M3374.3,-228.86C3374.3,-233.29 3374.3,-236.8 3374.3,-236.8 3374.3,-236.8 456,-236.8 456,-236.8 456,-236.8 456,-163.04 456,-163.04"/>
<polygon fill="black" stroke="black" points="459.5,-163.04 456,-153.04 452.5,-163.04 459.5,-163.04"/>
</g>
<!-- PreviousSessionsComponent  -->
<g id="node48" class="node">
<title>PreviousSessionsComponent </title>
<polygon fill="#fb8072" stroke="black" points="352.07,-152.8 169.93,-152.8 169.93,-116.8 352.07,-116.8 352.07,-152.8"/>
<text text-anchor="middle" x="261" y="-130.6" font-family="Times,serif" font-size="14.00">PreviousSessionsComponent </text>
</g>
<!-- SessionModule&#45;&gt;PreviousSessionsComponent  -->
<g id="edge51" class="edge">
<title>SessionModule&#45;&gt;PreviousSessionsComponent </title>
<path fill="none" stroke="black" stroke-dasharray="5,2" d="M3394.77,-228.84C3394.77,-236.55 3394.77,-243.8 3394.77,-243.8 3394.77,-243.8 261,-243.8 261,-243.8 261,-243.8 261,-163.29 261,-163.29"/>
<polygon fill="black" stroke="black" points="264.5,-163.29 261,-153.29 257.5,-163.29 264.5,-163.29"/>
</g>
<!-- SessionComponent  -->
<g id="node49" class="node">
<title>SessionComponent </title>
<polygon fill="#fb8072" stroke="black" points="151.62,-152.8 24.38,-152.8 24.38,-116.8 151.62,-116.8 151.62,-152.8"/>
<text text-anchor="middle" x="88" y="-130.6" font-family="Times,serif" font-size="14.00">SessionComponent </text>
</g>
<!-- SessionModule&#45;&gt;SessionComponent  -->
<g id="edge52" class="edge">
<title>SessionModule&#45;&gt;SessionComponent </title>
<path fill="none" stroke="black" stroke-dasharray="5,2" d="M3415.23,-228.93C3415.23,-239.51 3415.23,-250.8 3415.23,-250.8 3415.23,-250.8 88,-250.8 88,-250.8 88,-250.8 88,-162.93 88,-162.93"/>
<polygon fill="black" stroke="black" points="91.5,-162.92 88,-152.93 84.5,-162.93 91.5,-162.92"/>
</g>
<!-- SongModule -->
<g id="node17" class="node">
<title>SongModule</title>
<polygon fill="#8dd3c7" stroke="black" points="3562.34,-228.8 3559.34,-232.8 3538.34,-232.8 3535.34,-228.8 3473.66,-228.8 3473.66,-192.8 3562.34,-192.8 3562.34,-228.8"/>
<text text-anchor="middle" x="3518" y="-206.6" font-family="Times,serif" font-size="14.00">SongModule</text>
</g>
<!-- SongModule&#45;&gt;AppModule -->
<g id="edge16" class="edge">
<title>SongModule&#45;&gt;AppModule</title>
<path fill="none" stroke="black" d="M3562.18,-219.8C3797.45,-219.8 4892.56,-219.8 4892.56,-219.8 4892.56,-219.8 4892.56,-247.77 4892.56,-247.77"/>
<polygon fill="black" stroke="black" points="4889.06,-247.77 4892.56,-257.77 4896.06,-247.77 4889.06,-247.77"/>
</g>
<!-- ReactiveFormsModule -->
<g id="node18" class="node">
<title>ReactiveFormsModule</title>
<polygon fill="#8dd3c7" stroke="black" points="3750.31,-152.8 3747.31,-156.8 3726.31,-156.8 3723.31,-152.8 3605.69,-152.8 3605.69,-116.8 3750.31,-116.8 3750.31,-152.8"/>
<text text-anchor="middle" x="3678" y="-130.6" font-family="Times,serif" font-size="14.00">ReactiveFormsModule</text>
</g>
<!-- ReactiveFormsModule&#45;&gt;AppModule -->
<g id="edge17" class="edge">
<title>ReactiveFormsModule&#45;&gt;AppModule</title>
<path fill="none" stroke="black" d="M3702.05,-153C3702.05,-192.13 3702.05,-280.8 3702.05,-280.8 3702.05,-280.8 4869.04,-280.8 4869.04,-280.8"/>
<polygon fill="black" stroke="black" points="4869.04,-284.3 4879.04,-280.8 4869.04,-277.3 4869.04,-284.3"/>
</g>
<!-- ReactiveFormsModule&#45;&gt;SessionModule -->
<g id="edge37" class="edge">
<title>ReactiveFormsModule&#45;&gt;SessionModule</title>
<path fill="none" stroke="black" d="M3653.95,-153.08C3653.95,-168.75 3653.95,-188.8 3653.95,-188.8 3653.95,-188.8 3440.98,-188.8 3440.98,-188.8 3440.98,-188.8 3440.98,-189.18 3440.98,-189.18"/>
<polygon fill="black" stroke="black" points="3437.48,-182.63 3440.98,-192.63 3444.48,-182.63 3437.48,-182.63"/>
</g>
<!-- FormsModule -->
<g id="node19" class="node">
<title>FormsModule</title>
<polygon fill="#8dd3c7" stroke="black" points="3863.84,-152.8 3860.84,-156.8 3839.84,-156.8 3836.84,-152.8 3768.16,-152.8 3768.16,-116.8 3863.84,-116.8 3863.84,-152.8"/>
<text text-anchor="middle" x="3816" y="-130.6" font-family="Times,serif" font-size="14.00">FormsModule</text>
</g>
<!-- FormsModule&#45;&gt;AppModule -->
<g id="edge18" class="edge">
<title>FormsModule&#45;&gt;AppModule</title>
<path fill="none" stroke="black" d="M3831.89,-152.91C3831.89,-191.39 3831.89,-277.8 3831.89,-277.8 3831.89,-277.8 4869.3,-277.8 4869.3,-277.8"/>
<polygon fill="black" stroke="black" points="4869.3,-281.3 4879.3,-277.8 4869.3,-274.3 4869.3,-281.3"/>
</g>
<!-- FormsModule&#45;&gt;SessionModule -->
<g id="edge38" class="edge">
<title>FormsModule&#45;&gt;SessionModule</title>
<path fill="none" stroke="black" d="M3800.11,-152.83C3800.11,-169.2 3800.11,-190.8 3800.11,-190.8 3800.11,-190.8 3446.41,-190.8 3446.41,-190.8 3446.41,-190.8 3446.41,-190.98 3446.41,-190.98"/>
<polygon fill="black" stroke="black" points="3442.91,-182.65 3446.41,-192.65 3449.91,-182.65 3442.91,-182.65"/>
</g>
<!-- ServiceWorkerModule.register(args) -->
<g id="node20" class="node">
<title>ServiceWorkerModule.register(args)</title>
<polygon fill="#8dd3c7" stroke="black" points="4534.41,-152.8 4531.41,-156.8 4510.41,-156.8 4507.41,-152.8 4311.59,-152.8 4311.59,-116.8 4534.41,-116.8 4534.41,-152.8"/>
<text text-anchor="middle" x="4423" y="-130.6" font-family="Times,serif" font-size="14.00">ServiceWorkerModule.register(args)</text>
</g>
<!-- ServiceWorkerModule.register(args)&#45;&gt;AppModule -->
<g id="edge19" class="edge">
<title>ServiceWorkerModule.register(args)&#45;&gt;AppModule</title>
<path fill="none" stroke="black" d="M4423,-152.88C4423,-189.03 4423,-266.8 4423,-266.8 4423,-266.8 4868.97,-266.8 4868.97,-266.8"/>
<polygon fill="black" stroke="black" points="4868.97,-270.3 4878.97,-266.8 4868.97,-263.3 4868.97,-270.3"/>
</g>
<!-- RouterModule -->
<g id="node21" class="node">
<title>RouterModule</title>
<polygon fill="#8dd3c7" stroke="black" points="4649.66,-152.8 4646.66,-156.8 4625.66,-156.8 4622.66,-152.8 4552.34,-152.8 4552.34,-116.8 4649.66,-116.8 4649.66,-152.8"/>
<text text-anchor="middle" x="4601" y="-130.6" font-family="Times,serif" font-size="14.00">RouterModule</text>
</g>
<!-- RouterModule&#45;&gt;AppModule -->
<g id="edge20" class="edge">
<title>RouterModule&#45;&gt;AppModule</title>
<path fill="none" stroke="black" d="M4601,-153.01C4601,-188.57 4601,-263.8 4601,-263.8 4601,-263.8 4869.17,-263.8 4869.17,-263.8"/>
<polygon fill="black" stroke="black" points="4869.17,-267.3 4879.17,-263.8 4869.17,-260.3 4869.17,-267.3"/>
</g>
<!-- HttpClientModule -->
<g id="node22" class="node">
<title>HttpClientModule</title>
<polygon fill="#8dd3c7" stroke="black" points="3588.16,-152.8 3585.16,-156.8 3564.16,-156.8 3561.16,-152.8 3469.84,-152.8 3469.84,-116.8 3588.16,-116.8 3588.16,-152.8"/>
<text text-anchor="middle" x="3529" y="-130.6" font-family="Times,serif" font-size="14.00">HttpClientModule</text>
</g>
<!-- HttpClientModule&#45;&gt;AppModule -->
<g id="edge21" class="edge">
<title>HttpClientModule&#45;&gt;AppModule</title>
<path fill="none" stroke="black" d="M3575.25,-152.95C3575.25,-192.47 3575.25,-282.8 3575.25,-282.8 3575.25,-282.8 4869.25,-282.8 4869.25,-282.8"/>
<polygon fill="black" stroke="black" points="4869.25,-286.3 4879.25,-282.8 4869.25,-279.3 4869.25,-286.3"/>
</g>
<!-- HttpClientModule&#45;&gt;SessionModule -->
<g id="edge41" class="edge">
<title>HttpClientModule&#45;&gt;SessionModule</title>
<path fill="none" stroke="black" d="M3469.63,-125.8C3467.94,-125.8 3466.97,-125.8 3466.97,-125.8 3466.97,-125.8 3466.97,-210.8 3466.97,-210.8 3466.97,-210.8 3465.89,-210.8 3465.89,-210.8"/>
<polygon fill="black" stroke="black" points="3466.17,-207.3 3456.17,-210.8 3466.17,-214.3 3466.17,-207.3"/>
</g>
<!-- ButtonModule -->
<g id="node23" class="node">
<title>ButtonModule</title>
<polygon fill="#8dd3c7" stroke="black" points="3451.67,-152.8 3448.67,-156.8 3427.67,-156.8 3424.67,-152.8 3354.33,-152.8 3354.33,-116.8 3451.67,-116.8 3451.67,-152.8"/>
<text text-anchor="middle" x="3403" y="-130.6" font-family="Times,serif" font-size="14.00">ButtonModule</text>
</g>
<!-- ButtonModule&#45;&gt;AppModule -->
<g id="edge22" class="edge">
<title>ButtonModule&#45;&gt;AppModule</title>
<path fill="none" stroke="black" d="M3452.02,-143.8C3456.2,-143.8 3458.87,-143.8 3458.87,-143.8 3458.87,-143.8 3458.87,-285.8 3458.87,-285.8 3458.87,-285.8 4869.21,-285.8 4869.21,-285.8"/>
<polygon fill="black" stroke="black" points="4869.21,-289.3 4879.21,-285.8 4869.21,-282.3 4869.21,-289.3"/>
</g>
<!-- ButtonModule&#45;&gt;SessionModule -->
<g id="edge49" class="edge">
<title>ButtonModule&#45;&gt;SessionModule</title>
<path fill="none" stroke="black" d="M3435.56,-152.81C3435.56,-152.81 3435.56,-182.65 3435.56,-182.65"/>
<polygon fill="black" stroke="black" points="3432.06,-182.65 3435.56,-192.65 3439.06,-182.65 3432.06,-182.65"/>
</g>
<!-- ButtonModule&#45;&gt;SongModule -->
<g id="edge57" class="edge">
<title>ButtonModule&#45;&gt;SongModule</title>
<path fill="none" stroke="black" d="M3451.9,-134.8C3457.68,-134.8 3461.57,-134.8 3461.57,-134.8 3461.57,-134.8 3461.57,-219.8 3461.57,-219.8 3461.57,-219.8 3463.81,-219.8 3463.81,-219.8"/>
<polygon fill="black" stroke="black" points="3463.81,-223.3 3473.81,-219.8 3463.81,-216.3 3463.81,-223.3"/>
</g>
<!-- InputTextModule -->
<g id="node24" class="node">
<title>InputTextModule</title>
<polygon fill="#8dd3c7" stroke="black" points="4782.26,-152.8 4779.26,-156.8 4758.26,-156.8 4755.26,-152.8 4667.74,-152.8 4667.74,-116.8 4782.26,-116.8 4782.26,-152.8"/>
<text text-anchor="middle" x="4725" y="-130.6" font-family="Times,serif" font-size="14.00">InputTextModule</text>
</g>
<!-- InputTextModule&#45;&gt;AppModule -->
<g id="edge23" class="edge">
<title>InputTextModule&#45;&gt;AppModule</title>
<path fill="none" stroke="black" d="M4725,-152.85C4725,-187.69 4725,-260.8 4725,-260.8 4725,-260.8 4868.95,-260.8 4868.95,-260.8"/>
<polygon fill="black" stroke="black" points="4868.95,-264.3 4878.95,-260.8 4868.95,-257.3 4868.95,-264.3"/>
</g>
<!-- StyleClassModule -->
<g id="node25" class="node">
<title>StyleClassModule</title>
<polygon fill="#8dd3c7" stroke="black" points="4919.17,-152.8 4916.17,-156.8 4895.17,-156.8 4892.17,-152.8 4800.83,-152.8 4800.83,-116.8 4919.17,-116.8 4919.17,-152.8"/>
<text text-anchor="middle" x="4860" y="-130.6" font-family="Times,serif" font-size="14.00">StyleClassModule</text>
</g>
<!-- StyleClassModule&#45;&gt;AppModule -->
<g id="edge24" class="edge">
<title>StyleClassModule&#45;&gt;AppModule</title>
<path fill="none" stroke="black" d="M4905.95,-152.94C4905.95,-152.94 4905.95,-247.73 4905.95,-247.73"/>
<polygon fill="black" stroke="black" points="4902.45,-247.72 4905.95,-257.73 4909.45,-247.73 4902.45,-247.72"/>
</g>
<!-- MenuModule -->
<g id="node26" class="node">
<title>MenuModule</title>
<polygon fill="#8dd3c7" stroke="black" points="5029.21,-152.8 5026.21,-156.8 5005.21,-156.8 5002.21,-152.8 4936.79,-152.8 4936.79,-116.8 5029.21,-116.8 5029.21,-152.8"/>
<text text-anchor="middle" x="4983" y="-130.6" font-family="Times,serif" font-size="14.00">MenuModule</text>
</g>
<!-- MenuModule&#45;&gt;AppModule -->
<g id="edge25" class="edge">
<title>MenuModule&#45;&gt;AppModule</title>
<path fill="none" stroke="black" d="M4945.54,-152.94C4945.54,-152.94 4945.54,-247.73 4945.54,-247.73"/>
<polygon fill="black" stroke="black" points="4942.04,-247.72 4945.54,-257.73 4949.04,-247.73 4942.04,-247.72"/>
</g>
<!-- MenubarModule -->
<g id="node27" class="node">
<title>MenubarModule</title>
<polygon fill="#8dd3c7" stroke="black" points="5157.09,-152.8 5154.09,-156.8 5133.09,-156.8 5130.09,-152.8 5046.91,-152.8 5046.91,-116.8 5157.09,-116.8 5157.09,-152.8"/>
<text text-anchor="middle" x="5102" y="-130.6" font-family="Times,serif" font-size="14.00">MenubarModule</text>
</g>
<!-- MenubarModule&#45;&gt;AppModule -->
<g id="edge26" class="edge">
<title>MenubarModule&#45;&gt;AppModule</title>
<path fill="none" stroke="black" d="M5102,-152.85C5102,-187.69 5102,-260.8 5102,-260.8 5102,-260.8 4972.98,-260.8 4972.98,-260.8"/>
<polygon fill="black" stroke="black" points="4972.98,-257.3 4962.98,-260.8 4972.98,-264.3 4972.98,-257.3"/>
</g>
<!-- DialogModule -->
<g id="node28" class="node">
<title>DialogModule</title>
<polygon fill="#8dd3c7" stroke="black" points="3978.66,-152.8 3975.66,-156.8 3954.66,-156.8 3951.66,-152.8 3881.34,-152.8 3881.34,-116.8 3978.66,-116.8 3978.66,-152.8"/>
<text text-anchor="middle" x="3930" y="-130.6" font-family="Times,serif" font-size="14.00">DialogModule</text>
</g>
<!-- DialogModule&#45;&gt;AppModule -->
<g id="edge27" class="edge">
<title>DialogModule&#45;&gt;AppModule</title>
<path fill="none" stroke="black" d="M3946.28,-152.82C3946.28,-190.63 3946.28,-274.8 3946.28,-274.8 3946.28,-274.8 4869.12,-274.8 4869.12,-274.8"/>
<polygon fill="black" stroke="black" points="4869.12,-278.3 4879.12,-274.8 4869.12,-271.3 4869.12,-278.3"/>
</g>
<!-- DialogModule&#45;&gt;SongModule -->
<g id="edge58" class="edge">
<title>DialogModule&#45;&gt;SongModule</title>
<path fill="none" stroke="black" d="M3913.72,-152.81C3913.72,-175.29 3913.72,-210.8 3913.72,-210.8 3913.72,-210.8 3572.24,-210.8 3572.24,-210.8"/>
<polygon fill="black" stroke="black" points="3572.24,-207.3 3562.24,-210.8 3572.24,-214.3 3572.24,-207.3"/>
</g>
<!-- Convertors -->
<g id="node30" class="node">
<title>Convertors</title>
<ellipse fill="#fdb462" stroke="black" cx="3276" cy="-210.8" rx="53.9" ry="18"/>
<text text-anchor="middle" x="3276" y="-206.6" font-family="Times,serif" font-size="14.00">Convertors</text>
</g>
<!-- Convertors&#45;&gt;AppModule -->
<g id="edge29" class="edge">
<title>Convertors&#45;&gt;AppModule</title>
<path fill="none" stroke="black" d="M3276,-229.18C3276,-253.08 3276,-291.8 3276,-291.8 3276,-291.8 4869.1,-291.8 4869.1,-291.8"/>
<polygon fill="black" stroke="black" points="4869.1,-295.3 4879.1,-291.8 4869.1,-288.3 4869.1,-295.3"/>
</g>
<!-- RouterModule.forRoot(args) -->
<g id="node31" class="node">
<title>RouterModule.forRoot(args)</title>
<polygon fill="#8dd3c7" stroke="black" points="7275.86,-228.8 7272.86,-232.8 7251.86,-232.8 7248.86,-228.8 7098.14,-228.8 7098.14,-192.8 7275.86,-192.8 7275.86,-228.8"/>
<text text-anchor="middle" x="7187" y="-206.6" font-family="Times,serif" font-size="14.00">RouterModule.forRoot(args)</text>
</g>
<!-- RouterModule.forRoot(args)&#45;&gt;AppRoutingModule -->
<g id="edge30" class="edge">
<title>RouterModule.forRoot(args)&#45;&gt;AppRoutingModule</title>
<path fill="none" stroke="black" d="M7187,-192.6C7187,-168.44 7187,-128.8 7187,-128.8 7187,-128.8 5313.54,-128.8 5313.54,-128.8"/>
<polygon fill="black" stroke="black" points="5313.54,-125.3 5303.54,-128.8 5313.54,-132.3 5313.54,-125.3"/>
</g>
<!-- DisplaySessionComponent -->
<g id="node33" class="node">
<title>DisplaySessionComponent</title>
<polygon fill="#ffffb3" stroke="black" points="733.67,-152.8 566.33,-152.8 566.33,-116.8 733.67,-116.8 733.67,-152.8"/>
<text text-anchor="middle" x="650" y="-130.6" font-family="Times,serif" font-size="14.00">DisplaySessionComponent</text>
</g>
<!-- DisplaySessionComponent&#45;&gt;SessionModule -->
<g id="edge32" class="edge">
<title>DisplaySessionComponent&#45;&gt;SessionModule</title>
<path fill="none" stroke="black" d="M650,-152.99C650,-167.98 650,-186.8 650,-186.8 650,-186.8 3359.59,-186.8 3359.59,-186.8 3359.59,-186.8 3359.59,-187.38 3359.59,-187.38"/>
<polygon fill="black" stroke="black" points="3356.09,-182.61 3359.59,-192.61 3363.09,-182.61 3356.09,-182.61"/>
</g>
<!-- PreviousSessionsComponent -->
<g id="node34" class="node">
<title>PreviousSessionsComponent</title>
<polygon fill="#ffffb3" stroke="black" points="1496.07,-152.8 1317.93,-152.8 1317.93,-116.8 1496.07,-116.8 1496.07,-152.8"/>
<text text-anchor="middle" x="1407" y="-130.6" font-family="Times,serif" font-size="14.00">PreviousSessionsComponent</text>
</g>
<!-- PreviousSessionsComponent&#45;&gt;SessionModule -->
<g id="edge33" class="edge">
<title>PreviousSessionsComponent&#45;&gt;SessionModule</title>
<path fill="none" stroke="black" d="M1407,-152.95C1407,-165.07 1407,-178.8 1407,-178.8 1407,-178.8 3381.3,-178.8 3381.3,-178.8 3381.3,-178.8 3381.3,-182.56 3381.3,-182.56"/>
<polygon fill="black" stroke="black" points="3377.8,-182.56 3381.3,-192.56 3384.8,-182.56 3377.8,-182.56"/>
</g>
<!-- SessionResourceComponent -->
<g id="node35" class="node">
<title>SessionResourceComponent</title>
<polygon fill="#ffffb3" stroke="black" points="1300.21,-152.8 1123.79,-152.8 1123.79,-116.8 1300.21,-116.8 1300.21,-152.8"/>
<text text-anchor="middle" x="1212" y="-130.6" font-family="Times,serif" font-size="14.00">SessionResourceComponent</text>
</g>
<!-- SessionResourceComponent&#45;&gt;SessionModule -->
<g id="edge34" class="edge">
<title>SessionResourceComponent&#45;&gt;SessionModule</title>
<path fill="none" stroke="black" d="M1212,-152.98C1212,-165.84 1212,-180.8 1212,-180.8 1212,-180.8 3375.87,-180.8 3375.87,-180.8 3375.87,-180.8 3375.87,-182.66 3375.87,-182.66"/>
<polygon fill="black" stroke="black" points="3372.37,-182.66 3375.87,-192.66 3379.37,-182.66 3372.37,-182.66"/>
</g>
<!-- SessionResourcePickerComponent -->
<g id="node36" class="node">
<title>SessionResourcePickerComponent</title>
<polygon fill="#ffffb3" stroke="black" points="1105.97,-152.8 894.03,-152.8 894.03,-116.8 1105.97,-116.8 1105.97,-152.8"/>
<text text-anchor="middle" x="1000" y="-130.6" font-family="Times,serif" font-size="14.00">SessionResourcePickerComponent</text>
</g>
<!-- SessionResourcePickerComponent&#45;&gt;SessionModule -->
<g id="edge35" class="edge">
<title>SessionResourcePickerComponent&#45;&gt;SessionModule</title>
<path fill="none" stroke="black" d="M1000,-152.95C1000,-166.54 1000,-182.8 1000,-182.8 1000,-182.8 3370.44,-182.8 3370.44,-182.8 3370.44,-182.8 3370.44,-183.78 3370.44,-183.78"/>
<polygon fill="black" stroke="black" points="3366.94,-182.59 3370.44,-192.59 3373.94,-182.59 3366.94,-182.59"/>
</g>
<!-- SessionComponent -->
<g id="node37" class="node">
<title>SessionComponent</title>
<polygon fill="#ffffb3" stroke="black" points="876.12,-152.8 751.88,-152.8 751.88,-116.8 876.12,-116.8 876.12,-152.8"/>
<text text-anchor="middle" x="814" y="-130.6" font-family="Times,serif" font-size="14.00">SessionComponent</text>
</g>
<!-- SessionComponent&#45;&gt;SessionModule -->
<g id="edge36" class="edge">
<title>SessionComponent&#45;&gt;SessionModule</title>
<path fill="none" stroke="black" d="M814,-152.85C814,-167.17 814,-184.8 814,-184.8 814,-184.8 3365.02,-184.8 3365.02,-184.8 3365.02,-184.8 3365.02,-185.59 3365.02,-185.59"/>
<polygon fill="black" stroke="black" points="3361.52,-182.74 3365.02,-192.74 3368.52,-182.74 3361.52,-182.74"/>
</g>
<!-- MatInputModule -->
<g id="node38" class="node">
<title>MatInputModule</title>
<polygon fill="#8dd3c7" stroke="black" points="1873.66,-152.8 1870.66,-156.8 1849.66,-156.8 1846.66,-152.8 1762.34,-152.8 1762.34,-116.8 1873.66,-116.8 1873.66,-152.8"/>
<text text-anchor="middle" x="1818" y="-130.6" font-family="Times,serif" font-size="14.00">MatInputModule</text>
</g>
<!-- MatInputModule&#45;&gt;SessionModule -->
<g id="edge39" class="edge">
<title>MatInputModule&#45;&gt;SessionModule</title>
<path fill="none" stroke="black" d="M1818,-152.87C1818,-162.26 1818,-171.8 1818,-171.8 1818,-171.8 3397.57,-171.8 3397.57,-171.8 3397.57,-171.8 3397.57,-182.67 3397.57,-182.67"/>
<polygon fill="black" stroke="black" points="3394.07,-182.67 3397.57,-192.67 3401.07,-182.67 3394.07,-182.67"/>
</g>
<!-- CommonModule -->
<g id="node39" class="node">
<title>CommonModule</title>
<polygon fill="#8dd3c7" stroke="black" points="2675.67,-152.8 2672.67,-156.8 2651.67,-156.8 2648.67,-152.8 2564.33,-152.8 2564.33,-116.8 2675.67,-116.8 2675.67,-152.8"/>
<text text-anchor="middle" x="2620" y="-130.6" font-family="Times,serif" font-size="14.00">CommonModule</text>
</g>
<!-- CommonModule&#45;&gt;SessionModule -->
<g id="edge40" class="edge">
<title>CommonModule&#45;&gt;SessionModule</title>
<path fill="none" stroke="black" d="M2601.39,-152.97C2601.39,-156.85 2601.39,-159.8 2601.39,-159.8 2601.39,-159.8 3430.13,-159.8 3430.13,-159.8 3430.13,-159.8 3430.13,-182.68 3430.13,-182.68"/>
<polygon fill="black" stroke="black" points="3426.63,-182.68 3430.13,-192.68 3433.63,-182.68 3426.63,-182.68"/>
</g>
<!-- CommonModule&#45;&gt;SongModule -->
<g id="edge56" class="edge">
<title>CommonModule&#45;&gt;SongModule</title>
<path fill="none" stroke="black" d="M2638.61,-152.92C2638.61,-155.77 2638.61,-157.8 2638.61,-157.8 2638.61,-157.8 3503.28,-157.8 3503.28,-157.8 3503.28,-157.8 3503.28,-182.56 3503.28,-182.56"/>
<polygon fill="black" stroke="black" points="3499.78,-182.56 3503.28,-192.56 3506.78,-182.56 3499.78,-182.56"/>
</g>
<!-- MatTableModule -->
<g id="node40" class="node">
<title>MatTableModule</title>
<polygon fill="#8dd3c7" stroke="black" points="1633.97,-152.8 1630.97,-156.8 1609.97,-156.8 1606.97,-152.8 1520.03,-152.8 1520.03,-116.8 1633.97,-116.8 1633.97,-152.8"/>
<text text-anchor="middle" x="1577" y="-130.6" font-family="Times,serif" font-size="14.00">MatTableModule</text>
</g>
<!-- MatTableModule&#45;&gt;SessionModule -->
<g id="edge42" class="edge">
<title>MatTableModule&#45;&gt;SessionModule</title>
<path fill="none" stroke="black" d="M1577,-152.86C1577,-164.24 1577,-176.8 1577,-176.8 1577,-176.8 3386.72,-176.8 3386.72,-176.8 3386.72,-176.8 3386.72,-182.61 3386.72,-182.61"/>
<polygon fill="black" stroke="black" points="3383.22,-182.61 3386.72,-192.61 3390.22,-182.61 3383.22,-182.61"/>
</g>
<!-- MatPaginatorModule -->
<g id="node41" class="node">
<title>MatPaginatorModule</title>
<polygon fill="#8dd3c7" stroke="black" points="2545.76,-152.8 2542.76,-156.8 2521.76,-156.8 2518.76,-152.8 2410.24,-152.8 2410.24,-116.8 2545.76,-116.8 2545.76,-152.8"/>
<text text-anchor="middle" x="2478" y="-130.6" font-family="Times,serif" font-size="14.00">MatPaginatorModule</text>
</g>
<!-- MatPaginatorModule&#45;&gt;SessionModule -->
<g id="edge43" class="edge">
<title>MatPaginatorModule&#45;&gt;SessionModule</title>
<path fill="none" stroke="black" d="M2478,-152.96C2478,-157.84 2478,-161.8 2478,-161.8 2478,-161.8 3424.7,-161.8 3424.7,-161.8 3424.7,-161.8 3424.7,-182.55 3424.7,-182.55"/>
<polygon fill="black" stroke="black" points="3421.2,-182.55 3424.7,-192.55 3428.2,-182.55 3421.2,-182.55"/>
</g>
<!-- MatSortModule -->
<g id="node42" class="node">
<title>MatSortModule</title>
<polygon fill="#8dd3c7" stroke="black" points="2391.94,-152.8 2388.94,-156.8 2367.94,-156.8 2364.94,-152.8 2286.06,-152.8 2286.06,-116.8 2391.94,-116.8 2391.94,-152.8"/>
<text text-anchor="middle" x="2339" y="-130.6" font-family="Times,serif" font-size="14.00">MatSortModule</text>
</g>
<!-- MatSortModule&#45;&gt;SessionModule -->
<g id="edge44" class="edge">
<title>MatSortModule&#45;&gt;SessionModule</title>
<path fill="none" stroke="black" d="M2339,-153C2339,-158.83 2339,-163.8 2339,-163.8 2339,-163.8 3419.28,-163.8 3419.28,-163.8 3419.28,-163.8 3419.28,-182.76 3419.28,-182.76"/>
<polygon fill="black" stroke="black" points="3415.78,-182.76 3419.28,-192.76 3422.78,-182.76 3415.78,-182.76"/>
</g>
<!-- CdTimerModule -->
<g id="node43" class="node">
<title>CdTimerModule</title>
<polygon fill="#8dd3c7" stroke="black" points="2268.1,-152.8 2265.1,-156.8 2244.1,-156.8 2241.1,-152.8 2157.9,-152.8 2157.9,-116.8 2268.1,-116.8 2268.1,-152.8"/>
<text text-anchor="middle" x="2213" y="-130.6" font-family="Times,serif" font-size="14.00">CdTimerModule</text>
</g>
<!-- CdTimerModule&#45;&gt;SessionModule -->
<g id="edge45" class="edge">
<title>CdTimerModule&#45;&gt;SessionModule</title>
<path fill="none" stroke="black" d="M2213,-152.83C2213,-159.65 2213,-165.8 2213,-165.8 2213,-165.8 3413.85,-165.8 3413.85,-165.8 3413.85,-165.8 3413.85,-182.76 3413.85,-182.76"/>
<polygon fill="black" stroke="black" points="3410.35,-182.76 3413.85,-192.76 3417.35,-182.76 3410.35,-182.76"/>
</g>
<!-- ChipsModule -->
<g id="node44" class="node">
<title>ChipsModule</title>
<polygon fill="#8dd3c7" stroke="black" points="2140.23,-152.8 2137.23,-156.8 2116.23,-156.8 2113.23,-152.8 2047.77,-152.8 2047.77,-116.8 2140.23,-116.8 2140.23,-152.8"/>
<text text-anchor="middle" x="2094" y="-130.6" font-family="Times,serif" font-size="14.00">ChipsModule</text>
</g>
<!-- ChipsModule&#45;&gt;SessionModule -->
<g id="edge46" class="edge">
<title>ChipsModule&#45;&gt;SessionModule</title>
<path fill="none" stroke="black" d="M2094,-152.84C2094,-160.55 2094,-167.8 2094,-167.8 2094,-167.8 3408.43,-167.8 3408.43,-167.8 3408.43,-167.8 3408.43,-182.31 3408.43,-182.31"/>
<polygon fill="black" stroke="black" points="3404.93,-182.31 3408.43,-192.31 3411.93,-182.31 3404.93,-182.31"/>
</g>
<!-- InputTextareaModule -->
<g id="node45" class="node">
<title>InputTextareaModule</title>
<polygon fill="#8dd3c7" stroke="black" points="2030.06,-152.8 2027.06,-156.8 2006.06,-156.8 2003.06,-152.8 1891.94,-152.8 1891.94,-116.8 2030.06,-116.8 2030.06,-152.8"/>
<text text-anchor="middle" x="1961" y="-130.6" font-family="Times,serif" font-size="14.00">InputTextareaModule</text>
</g>
<!-- InputTextareaModule&#45;&gt;SessionModule -->
<g id="edge47" class="edge">
<title>InputTextareaModule&#45;&gt;SessionModule</title>
<path fill="none" stroke="black" d="M1961,-153.12C1961,-161.59 1961,-169.8 1961,-169.8 1961,-169.8 3403,-169.8 3403,-169.8 3403,-169.8 3403,-182.7 3403,-182.7"/>
<polygon fill="black" stroke="black" points="3399.5,-182.7 3403,-192.7 3406.5,-182.7 3399.5,-182.7"/>
</g>
<!-- TableModule -->
<g id="node46" class="node">
<title>TableModule</title>
<polygon fill="#8dd3c7" stroke="black" points="1743.92,-152.8 1740.92,-156.8 1719.92,-156.8 1716.92,-152.8 1652.08,-152.8 1652.08,-116.8 1743.92,-116.8 1743.92,-152.8"/>
<text text-anchor="middle" x="1698" y="-130.6" font-family="Times,serif" font-size="14.00">TableModule</text>
</g>
<!-- TableModule&#45;&gt;SessionModule -->
<g id="edge48" class="edge">
<title>TableModule&#45;&gt;SessionModule</title>
<path fill="none" stroke="black" d="M1698,-152.93C1698,-163.51 1698,-174.8 1698,-174.8 1698,-174.8 3392.15,-174.8 3392.15,-174.8 3392.15,-174.8 3392.15,-182.38 3392.15,-182.38"/>
<polygon fill="black" stroke="black" points="3388.65,-182.38 3392.15,-192.38 3395.65,-182.38 3388.65,-182.38"/>
</g>
<!-- SongComponent -->
<g id="node50" class="node">
<title>SongComponent</title>
<polygon fill="#ffffb3" stroke="black" points="3014.12,-152.8 2903.88,-152.8 2903.88,-116.8 3014.12,-116.8 3014.12,-152.8"/>
<text text-anchor="middle" x="2959" y="-130.6" font-family="Times,serif" font-size="14.00">SongComponent</text>
</g>
<!-- SongComponent&#45;&gt;SongModule -->
<g id="edge53" class="edge">
<title>SongComponent&#45;&gt;SongModule</title>
<path fill="none" stroke="black" d="M2959,-152.88C2959,-154.65 2959,-155.8 2959,-155.8 2959,-155.8 3532.72,-155.8 3532.72,-155.8 3532.72,-155.8 3532.72,-182.79 3532.72,-182.79"/>
<polygon fill="black" stroke="black" points="3529.22,-182.79 3532.72,-192.79 3536.22,-182.79 3529.22,-182.79"/>
</g>
<!-- MessageService -->
<g id="node51" class="node">
<title>MessageService</title>
<ellipse fill="#fdb462" stroke="black" cx="2790" cy="-66.8" rx="73.57" ry="18"/>
<text text-anchor="middle" x="2790" y="-62.6" font-family="Times,serif" font-size="14.00">MessageService</text>
</g>
<!-- MessageService&#45;&gt;SongComponent -->
<g id="edge54" class="edge">
<title>MessageService&#45;&gt;SongComponent</title>
<path fill="none" stroke="black" d="M2790,-85.02C2790,-105.17 2790,-134.8 2790,-134.8 2790,-134.8 2893.66,-134.8 2893.66,-134.8"/>
<polygon fill="black" stroke="black" points="2893.66,-138.3 2903.66,-134.8 2893.66,-131.3 2893.66,-138.3"/>
</g>
<!-- SongsterrService -->
<g id="node52" class="node">
<title>SongsterrService</title>
<ellipse fill="#fdb462" stroke="black" cx="2959" cy="-66.8" rx="77.02" ry="18"/>
<text text-anchor="middle" x="2959" y="-62.6" font-family="Times,serif" font-size="14.00">SongsterrService</text>
</g>
<!-- SongsterrService&#45;&gt;SongComponent -->
<g id="edge55" class="edge">
<title>SongsterrService&#45;&gt;SongComponent</title>
<path fill="none" stroke="black" d="M2959,-85.02C2959,-85.02 2959,-106.53 2959,-106.53"/>
<polygon fill="black" stroke="black" points="2955.5,-106.53 2959,-116.53 2962.5,-106.53 2955.5,-106.53"/>
</g>
<!-- FileUploadModule -->
<g id="node53" class="node">
<title>FileUploadModule</title>
<polygon fill="#8dd3c7" stroke="black" points="3182.05,-84.8 3179.05,-88.8 3158.05,-88.8 3155.05,-84.8 3059.95,-84.8 3059.95,-48.8 3182.05,-48.8 3182.05,-84.8"/>
<text text-anchor="middle" x="3121" y="-62.6" font-family="Times,serif" font-size="14.00">FileUploadModule</text>
</g>
<!-- FileUploadModule&#45;&gt;SongModule -->
<g id="edge59" class="edge">
<title>FileUploadModule&#45;&gt;SongModule</title>
<path fill="none" stroke="black" d="M3182.37,-66.8C3281.11,-66.8 3464.27,-66.8 3464.27,-66.8 3464.27,-66.8 3464.27,-201.8 3464.27,-201.8 3464.27,-201.8 3465.2,-201.8 3465.2,-201.8"/>
<polygon fill="black" stroke="black" points="3463.63,-205.3 3473.63,-201.8 3463.63,-198.3 3463.63,-205.3"/>
</g>
</g>
</svg>
