<?xml version="1.0" encoding="UTF-8" standalone="no"?>
<!DOCTYPE svg PUBLIC "-//W3C//DTD SVG 1.1//EN"
 "http://www.w3.org/Graphics/SVG/1.1/DTD/svg11.dtd">
<!-- Generated by graphviz version 5.0.0 (20220707.1540)
 -->
<!-- Title: dependencies Pages: 1 -->
<svg width="5470pt" height="261pt"
 viewBox="0.00 0.00 5470.00 260.80" xmlns="http://www.w3.org/2000/svg" xmlns:xlink="http://www.w3.org/1999/xlink">
<g id="graph0" class="graph" transform="scale(1 1) rotate(0) translate(4 256.8)">
<title>dependencies</title>
<polygon fill="white" stroke="transparent" points="-4,4 -4,-256.8 5466,-256.8 5466,4 -4,4"/>
<text text-anchor="middle" x="2731" y="-8.2" font-family="sans-serif" font-size="14.00">dependencies</text>
<g id="clust1" class="cluster">
<title>cluster_AppModule</title>
<polygon fill="none" stroke="black" stroke-dasharray="1,5" points="352,-32.8 352,-244.8 3165,-244.8 3165,-32.8 352,-32.8"/>
</g>
<g id="clust2" class="cluster">
<title>cluster_AppModule_declarations</title>
<polygon fill="none" stroke="black" points="492,-40.8 492,-92.8 1359,-92.8 1359,-40.8 492,-40.8"/>
</g>
<g id="clust9" class="cluster">
<title>cluster_AppModule_imports</title>
<polygon fill="none" stroke="black" points="1367,-40.8 1367,-168.8 3157,-168.8 3157,-40.8 1367,-40.8"/>
</g>
<g id="clust11" class="cluster">
<title>cluster_AppModule_bootstrap</title>
<polygon fill="none" stroke="black" points="1255,-184.8 1255,-236.8 1379,-236.8 1379,-184.8 1255,-184.8"/>
</g>
<g id="clust12" class="cluster">
<title>cluster_AppModule_providers</title>
<polygon fill="none" stroke="black" points="360,-40.8 360,-92.8 484,-92.8 484,-40.8 360,-40.8"/>
</g>
<g id="clust13" class="cluster">
<title>cluster_AppRoutingModule</title>
<polygon fill="none" stroke="black" stroke-dasharray="1,5" points="8,-108.8 8,-176.8 344,-176.8 344,-108.8 8,-108.8"/>
</g>
<g id="clust15" class="cluster">
<title>cluster_AppRoutingModule_imports</title>
<polygon fill="none" stroke="black" points="142,-116.8 142,-168.8 336,-168.8 336,-116.8 142,-116.8"/>
</g>
<g id="clust16" class="cluster">
<title>cluster_AppRoutingModule_exports</title>
<polygon fill="none" stroke="black" points="16,-116.8 16,-168.8 134,-168.8 134,-116.8 16,-116.8"/>
</g>
<g id="clust19" class="cluster">
<title>cluster_SessionModule</title>
<polygon fill="none" stroke="black" stroke-dasharray="1,5" points="3173,-32.8 3173,-100.8 5304,-100.8 5304,-32.8 3173,-32.8"/>
</g>
<g id="clust20" class="cluster">
<title>cluster_SessionModule_declarations</title>
<polygon fill="none" stroke="black" points="3722,-40.8 3722,-92.8 4244,-92.8 4244,-40.8 3722,-40.8"/>
</g>
<g id="clust24" class="cluster">
<title>cluster_SessionModule_imports</title>
<polygon fill="none" stroke="black" points="4252,-40.8 4252,-92.8 5296,-92.8 5296,-40.8 4252,-40.8"/>
</g>
<g id="clust25" class="cluster">
<title>cluster_SessionModule_exports</title>
<polygon fill="none" stroke="black" points="3181,-40.8 3181,-92.8 3714,-92.8 3714,-40.8 3181,-40.8"/>
</g>
<g id="clust28" class="cluster">
<title>cluster_SongModule</title>
<polygon fill="none" stroke="black" stroke-dasharray="1,5" points="5312,-32.8 5312,-168.8 5454,-168.8 5454,-32.8 5312,-32.8"/>
</g>
<g id="clust29" class="cluster">
<title>cluster_SongModule_declarations</title>
<polygon fill="none" stroke="black" points="5320,-40.8 5320,-92.8 5446,-92.8 5446,-40.8 5320,-40.8"/>
</g>
<!-- AppComponent -->
<g id="node1" class="node">
<title>AppComponent</title>
<polygon fill="#ffffb3" stroke="black" points="778.94,-84.8 673.06,-84.8 673.06,-48.8 778.94,-48.8 778.94,-84.8"/>
<text text-anchor="middle" x="726" y="-62.6" font-family="Times,serif" font-size="14.00">AppComponent</text>
</g>
<!-- AppModule -->
<g id="node7" class="node">
<title>AppModule</title>
<polygon fill="#8dd3c7" stroke="black" points="1358.66,-160.8 1355.66,-164.8 1334.66,-164.8 1331.66,-160.8 1275.34,-160.8 1275.34,-124.8 1358.66,-124.8 1358.66,-160.8"/>
<text text-anchor="middle" x="1317" y="-138.6" font-family="Times,serif" font-size="14.00">AppModule</text>
</g>
<!-- AppComponent&#45;&gt;AppModule -->
<g id="edge1" class="edge">
<title>AppComponent&#45;&gt;AppModule</title>
<path fill="none" stroke="black" d="M726,-85.12C726,-108.46 726,-145.8 726,-145.8 726,-145.8 1264.97,-145.8 1264.97,-145.8"/>
<polygon fill="black" stroke="black" points="1264.97,-149.3 1274.97,-145.8 1264.97,-142.3 1264.97,-149.3"/>
</g>
<!-- LandingPageComponent -->
<g id="node2" class="node">
<title>LandingPageComponent</title>
<polygon fill="#ffffb3" stroke="black" points="655.7,-84.8 500.3,-84.8 500.3,-48.8 655.7,-48.8 655.7,-84.8"/>
<text text-anchor="middle" x="578" y="-62.6" font-family="Times,serif" font-size="14.00">LandingPageComponent</text>
</g>
<!-- LandingPageComponent&#45;&gt;AppModule -->
<g id="edge2" class="edge">
<title>LandingPageComponent&#45;&gt;AppModule</title>
<path fill="none" stroke="black" d="M578,-85.03C578,-109.73 578,-150.8 578,-150.8 578,-150.8 1265.15,-150.8 1265.15,-150.8"/>
<polygon fill="black" stroke="black" points="1265.15,-154.3 1275.15,-150.8 1265.15,-147.3 1265.15,-154.3"/>
</g>
<!-- HeaderComponent -->
<g id="node3" class="node">
<title>HeaderComponent</title>
<polygon fill="#ffffb3" stroke="black" points="1350.75,-84.8 1229.25,-84.8 1229.25,-48.8 1350.75,-48.8 1350.75,-84.8"/>
<text text-anchor="middle" x="1290" y="-62.6" font-family="Times,serif" font-size="14.00">HeaderComponent</text>
</g>
<!-- HeaderComponent&#45;&gt;AppModule -->
<g id="edge3" class="edge">
<title>HeaderComponent&#45;&gt;AppModule</title>
<path fill="none" stroke="black" d="M1300.4,-84.81C1300.4,-84.81 1300.4,-114.65 1300.4,-114.65"/>
<polygon fill="black" stroke="black" points="1296.9,-114.65 1300.4,-124.65 1303.9,-114.65 1296.9,-114.65"/>
</g>
<!-- FooterComponent -->
<g id="node4" class="node">
<title>FooterComponent</title>
<polygon fill="#ffffb3" stroke="black" points="1210.88,-84.8 1093.12,-84.8 1093.12,-48.8 1210.88,-48.8 1210.88,-84.8"/>
<text text-anchor="middle" x="1152" y="-62.6" font-family="Times,serif" font-size="14.00">FooterComponent</text>
</g>
<!-- FooterComponent&#45;&gt;AppModule -->
<g id="edge4" class="edge">
<title>FooterComponent&#45;&gt;AppModule</title>
<path fill="none" stroke="black" d="M1152,-84.97C1152,-103.89 1152,-130.8 1152,-130.8 1152,-130.8 1264.94,-130.8 1264.94,-130.8"/>
<polygon fill="black" stroke="black" points="1264.94,-134.3 1274.94,-130.8 1264.94,-127.3 1264.94,-134.3"/>
</g>
<!-- NavigationComponent -->
<g id="node5" class="node">
<title>NavigationComponent</title>
<polygon fill="#ffffb3" stroke="black" points="1074.54,-84.8 931.46,-84.8 931.46,-48.8 1074.54,-48.8 1074.54,-84.8"/>
<text text-anchor="middle" x="1003" y="-62.6" font-family="Times,serif" font-size="14.00">NavigationComponent</text>
</g>
<!-- NavigationComponent&#45;&gt;AppModule -->
<g id="edge5" class="edge">
<title>NavigationComponent&#45;&gt;AppModule</title>
<path fill="none" stroke="black" d="M1003,-84.93C1003,-105.37 1003,-135.8 1003,-135.8 1003,-135.8 1265.3,-135.8 1265.3,-135.8"/>
<polygon fill="black" stroke="black" points="1265.3,-139.3 1275.3,-135.8 1265.3,-132.3 1265.3,-139.3"/>
</g>
<!-- ChordComponent -->
<g id="node6" class="node">
<title>ChordComponent</title>
<polygon fill="#ffffb3" stroke="black" points="913.33,-84.8 796.67,-84.8 796.67,-48.8 913.33,-48.8 913.33,-84.8"/>
<text text-anchor="middle" x="855" y="-62.6" font-family="Times,serif" font-size="14.00">ChordComponent</text>
</g>
<!-- ChordComponent&#45;&gt;AppModule -->
<g id="edge6" class="edge">
<title>ChordComponent&#45;&gt;AppModule</title>
<path fill="none" stroke="black" d="M855,-85.09C855,-107.01 855,-140.8 855,-140.8 855,-140.8 1265.19,-140.8 1265.19,-140.8"/>
<polygon fill="black" stroke="black" points="1265.19,-144.3 1275.19,-140.8 1265.19,-137.3 1265.19,-144.3"/>
</g>
<!-- AppComponent  -->
<g id="node22" class="node">
<title>AppComponent </title>
<polygon fill="#80b1d3" stroke="black" points="1371.44,-228.8 1262.56,-228.8 1262.56,-192.8 1371.44,-192.8 1371.44,-228.8"/>
<text text-anchor="middle" x="1317" y="-206.6" font-family="Times,serif" font-size="14.00">AppComponent </text>
</g>
<!-- AppModule&#45;&gt;AppComponent  -->
<g id="edge21" class="edge">
<title>AppModule&#45;&gt;AppComponent </title>
<path fill="none" stroke="black" stroke-dasharray="1,5" d="M1317,-161.02C1317,-161.02 1317,-182.53 1317,-182.53"/>
<polygon fill="black" stroke="black" points="1313.5,-182.53 1317,-192.53 1320.5,-182.53 1313.5,-182.53"/>
</g>
<!-- BrowserModule -->
<g id="node8" class="node">
<title>BrowserModule</title>
<polygon fill="#8dd3c7" stroke="black" points="1869.49,-84.8 1866.49,-88.8 1845.49,-88.8 1842.49,-84.8 1762.51,-84.8 1762.51,-48.8 1869.49,-48.8 1869.49,-84.8"/>
<text text-anchor="middle" x="1816" y="-62.6" font-family="Times,serif" font-size="14.00">BrowserModule</text>
</g>
<!-- BrowserModule&#45;&gt;AppModule -->
<g id="edge7" class="edge">
<title>BrowserModule&#45;&gt;AppModule</title>
<path fill="none" stroke="black" d="M1816,-85.02C1816,-103.63 1816,-129.8 1816,-129.8 1816,-129.8 1368.69,-129.8 1368.69,-129.8"/>
<polygon fill="black" stroke="black" points="1368.69,-126.3 1358.69,-129.8 1368.69,-133.3 1368.69,-126.3"/>
</g>
<!-- AppRoutingModule -->
<g id="node9" class="node">
<title>AppRoutingModule</title>
<polygon fill="#8dd3c7" stroke="black" points="1503.28,-84.8 1500.28,-88.8 1479.28,-88.8 1476.28,-84.8 1374.72,-84.8 1374.72,-48.8 1503.28,-48.8 1503.28,-84.8"/>
<text text-anchor="middle" x="1439" y="-62.6" font-family="Times,serif" font-size="14.00">AppRoutingModule</text>
</g>
<!-- AppRoutingModule&#45;&gt;AppModule -->
<g id="edge8" class="edge">
<title>AppRoutingModule&#45;&gt;AppModule</title>
<path fill="none" stroke="black" d="M1374.37,-66.8C1363.07,-66.8 1354.85,-66.8 1354.85,-66.8 1354.85,-66.8 1354.85,-114.79 1354.85,-114.79"/>
<polygon fill="black" stroke="black" points="1351.35,-114.79 1354.85,-124.79 1358.35,-114.79 1351.35,-114.79"/>
</g>
<!-- RouterModule  -->
<g id="node25" class="node">
<title>RouterModule </title>
<polygon fill="#fb8072" stroke="black" points="125.66,-160.8 24.34,-160.8 24.34,-124.8 125.66,-124.8 125.66,-160.8"/>
<text text-anchor="middle" x="75" y="-138.6" font-family="Times,serif" font-size="14.00">RouterModule </text>
</g>
<!-- AppRoutingModule&#45;&gt;RouterModule  -->
<g id="edge24" class="edge">
<title>AppRoutingModule&#45;&gt;RouterModule </title>
<path fill="none" stroke="black" stroke-dasharray="5,2" d="M1417.54,-85.01C1417.54,-90.35 1417.54,-94.8 1417.54,-94.8 1417.54,-94.8 75,-94.8 75,-94.8 75,-94.8 75,-114.65 75,-114.65"/>
<polygon fill="black" stroke="black" points="71.5,-114.65 75,-124.65 78.5,-114.65 71.5,-114.65"/>
</g>
<!-- SessionModule -->
<g id="node10" class="node">
<title>SessionModule</title>
<polygon fill="#8dd3c7" stroke="black" points="3149.34,-160.8 3146.34,-164.8 3125.34,-164.8 3122.34,-160.8 3046.66,-160.8 3046.66,-124.8 3149.34,-124.8 3149.34,-160.8"/>
<text text-anchor="middle" x="3098" y="-138.6" font-family="Times,serif" font-size="14.00">SessionModule</text>
</g>
<!-- SessionModule&#45;&gt;AppModule -->
<g id="edge9" class="edge">
<title>SessionModule&#45;&gt;AppModule</title>
<path fill="none" stroke="black" d="M3046.62,-158.8C3046.62,-158.8 1368.78,-158.8 1368.78,-158.8"/>
<polygon fill="black" stroke="black" points="1368.78,-155.3 1358.78,-158.8 1368.78,-162.3 1368.78,-155.3"/>
</g>
<!-- DisplaySessionComponent  -->
<g id="node37" class="node">
<title>DisplaySessionComponent </title>
<polygon fill="#fb8072" stroke="black" points="3560.67,-84.8 3389.33,-84.8 3389.33,-48.8 3560.67,-48.8 3560.67,-84.8"/>
<text text-anchor="middle" x="3475" y="-62.6" font-family="Times,serif" font-size="14.00">DisplaySessionComponent </text>
</g>
<!-- SessionModule&#45;&gt;DisplaySessionComponent  -->
<g id="edge41" class="edge">
<title>SessionModule&#45;&gt;DisplaySessionComponent </title>
<path fill="none" stroke="black" stroke-dasharray="5,2" d="M3149.24,-129.8C3252.32,-129.8 3475,-129.8 3475,-129.8 3475,-129.8 3475,-95.02 3475,-95.02"/>
<polygon fill="black" stroke="black" points="3478.5,-95.02 3475,-85.02 3471.5,-95.02 3478.5,-95.02"/>
</g>
<!-- PreviousSessionsComponent  -->
<g id="node38" class="node">
<title>PreviousSessionsComponent </title>
<polygon fill="#fb8072" stroke="black" points="3371.07,-84.8 3188.93,-84.8 3188.93,-48.8 3371.07,-48.8 3371.07,-84.8"/>
<text text-anchor="middle" x="3280" y="-62.6" font-family="Times,serif" font-size="14.00">PreviousSessionsComponent </text>
</g>
<!-- SessionModule&#45;&gt;PreviousSessionsComponent  -->
<g id="edge42" class="edge">
<title>SessionModule&#45;&gt;PreviousSessionsComponent </title>
<path fill="none" stroke="black" stroke-dasharray="5,2" d="M3149.18,-127.8C3203.01,-127.8 3280,-127.8 3280,-127.8 3280,-127.8 3280,-95.1 3280,-95.1"/>
<polygon fill="black" stroke="black" points="3283.5,-95.1 3280,-85.1 3276.5,-95.1 3283.5,-95.1"/>
</g>
<!-- SessionComponent  -->
<g id="node39" class="node">
<title>SessionComponent </title>
<polygon fill="#fb8072" stroke="black" points="3705.62,-84.8 3578.38,-84.8 3578.38,-48.8 3705.62,-48.8 3705.62,-84.8"/>
<text text-anchor="middle" x="3642" y="-62.6" font-family="Times,serif" font-size="14.00">SessionComponent </text>
</g>
<!-- SessionModule&#45;&gt;SessionComponent  -->
<g id="edge43" class="edge">
<title>SessionModule&#45;&gt;SessionComponent </title>
<path fill="none" stroke="black" stroke-dasharray="5,2" d="M3149.18,-131.8C3284.6,-131.8 3642,-131.8 3642,-131.8 3642,-131.8 3642,-94.91 3642,-94.91"/>
<polygon fill="black" stroke="black" points="3645.5,-94.91 3642,-84.91 3638.5,-94.91 3645.5,-94.91"/>
</g>
<!-- ReactiveFormsModule -->
<g id="node11" class="node">
<title>ReactiveFormsModule</title>
<polygon fill="#8dd3c7" stroke="black" points="2655.31,-84.8 2652.31,-88.8 2631.31,-88.8 2628.31,-84.8 2510.69,-84.8 2510.69,-48.8 2655.31,-48.8 2655.31,-84.8"/>
<text text-anchor="middle" x="2583" y="-62.6" font-family="Times,serif" font-size="14.00">ReactiveFormsModule</text>
</g>
<!-- ReactiveFormsModule&#45;&gt;AppModule -->
<g id="edge10" class="edge">
<title>ReactiveFormsModule&#45;&gt;AppModule</title>
<path fill="none" stroke="black" d="M2558.95,-84.96C2558.95,-107.15 2558.95,-141.8 2558.95,-141.8 2558.95,-141.8 1368.68,-141.8 1368.68,-141.8"/>
<polygon fill="black" stroke="black" points="1368.68,-138.3 1358.68,-141.8 1368.68,-145.3 1368.68,-138.3"/>
</g>
<!-- ReactiveFormsModule&#45;&gt;SessionModule -->
<g id="edge28" class="edge">
<title>ReactiveFormsModule&#45;&gt;SessionModule</title>
<path fill="none" stroke="black" d="M2607.05,-85.01C2607.05,-111.31 2607.05,-156.8 2607.05,-156.8 2607.05,-156.8 3036.39,-156.8 3036.39,-156.8"/>
<polygon fill="black" stroke="black" points="3036.39,-160.3 3046.39,-156.8 3036.39,-153.3 3036.39,-160.3"/>
</g>
<!-- FormsModule -->
<g id="node12" class="node">
<title>FormsModule</title>
<polygon fill="#8dd3c7" stroke="black" points="3148.84,-84.8 3145.84,-88.8 3124.84,-88.8 3121.84,-84.8 3053.16,-84.8 3053.16,-48.8 3148.84,-48.8 3148.84,-84.8"/>
<text text-anchor="middle" x="3101" y="-62.6" font-family="Times,serif" font-size="14.00">FormsModule</text>
</g>
<!-- FormsModule&#45;&gt;AppModule -->
<g id="edge11" class="edge">
<title>FormsModule&#45;&gt;AppModule</title>
<path fill="none" stroke="black" d="M3085.11,-84.95C3085.11,-98.54 3085.11,-114.8 3085.11,-114.8 3085.11,-114.8 1325.64,-114.8 1325.64,-114.8 1325.64,-114.8 1325.64,-115.78 1325.64,-115.78"/>
<polygon fill="black" stroke="black" points="1322.14,-114.59 1325.64,-124.59 1329.14,-114.59 1322.14,-114.59"/>
</g>
<!-- FormsModule&#45;&gt;SessionModule -->
<g id="edge29" class="edge">
<title>FormsModule&#45;&gt;SessionModule</title>
<path fill="none" stroke="black" d="M3116.89,-84.81C3116.89,-84.81 3116.89,-114.65 3116.89,-114.65"/>
<polygon fill="black" stroke="black" points="3113.39,-114.65 3116.89,-124.65 3120.39,-114.65 3113.39,-114.65"/>
</g>
<!-- ServiceWorkerModule.register(args) -->
<g id="node13" class="node">
<title>ServiceWorkerModule.register(args)</title>
<polygon fill="#8dd3c7" stroke="black" points="1744.41,-84.8 1741.41,-88.8 1720.41,-88.8 1717.41,-84.8 1521.59,-84.8 1521.59,-48.8 1744.41,-48.8 1744.41,-84.8"/>
<text text-anchor="middle" x="1633" y="-62.6" font-family="Times,serif" font-size="14.00">ServiceWorkerModule.register(args)</text>
</g>
<!-- ServiceWorkerModule.register(args)&#45;&gt;AppModule -->
<g id="edge12" class="edge">
<title>ServiceWorkerModule.register(args)&#45;&gt;AppModule</title>
<path fill="none" stroke="black" d="M1633,-85.1C1633,-103.07 1633,-127.8 1633,-127.8 1633,-127.8 1368.96,-127.8 1368.96,-127.8"/>
<polygon fill="black" stroke="black" points="1368.96,-124.3 1358.96,-127.8 1368.96,-131.3 1368.96,-124.3"/>
</g>
<!-- RouterModule -->
<g id="node14" class="node">
<title>RouterModule</title>
<polygon fill="#8dd3c7" stroke="black" points="2492.66,-84.8 2489.66,-88.8 2468.66,-88.8 2465.66,-84.8 2395.34,-84.8 2395.34,-48.8 2492.66,-48.8 2492.66,-84.8"/>
<text text-anchor="middle" x="2444" y="-62.6" font-family="Times,serif" font-size="14.00">RouterModule</text>
</g>
<!-- RouterModule&#45;&gt;AppModule -->
<g id="edge13" class="edge">
<title>RouterModule&#45;&gt;AppModule</title>
<path fill="none" stroke="black" d="M2444,-84.84C2444,-106.46 2444,-139.8 2444,-139.8 2444,-139.8 1368.78,-139.8 1368.78,-139.8"/>
<polygon fill="black" stroke="black" points="1368.78,-136.3 1358.78,-139.8 1368.78,-143.3 1368.78,-136.3"/>
</g>
<!-- HttpClientModule -->
<g id="node15" class="node">
<title>HttpClientModule</title>
<polygon fill="#8dd3c7" stroke="black" points="3035.16,-84.8 3032.16,-88.8 3011.16,-88.8 3008.16,-84.8 2916.84,-84.8 2916.84,-48.8 3035.16,-48.8 3035.16,-84.8"/>
<text text-anchor="middle" x="2976" y="-62.6" font-family="Times,serif" font-size="14.00">HttpClientModule</text>
</g>
<!-- HttpClientModule&#45;&gt;AppModule -->
<g id="edge14" class="edge">
<title>HttpClientModule&#45;&gt;AppModule</title>
<path fill="none" stroke="black" d="M2956.22,-85C2956.22,-109.16 2956.22,-148.8 2956.22,-148.8 2956.22,-148.8 1368.75,-148.8 1368.75,-148.8"/>
<polygon fill="black" stroke="black" points="1368.75,-145.3 1358.75,-148.8 1368.75,-152.3 1368.75,-145.3"/>
</g>
<!-- HttpClientModule&#45;&gt;SessionModule -->
<g id="edge32" class="edge">
<title>HttpClientModule&#45;&gt;SessionModule</title>
<path fill="none" stroke="black" d="M2995.78,-85.03C2995.78,-109.73 2995.78,-150.8 2995.78,-150.8 2995.78,-150.8 3036.59,-150.8 3036.59,-150.8"/>
<polygon fill="black" stroke="black" points="3036.59,-154.3 3046.59,-150.8 3036.59,-147.3 3036.59,-154.3"/>
</g>
<!-- ButtonModule -->
<g id="node16" class="node">
<title>ButtonModule</title>
<polygon fill="#8dd3c7" stroke="black" points="2898.67,-84.8 2895.67,-88.8 2874.67,-88.8 2871.67,-84.8 2801.33,-84.8 2801.33,-48.8 2898.67,-48.8 2898.67,-84.8"/>
<text text-anchor="middle" x="2850" y="-62.6" font-family="Times,serif" font-size="14.00">ButtonModule</text>
</g>
<!-- ButtonModule&#45;&gt;AppModule -->
<g id="edge15" class="edge">
<title>ButtonModule&#45;&gt;AppModule</title>
<path fill="none" stroke="black" d="M2833.72,-84.95C2833.72,-108.56 2833.72,-146.8 2833.72,-146.8 2833.72,-146.8 1368.75,-146.8 1368.75,-146.8"/>
<polygon fill="black" stroke="black" points="1368.75,-143.3 1358.75,-146.8 1368.75,-150.3 1368.75,-143.3"/>
</g>
<!-- ButtonModule&#45;&gt;SessionModule -->
<g id="edge40" class="edge">
<title>ButtonModule&#45;&gt;SessionModule</title>
<path fill="none" stroke="black" d="M2866.28,-85.04C2866.28,-110.28 2866.28,-152.8 2866.28,-152.8 2866.28,-152.8 3036.57,-152.8 3036.57,-152.8"/>
<polygon fill="black" stroke="black" points="3036.57,-156.3 3046.57,-152.8 3036.57,-149.3 3036.57,-156.3"/>
</g>
<!-- InputTextModule -->
<g id="node17" class="node">
<title>InputTextModule</title>
<polygon fill="#8dd3c7" stroke="black" points="2377.26,-84.8 2374.26,-88.8 2353.26,-88.8 2350.26,-84.8 2262.74,-84.8 2262.74,-48.8 2377.26,-48.8 2377.26,-84.8"/>
<text text-anchor="middle" x="2320" y="-62.6" font-family="Times,serif" font-size="14.00">InputTextModule</text>
</g>
<!-- InputTextModule&#45;&gt;AppModule -->
<g id="edge16" class="edge">
<title>InputTextModule&#45;&gt;AppModule</title>
<path fill="none" stroke="black" d="M2320,-85.08C2320,-106.12 2320,-137.8 2320,-137.8 2320,-137.8 1368.82,-137.8 1368.82,-137.8"/>
<polygon fill="black" stroke="black" points="1368.82,-134.3 1358.82,-137.8 1368.82,-141.3 1368.82,-134.3"/>
</g>
<!-- StyleClassModule -->
<g id="node18" class="node">
<title>StyleClassModule</title>
<polygon fill="#8dd3c7" stroke="black" points="2244.17,-84.8 2241.17,-88.8 2220.17,-88.8 2217.17,-84.8 2125.83,-84.8 2125.83,-48.8 2244.17,-48.8 2244.17,-84.8"/>
<text text-anchor="middle" x="2185" y="-62.6" font-family="Times,serif" font-size="14.00">StyleClassModule</text>
</g>
<!-- StyleClassModule&#45;&gt;AppModule -->
<g id="edge17" class="edge">
<title>StyleClassModule&#45;&gt;AppModule</title>
<path fill="none" stroke="black" d="M2185,-84.93C2185,-105.37 2185,-135.8 2185,-135.8 2185,-135.8 1368.87,-135.8 1368.87,-135.8"/>
<polygon fill="black" stroke="black" points="1368.87,-132.3 1358.87,-135.8 1368.87,-139.3 1368.87,-132.3"/>
</g>
<!-- MenuModule -->
<g id="node19" class="node">
<title>MenuModule</title>
<polygon fill="#8dd3c7" stroke="black" points="2108.21,-84.8 2105.21,-88.8 2084.21,-88.8 2081.21,-84.8 2015.79,-84.8 2015.79,-48.8 2108.21,-48.8 2108.21,-84.8"/>
<text text-anchor="middle" x="2062" y="-62.6" font-family="Times,serif" font-size="14.00">MenuModule</text>
</g>
<!-- MenuModule&#45;&gt;AppModule -->
<g id="edge18" class="edge">
<title>MenuModule&#45;&gt;AppModule</title>
<path fill="none" stroke="black" d="M2062,-85.11C2062,-104.95 2062,-133.8 2062,-133.8 2062,-133.8 1368.92,-133.8 1368.92,-133.8"/>
<polygon fill="black" stroke="black" points="1368.92,-130.3 1358.92,-133.8 1368.92,-137.3 1368.92,-130.3"/>
</g>
<!-- MenubarModule -->
<g id="node20" class="node">
<title>MenubarModule</title>
<polygon fill="#8dd3c7" stroke="black" points="1998.09,-84.8 1995.09,-88.8 1974.09,-88.8 1971.09,-84.8 1887.91,-84.8 1887.91,-48.8 1998.09,-48.8 1998.09,-84.8"/>
<text text-anchor="middle" x="1943" y="-62.6" font-family="Times,serif" font-size="14.00">MenubarModule</text>
</g>
<!-- MenubarModule&#45;&gt;AppModule -->
<g id="edge19" class="edge">
<title>MenubarModule&#45;&gt;AppModule</title>
<path fill="none" stroke="black" d="M1943,-84.91C1943,-104.14 1943,-131.8 1943,-131.8 1943,-131.8 1369.05,-131.8 1369.05,-131.8"/>
<polygon fill="black" stroke="black" points="1369.05,-128.3 1359.05,-131.8 1369.05,-135.3 1369.05,-128.3"/>
</g>
<!-- CdTimerModule -->
<g id="node21" class="node">
<title>CdTimerModule</title>
<polygon fill="#8dd3c7" stroke="black" points="2783.1,-84.8 2780.1,-88.8 2759.1,-88.8 2756.1,-84.8 2672.9,-84.8 2672.9,-48.8 2783.1,-48.8 2783.1,-84.8"/>
<text text-anchor="middle" x="2728" y="-62.6" font-family="Times,serif" font-size="14.00">CdTimerModule</text>
</g>
<!-- CdTimerModule&#45;&gt;AppModule -->
<g id="edge20" class="edge">
<title>CdTimerModule&#45;&gt;AppModule</title>
<path fill="none" stroke="black" d="M2709.65,-84.89C2709.65,-107.93 2709.65,-144.8 2709.65,-144.8 2709.65,-144.8 1368.68,-144.8 1368.68,-144.8"/>
<polygon fill="black" stroke="black" points="1368.68,-141.3 1358.68,-144.8 1368.68,-148.3 1368.68,-141.3"/>
</g>
<!-- CdTimerModule&#45;&gt;SessionModule -->
<g id="edge36" class="edge">
<title>CdTimerModule&#45;&gt;SessionModule</title>
<path fill="none" stroke="black" d="M2746.35,-85.03C2746.35,-110.81 2746.35,-154.8 2746.35,-154.8 2746.35,-154.8 3036.49,-154.8 3036.49,-154.8"/>
<polygon fill="black" stroke="black" points="3036.49,-158.3 3046.49,-154.8 3036.49,-151.3 3036.49,-158.3"/>
</g>
<!-- Convertors -->
<g id="node23" class="node">
<title>Convertors</title>
<ellipse fill="#fdb462" stroke="black" cx="422" cy="-66.8" rx="53.9" ry="18"/>
<text text-anchor="middle" x="422" y="-62.6" font-family="Times,serif" font-size="14.00">Convertors</text>
</g>
<!-- Convertors&#45;&gt;AppModule -->
<g id="edge22" class="edge">
<title>Convertors&#45;&gt;AppModule</title>
<path fill="none" stroke="black" d="M422,-84.81C422,-110.82 422,-155.8 422,-155.8 422,-155.8 1265.33,-155.8 1265.33,-155.8"/>
<polygon fill="black" stroke="black" points="1265.33,-159.3 1275.33,-155.8 1265.33,-152.3 1265.33,-159.3"/>
</g>
<!-- RouterModule.forRoot(args) -->
<g id="node24" class="node">
<title>RouterModule.forRoot(args)</title>
<polygon fill="#8dd3c7" stroke="black" points="327.86,-160.8 324.86,-164.8 303.86,-164.8 300.86,-160.8 150.14,-160.8 150.14,-124.8 327.86,-124.8 327.86,-160.8"/>
<text text-anchor="middle" x="239" y="-138.6" font-family="Times,serif" font-size="14.00">RouterModule.forRoot(args)</text>
</g>
<!-- RouterModule.forRoot(args)&#45;&gt;AppRoutingModule -->
<g id="edge23" class="edge">
<title>RouterModule.forRoot(args)&#45;&gt;AppRoutingModule</title>
<path fill="none" stroke="black" d="M239,-124.69C239,-114.9 239,-104.8 239,-104.8 239,-104.8 1460.46,-104.8 1460.46,-104.8 1460.46,-104.8 1460.46,-94.91 1460.46,-94.91"/>
<polygon fill="black" stroke="black" points="1463.96,-94.91 1460.46,-84.91 1456.96,-94.91 1463.96,-94.91"/>
</g>
<!-- DisplaySessionComponent -->
<g id="node26" class="node">
<title>DisplaySessionComponent</title>
<polygon fill="#ffffb3" stroke="black" points="4093.67,-84.8 3926.33,-84.8 3926.33,-48.8 4093.67,-48.8 4093.67,-84.8"/>
<text text-anchor="middle" x="4010" y="-62.6" font-family="Times,serif" font-size="14.00">DisplaySessionComponent</text>
</g>
<!-- DisplaySessionComponent&#45;&gt;SessionModule -->
<g id="edge25" class="edge">
<title>DisplaySessionComponent&#45;&gt;SessionModule</title>
<path fill="none" stroke="black" d="M4010,-84.83C4010,-105.57 4010,-136.8 4010,-136.8 4010,-136.8 3159.32,-136.8 3159.32,-136.8"/>
<polygon fill="black" stroke="black" points="3159.32,-133.3 3149.32,-136.8 3159.32,-140.3 3159.32,-133.3"/>
</g>
<!-- PreviousSessionsComponent -->
<g id="node27" class="node">
<title>PreviousSessionsComponent</title>
<polygon fill="#ffffb3" stroke="black" points="3908.07,-84.8 3729.93,-84.8 3729.93,-48.8 3908.07,-48.8 3908.07,-84.8"/>
<text text-anchor="middle" x="3819" y="-62.6" font-family="Times,serif" font-size="14.00">PreviousSessionsComponent</text>
</g>
<!-- PreviousSessionsComponent&#45;&gt;SessionModule -->
<g id="edge26" class="edge">
<title>PreviousSessionsComponent&#45;&gt;SessionModule</title>
<path fill="none" stroke="black" d="M3819,-85.11C3819,-104.95 3819,-133.8 3819,-133.8 3819,-133.8 3159.27,-133.8 3159.27,-133.8"/>
<polygon fill="black" stroke="black" points="3159.27,-130.3 3149.27,-133.8 3159.27,-137.3 3159.27,-130.3"/>
</g>
<!-- SessionComponent -->
<g id="node28" class="node">
<title>SessionComponent</title>
<polygon fill="#ffffb3" stroke="black" points="4236.12,-84.8 4111.88,-84.8 4111.88,-48.8 4236.12,-48.8 4236.12,-84.8"/>
<text text-anchor="middle" x="4174" y="-62.6" font-family="Times,serif" font-size="14.00">SessionComponent</text>
</g>
<!-- SessionComponent&#45;&gt;SessionModule -->
<g id="edge27" class="edge">
<title>SessionComponent&#45;&gt;SessionModule</title>
<path fill="none" stroke="black" d="M4174,-84.97C4174,-106.3 4174,-138.8 4174,-138.8 4174,-138.8 3159.17,-138.8 3159.17,-138.8"/>
<polygon fill="black" stroke="black" points="3159.17,-135.3 3149.17,-138.8 3159.17,-142.3 3159.17,-135.3"/>
</g>
<!-- MatInputModule -->
<g id="node29" class="node">
<title>MatInputModule</title>
<polygon fill="#8dd3c7" stroke="black" points="4891.66,-84.8 4888.66,-88.8 4867.66,-88.8 4864.66,-84.8 4780.34,-84.8 4780.34,-48.8 4891.66,-48.8 4891.66,-84.8"/>
<text text-anchor="middle" x="4836" y="-62.6" font-family="Times,serif" font-size="14.00">MatInputModule</text>
</g>
<!-- MatInputModule&#45;&gt;SessionModule -->
<g id="edge30" class="edge">
<title>MatInputModule&#45;&gt;SessionModule</title>
<path fill="none" stroke="black" d="M4836,-84.81C4836,-109.22 4836,-149.8 4836,-149.8 4836,-149.8 3159.54,-149.8 3159.54,-149.8"/>
<polygon fill="black" stroke="black" points="3159.54,-146.3 3149.54,-149.8 3159.54,-153.3 3159.54,-146.3"/>
</g>
<!-- CommonModule -->
<g id="node30" class="node">
<title>CommonModule</title>
<polygon fill="#8dd3c7" stroke="black" points="5287.67,-84.8 5284.67,-88.8 5263.67,-88.8 5260.67,-84.8 5176.33,-84.8 5176.33,-48.8 5287.67,-48.8 5287.67,-84.8"/>
<text text-anchor="middle" x="5232" y="-62.6" font-family="Times,serif" font-size="14.00">CommonModule</text>
</g>
<!-- CommonModule&#45;&gt;SessionModule -->
<g id="edge31" class="edge">
<title>CommonModule&#45;&gt;SessionModule</title>
<path fill="none" stroke="black" d="M5213.39,-85.01C5213.39,-111.31 5213.39,-156.8 5213.39,-156.8 5213.39,-156.8 3159.24,-156.8 3159.24,-156.8"/>
<polygon fill="black" stroke="black" points="3159.24,-153.3 3149.24,-156.8 3159.24,-160.3 3159.24,-153.3"/>
</g>
<!-- SongModule -->
<g id="node41" class="node">
<title>SongModule</title>
<polygon fill="#8dd3c7" stroke="black" points="5417.34,-160.8 5414.34,-164.8 5393.34,-164.8 5390.34,-160.8 5328.66,-160.8 5328.66,-124.8 5417.34,-124.8 5417.34,-160.8"/>
<text text-anchor="middle" x="5373" y="-138.6" font-family="Times,serif" font-size="14.00">SongModule</text>
</g>
<!-- CommonModule&#45;&gt;SongModule -->
<g id="edge45" class="edge">
<title>CommonModule&#45;&gt;SongModule</title>
<path fill="none" stroke="black" d="M5250.61,-84.98C5250.61,-111.79 5250.61,-158.8 5250.61,-158.8 5250.61,-158.8 5318.81,-158.8 5318.81,-158.8"/>
<polygon fill="black" stroke="black" points="5318.81,-162.3 5328.81,-158.8 5318.81,-155.3 5318.81,-162.3"/>
</g>
<!-- MatTableModule -->
<g id="node31" class="node">
<title>MatTableModule</title>
<polygon fill="#8dd3c7" stroke="black" points="4651.97,-84.8 4648.97,-88.8 4627.97,-88.8 4624.97,-84.8 4538.03,-84.8 4538.03,-48.8 4651.97,-48.8 4651.97,-84.8"/>
<text text-anchor="middle" x="4595" y="-62.6" font-family="Times,serif" font-size="14.00">MatTableModule</text>
</g>
<!-- MatTableModule&#45;&gt;SessionModule -->
<g id="edge33" class="edge">
<title>MatTableModule&#45;&gt;SessionModule</title>
<path fill="none" stroke="black" d="M4595,-85.12C4595,-108.46 4595,-145.8 4595,-145.8 4595,-145.8 3159.53,-145.8 3159.53,-145.8"/>
<polygon fill="black" stroke="black" points="3159.53,-142.3 3149.53,-145.8 3159.53,-149.3 3159.53,-142.3"/>
</g>
<!-- MatPaginatorModule -->
<g id="node32" class="node">
<title>MatPaginatorModule</title>
<polygon fill="#8dd3c7" stroke="black" points="4519.76,-84.8 4516.76,-88.8 4495.76,-88.8 4492.76,-84.8 4384.24,-84.8 4384.24,-48.8 4519.76,-48.8 4519.76,-84.8"/>
<text text-anchor="middle" x="4452" y="-62.6" font-family="Times,serif" font-size="14.00">MatPaginatorModule</text>
</g>
<!-- MatPaginatorModule&#45;&gt;SessionModule -->
<g id="edge34" class="edge">
<title>MatPaginatorModule&#45;&gt;SessionModule</title>
<path fill="none" stroke="black" d="M4452,-84.81C4452,-107.29 4452,-142.8 4452,-142.8 4452,-142.8 3159.43,-142.8 3159.43,-142.8"/>
<polygon fill="black" stroke="black" points="3159.43,-139.3 3149.43,-142.8 3159.42,-146.3 3159.43,-139.3"/>
</g>
<!-- MatSortModule -->
<g id="node33" class="node">
<title>MatSortModule</title>
<polygon fill="#8dd3c7" stroke="black" points="4365.94,-84.8 4362.94,-88.8 4341.94,-88.8 4338.94,-84.8 4260.06,-84.8 4260.06,-48.8 4365.94,-48.8 4365.94,-84.8"/>
<text text-anchor="middle" x="4313" y="-62.6" font-family="Times,serif" font-size="14.00">MatSortModule</text>
</g>
<!-- MatSortModule&#45;&gt;SessionModule -->
<g id="edge35" class="edge">
<title>MatSortModule&#45;&gt;SessionModule</title>
<path fill="none" stroke="black" d="M4313,-85.09C4313,-107.01 4313,-140.8 4313,-140.8 4313,-140.8 3159.43,-140.8 3159.43,-140.8"/>
<polygon fill="black" stroke="black" points="3159.43,-137.3 3149.43,-140.8 3159.43,-144.3 3159.43,-137.3"/>
</g>
<!-- ChipsModule -->
<g id="node34" class="node">
<title>ChipsModule</title>
<polygon fill="#8dd3c7" stroke="black" points="5158.23,-84.8 5155.23,-88.8 5134.23,-88.8 5131.23,-84.8 5065.77,-84.8 5065.77,-48.8 5158.23,-48.8 5158.23,-84.8"/>
<text text-anchor="middle" x="5112" y="-62.6" font-family="Times,serif" font-size="14.00">ChipsModule</text>
</g>
<!-- ChipsModule&#45;&gt;SessionModule -->
<g id="edge37" class="edge">
<title>ChipsModule&#45;&gt;SessionModule</title>
<path fill="none" stroke="black" d="M5112,-85.03C5112,-110.81 5112,-154.8 5112,-154.8 5112,-154.8 3159.3,-154.8 3159.3,-154.8"/>
<polygon fill="black" stroke="black" points="3159.3,-151.3 3149.3,-154.8 3159.3,-158.3 3159.3,-151.3"/>
</g>
<!-- InputTextareaModule -->
<g id="node35" class="node">
<title>InputTextareaModule</title>
<polygon fill="#8dd3c7" stroke="black" points="5048.06,-84.8 5045.06,-88.8 5024.06,-88.8 5021.06,-84.8 4909.94,-84.8 4909.94,-48.8 5048.06,-48.8 5048.06,-84.8"/>
<text text-anchor="middle" x="4979" y="-62.6" font-family="Times,serif" font-size="14.00">InputTextareaModule</text>
</g>
<!-- InputTextareaModule&#45;&gt;SessionModule -->
<g id="edge38" class="edge">
<title>InputTextareaModule&#45;&gt;SessionModule</title>
<path fill="none" stroke="black" d="M4979,-84.83C4979,-109.78 4979,-151.8 4979,-151.8 4979,-151.8 3159.29,-151.8 3159.29,-151.8"/>
<polygon fill="black" stroke="black" points="3159.29,-148.3 3149.29,-151.8 3159.29,-155.3 3159.29,-148.3"/>
</g>
<!-- TableModule -->
<g id="node36" class="node">
<title>TableModule</title>
<polygon fill="#8dd3c7" stroke="black" points="4761.92,-84.8 4758.92,-88.8 4737.92,-88.8 4734.92,-84.8 4670.08,-84.8 4670.08,-48.8 4761.92,-48.8 4761.92,-84.8"/>
<text text-anchor="middle" x="4716" y="-62.6" font-family="Times,serif" font-size="14.00">TableModule</text>
</g>
<!-- TableModule&#45;&gt;SessionModule -->
<g id="edge39" class="edge">
<title>TableModule&#45;&gt;SessionModule</title>
<path fill="none" stroke="black" d="M4716,-85.18C4716,-109.08 4716,-147.8 4716,-147.8 4716,-147.8 3159.55,-147.8 3159.55,-147.8"/>
<polygon fill="black" stroke="black" points="3159.55,-144.3 3149.55,-147.8 3159.55,-151.3 3159.55,-144.3"/>
</g>
<!-- SongComponent -->
<g id="node40" class="node">
<title>SongComponent</title>
<polygon fill="#ffffb3" stroke="black" points="5438.12,-84.8 5327.88,-84.8 5327.88,-48.8 5438.12,-48.8 5438.12,-84.8"/>
<text text-anchor="middle" x="5383" y="-62.6" font-family="Times,serif" font-size="14.00">SongComponent</text>
</g>
<!-- SongComponent&#45;&gt;SongModule -->
<g id="edge44" class="edge">
<title>SongComponent&#45;&gt;SongModule</title>
<path fill="none" stroke="black" d="M5373,-84.81C5373,-84.81 5373,-114.65 5373,-114.65"/>
<polygon fill="black" stroke="black" points="5369.5,-114.65 5373,-124.65 5376.5,-114.65 5369.5,-114.65"/>
</g>
</g>
</svg>
