<?xml version="1.0" encoding="UTF-8" standalone="no"?>
<!DOCTYPE svg PUBLIC "-//W3C//DTD SVG 1.1//EN"
 "http://www.w3.org/Graphics/SVG/1.1/DTD/svg11.dtd">
<!-- Generated by graphviz version 5.0.0 (20220707.1540)
 -->
<!-- Title: dependencies Pages: 1 -->
<svg width="6827pt" height="261pt"
 viewBox="0.00 0.00 6827.00 260.80" xmlns="http://www.w3.org/2000/svg" xmlns:xlink="http://www.w3.org/1999/xlink">
<g id="graph0" class="graph" transform="scale(1 1) rotate(0) translate(4 256.8)">
<title>dependencies</title>
<polygon fill="white" stroke="transparent" points="-4,4 -4,-256.8 6823,-256.8 6823,4 -4,4"/>
<text text-anchor="middle" x="3409.5" y="-8.2" font-family="sans-serif" font-size="14.00">dependencies</text>
<g id="clust1" class="cluster">
<title>cluster_AppModule</title>
<polygon fill="none" stroke="black" stroke-dasharray="1,5" points="352,-32.8 352,-244.8 4522,-244.8 4522,-32.8 352,-32.8"/>
</g>
<g id="clust2" class="cluster">
<title>cluster_AppModule_declarations</title>
<polygon fill="none" stroke="black" points="492,-40.8 492,-92.8 2602,-92.8 2602,-40.8 492,-40.8"/>
</g>
<g id="clust16" class="cluster">
<title>cluster_AppModule_imports</title>
<polygon fill="none" stroke="black" points="2610,-40.8 2610,-168.8 4514,-168.8 4514,-40.8 2610,-40.8"/>
</g>
<g id="clust17" class="cluster">
<title>cluster_AppModule_exports</title>
<polygon fill="none" stroke="black" points="2329,-184.8 2329,-236.8 2591,-236.8 2591,-184.8 2329,-184.8"/>
</g>
<g id="clust18" class="cluster">
<title>cluster_AppModule_bootstrap</title>
<polygon fill="none" stroke="black" points="2599,-184.8 2599,-236.8 2723,-236.8 2723,-184.8 2599,-184.8"/>
</g>
<g id="clust19" class="cluster">
<title>cluster_AppModule_providers</title>
<polygon fill="none" stroke="black" points="360,-40.8 360,-92.8 484,-92.8 484,-40.8 360,-40.8"/>
</g>
<g id="clust20" class="cluster">
<title>cluster_AppRoutingModule</title>
<polygon fill="none" stroke="black" stroke-dasharray="1,5" points="8,-108.8 8,-176.8 344,-176.8 344,-108.8 8,-108.8"/>
</g>
<g id="clust22" class="cluster">
<title>cluster_AppRoutingModule_imports</title>
<polygon fill="none" stroke="black" points="142,-116.8 142,-168.8 336,-168.8 336,-116.8 142,-116.8"/>
</g>
<g id="clust23" class="cluster">
<title>cluster_AppRoutingModule_exports</title>
<polygon fill="none" stroke="black" points="16,-116.8 16,-168.8 134,-168.8 134,-116.8 16,-116.8"/>
</g>
<g id="clust26" class="cluster">
<title>cluster_SessionModule</title>
<polygon fill="none" stroke="black" stroke-dasharray="1,5" points="4530,-32.8 4530,-100.8 6661,-100.8 6661,-32.8 4530,-32.8"/>
</g>
<g id="clust27" class="cluster">
<title>cluster_SessionModule_declarations</title>
<polygon fill="none" stroke="black" points="5079,-40.8 5079,-92.8 5601,-92.8 5601,-40.8 5079,-40.8"/>
</g>
<g id="clust31" class="cluster">
<title>cluster_SessionModule_imports</title>
<polygon fill="none" stroke="black" points="5609,-40.8 5609,-92.8 6653,-92.8 6653,-40.8 5609,-40.8"/>
</g>
<g id="clust32" class="cluster">
<title>cluster_SessionModule_exports</title>
<polygon fill="none" stroke="black" points="4538,-40.8 4538,-92.8 5071,-92.8 5071,-40.8 4538,-40.8"/>
</g>
<g id="clust35" class="cluster">
<title>cluster_SongModule</title>
<polygon fill="none" stroke="black" stroke-dasharray="1,5" points="6669,-32.8 6669,-168.8 6811,-168.8 6811,-32.8 6669,-32.8"/>
</g>
<g id="clust36" class="cluster">
<title>cluster_SongModule_declarations</title>
<polygon fill="none" stroke="black" points="6677,-40.8 6677,-92.8 6803,-92.8 6803,-40.8 6677,-40.8"/>
</g>
<!-- AppComponent -->
<g id="node1" class="node">
<title>AppComponent</title>
<polygon fill="#ffffb3" stroke="black" points="1215.94,-84.8 1110.06,-84.8 1110.06,-48.8 1215.94,-48.8 1215.94,-84.8"/>
<text text-anchor="middle" x="1163" y="-62.6" font-family="Times,serif" font-size="14.00">AppComponent</text>
</g>
<!-- AppModule -->
<g id="node14" class="node">
<title>AppModule</title>
<polygon fill="#8dd3c7" stroke="black" points="2601.66,-160.8 2598.66,-164.8 2577.66,-164.8 2574.66,-160.8 2518.34,-160.8 2518.34,-124.8 2601.66,-124.8 2601.66,-160.8"/>
<text text-anchor="middle" x="2560" y="-138.6" font-family="Times,serif" font-size="14.00">AppModule</text>
</g>
<!-- AppComponent&#45;&gt;AppModule -->
<g id="edge1" class="edge">
<title>AppComponent&#45;&gt;AppModule</title>
<path fill="none" stroke="black" d="M1163,-85.12C1163,-108.46 1163,-145.8 1163,-145.8 1163,-145.8 2508.19,-145.8 2508.19,-145.8"/>
<polygon fill="black" stroke="black" points="2508.19,-149.3 2518.19,-145.8 2508.19,-142.3 2508.19,-149.3"/>
</g>
<!-- LandingPageComponent -->
<g id="node2" class="node">
<title>LandingPageComponent</title>
<polygon fill="#ffffb3" stroke="black" points="1092.7,-84.8 937.3,-84.8 937.3,-48.8 1092.7,-48.8 1092.7,-84.8"/>
<text text-anchor="middle" x="1015" y="-62.6" font-family="Times,serif" font-size="14.00">LandingPageComponent</text>
</g>
<!-- LandingPageComponent&#45;&gt;AppModule -->
<g id="edge2" class="edge">
<title>LandingPageComponent&#45;&gt;AppModule</title>
<path fill="none" stroke="black" d="M1015,-85C1015,-109.16 1015,-148.8 1015,-148.8 1015,-148.8 2508.28,-148.8 2508.28,-148.8"/>
<polygon fill="black" stroke="black" points="2508.28,-152.3 2518.28,-148.8 2508.28,-145.3 2508.28,-152.3"/>
</g>
<!-- HeaderComponent -->
<g id="node3" class="node">
<title>HeaderComponent</title>
<polygon fill="#ffffb3" stroke="black" points="919.75,-84.8 798.25,-84.8 798.25,-48.8 919.75,-48.8 919.75,-84.8"/>
<text text-anchor="middle" x="859" y="-62.6" font-family="Times,serif" font-size="14.00">HeaderComponent</text>
</g>
<!-- HeaderComponent&#45;&gt;AppModule -->
<g id="edge3" class="edge">
<title>HeaderComponent&#45;&gt;AppModule</title>
<path fill="none" stroke="black" d="M859,-85.03C859,-109.73 859,-150.8 859,-150.8 859,-150.8 2507.95,-150.8 2507.95,-150.8"/>
<polygon fill="black" stroke="black" points="2507.95,-154.3 2517.95,-150.8 2507.95,-147.3 2507.95,-154.3"/>
</g>
<!-- FooterComponent -->
<g id="node4" class="node">
<title>FooterComponent</title>
<polygon fill="#ffffb3" stroke="black" points="779.88,-84.8 662.12,-84.8 662.12,-48.8 779.88,-48.8 779.88,-84.8"/>
<text text-anchor="middle" x="721" y="-62.6" font-family="Times,serif" font-size="14.00">FooterComponent</text>
</g>
<!-- FooterComponent&#45;&gt;AppModule -->
<g id="edge4" class="edge">
<title>FooterComponent&#45;&gt;AppModule</title>
<path fill="none" stroke="black" d="M721,-84.83C721,-110.31 721,-153.8 721,-153.8 721,-153.8 2508.13,-153.8 2508.13,-153.8"/>
<polygon fill="black" stroke="black" points="2508.13,-157.3 2518.13,-153.8 2508.13,-150.3 2508.13,-157.3"/>
</g>
<!-- NavigationComponent -->
<g id="node5" class="node">
<title>NavigationComponent</title>
<polygon fill="#ffffb3" stroke="black" points="643.54,-84.8 500.46,-84.8 500.46,-48.8 643.54,-48.8 643.54,-84.8"/>
<text text-anchor="middle" x="572" y="-62.6" font-family="Times,serif" font-size="14.00">NavigationComponent</text>
</g>
<!-- NavigationComponent&#45;&gt;AppModule -->
<g id="edge5" class="edge">
<title>NavigationComponent&#45;&gt;AppModule</title>
<path fill="none" stroke="black" d="M572,-84.81C572,-110.82 572,-155.8 572,-155.8 572,-155.8 2508.02,-155.8 2508.02,-155.8"/>
<polygon fill="black" stroke="black" points="2508.02,-159.3 2518.02,-155.8 2508.02,-152.3 2508.02,-159.3"/>
</g>
<!-- ChordComponent -->
<g id="node6" class="node">
<title>ChordComponent</title>
<polygon fill="#ffffb3" stroke="black" points="2594.33,-84.8 2477.67,-84.8 2477.67,-48.8 2594.33,-48.8 2594.33,-84.8"/>
<text text-anchor="middle" x="2536" y="-62.6" font-family="Times,serif" font-size="14.00">ChordComponent</text>
</g>
<!-- ChordComponent&#45;&gt;AppModule -->
<g id="edge6" class="edge">
<title>ChordComponent&#45;&gt;AppModule</title>
<path fill="none" stroke="black" d="M2556.17,-84.81C2556.17,-84.81 2556.17,-114.65 2556.17,-114.65"/>
<polygon fill="black" stroke="black" points="2552.67,-114.65 2556.17,-124.65 2559.67,-114.65 2552.67,-114.65"/>
</g>
<!-- SessionResourceComponentComponent -->
<g id="node7" class="node">
<title>SessionResourceComponentComponent</title>
<polygon fill="#ffffb3" stroke="black" points="2459.54,-84.8 2218.46,-84.8 2218.46,-48.8 2459.54,-48.8 2459.54,-84.8"/>
<text text-anchor="middle" x="2339" y="-62.6" font-family="Times,serif" font-size="14.00">SessionResourceComponentComponent</text>
</g>
<!-- SessionResourceComponentComponent&#45;&gt;AppModule -->
<g id="edge7" class="edge">
<title>SessionResourceComponentComponent&#45;&gt;AppModule</title>
<path fill="none" stroke="black" d="M2398.62,-85.1C2398.62,-103.07 2398.62,-127.8 2398.62,-127.8 2398.62,-127.8 2508.02,-127.8 2508.02,-127.8"/>
<polygon fill="black" stroke="black" points="2508.02,-131.3 2518.02,-127.8 2508.02,-124.3 2508.02,-131.3"/>
</g>
<!-- ExercisesComponent -->
<g id="node8" class="node">
<title>ExercisesComponent</title>
<polygon fill="#ffffb3" stroke="black" points="2200.47,-84.8 2065.53,-84.8 2065.53,-48.8 2200.47,-48.8 2200.47,-84.8"/>
<text text-anchor="middle" x="2133" y="-62.6" font-family="Times,serif" font-size="14.00">ExercisesComponent</text>
</g>
<!-- ExercisesComponent&#45;&gt;AppModule -->
<g id="edge8" class="edge">
<title>ExercisesComponent&#45;&gt;AppModule</title>
<path fill="none" stroke="black" d="M2133,-84.97C2133,-103.89 2133,-130.8 2133,-130.8 2133,-130.8 2508.28,-130.8 2508.28,-130.8"/>
<polygon fill="black" stroke="black" points="2508.28,-134.3 2518.28,-130.8 2508.28,-127.3 2508.28,-134.3"/>
</g>
<!-- AuthComponent -->
<g id="node9" class="node">
<title>AuthComponent</title>
<polygon fill="#ffffb3" stroke="black" points="2047.83,-84.8 1938.17,-84.8 1938.17,-48.8 2047.83,-48.8 2047.83,-84.8"/>
<text text-anchor="middle" x="1993" y="-62.6" font-family="Times,serif" font-size="14.00">AuthComponent</text>
</g>
<!-- AuthComponent&#45;&gt;AppModule -->
<g id="edge9" class="edge">
<title>AuthComponent&#45;&gt;AppModule</title>
<path fill="none" stroke="black" d="M1993,-84.83C1993,-104.38 1993,-132.8 1993,-132.8 1993,-132.8 2508.31,-132.8 2508.31,-132.8"/>
<polygon fill="black" stroke="black" points="2508.31,-136.3 2518.31,-132.8 2508.31,-129.3 2508.31,-136.3"/>
</g>
<!-- MetronomeComponent -->
<g id="node10" class="node">
<title>MetronomeComponent</title>
<polygon fill="#ffffb3" stroke="black" points="1920.15,-84.8 1773.85,-84.8 1773.85,-48.8 1920.15,-48.8 1920.15,-84.8"/>
<text text-anchor="middle" x="1847" y="-62.6" font-family="Times,serif" font-size="14.00">MetronomeComponent</text>
</g>
<!-- MetronomeComponent&#45;&gt;AppModule -->
<g id="edge10" class="edge">
<title>MetronomeComponent&#45;&gt;AppModule</title>
<path fill="none" stroke="black" d="M1847,-84.93C1847,-105.37 1847,-135.8 1847,-135.8 1847,-135.8 2508.32,-135.8 2508.32,-135.8"/>
<polygon fill="black" stroke="black" points="2508.32,-139.3 2518.32,-135.8 2508.32,-132.3 2508.32,-139.3"/>
</g>
<!-- SessionResourcePickerComponent -->
<g id="node11" class="node">
<title>SessionResourcePickerComponent</title>
<polygon fill="#ffffb3" stroke="black" points="1755.97,-84.8 1544.03,-84.8 1544.03,-48.8 1755.97,-48.8 1755.97,-84.8"/>
<text text-anchor="middle" x="1650" y="-62.6" font-family="Times,serif" font-size="14.00">SessionResourcePickerComponent</text>
</g>
<!-- SessionResourcePickerComponent&#45;&gt;AppModule -->
<g id="edge11" class="edge">
<title>SessionResourcePickerComponent&#45;&gt;AppModule</title>
<path fill="none" stroke="black" d="M1650,-85.08C1650,-106.12 1650,-137.8 1650,-137.8 1650,-137.8 2508.23,-137.8 2508.23,-137.8"/>
<polygon fill="black" stroke="black" points="2508.23,-141.3 2518.23,-137.8 2508.23,-134.3 2508.23,-141.3"/>
</g>
<!-- SongLibraryComponent -->
<g id="node12" class="node">
<title>SongLibraryComponent</title>
<polygon fill="#ffffb3" stroke="black" points="1526.1,-84.8 1373.9,-84.8 1373.9,-48.8 1526.1,-48.8 1526.1,-84.8"/>
<text text-anchor="middle" x="1450" y="-62.6" font-family="Times,serif" font-size="14.00">SongLibraryComponent</text>
</g>
<!-- SongLibraryComponent&#45;&gt;AppModule -->
<g id="edge12" class="edge">
<title>SongLibraryComponent&#45;&gt;AppModule</title>
<path fill="none" stroke="black" d="M1450,-85.09C1450,-107.01 1450,-140.8 1450,-140.8 1450,-140.8 2508.18,-140.8 2508.18,-140.8"/>
<polygon fill="black" stroke="black" points="2508.18,-144.3 2518.18,-140.8 2508.18,-137.3 2508.18,-144.3"/>
</g>
<!-- UploadComponent -->
<g id="node13" class="node">
<title>UploadComponent</title>
<polygon fill="#ffffb3" stroke="black" points="1356.05,-84.8 1233.95,-84.8 1233.95,-48.8 1356.05,-48.8 1356.05,-84.8"/>
<text text-anchor="middle" x="1295" y="-62.6" font-family="Times,serif" font-size="14.00">UploadComponent</text>
</g>
<!-- UploadComponent&#45;&gt;AppModule -->
<g id="edge13" class="edge">
<title>UploadComponent&#45;&gt;AppModule</title>
<path fill="none" stroke="black" d="M1295,-84.81C1295,-107.29 1295,-142.8 1295,-142.8 1295,-142.8 2508.27,-142.8 2508.27,-142.8"/>
<polygon fill="black" stroke="black" points="2508.27,-146.3 2518.27,-142.8 2508.27,-139.3 2508.27,-146.3"/>
</g>
<!-- SessionModule -->
<g id="node17" class="node">
<title>SessionModule</title>
<polygon fill="#8dd3c7" stroke="black" points="4506.34,-160.8 4503.34,-164.8 4482.34,-164.8 4479.34,-160.8 4403.66,-160.8 4403.66,-124.8 4506.34,-124.8 4506.34,-160.8"/>
<text text-anchor="middle" x="4455" y="-138.6" font-family="Times,serif" font-size="14.00">SessionModule</text>
</g>
<!-- AppModule&#45;&gt;SessionModule -->
<g id="edge50" class="edge">
<title>AppModule&#45;&gt;SessionModule</title>
<path fill="none" stroke="black" d="M2601.79,-157.8C2601.79,-157.8 4393.59,-157.8 4393.59,-157.8"/>
<polygon fill="black" stroke="black" points="4393.59,-161.3 4403.59,-157.8 4393.59,-154.3 4393.59,-161.3"/>
</g>
<!-- SessionResourceComponentComponent  -->
<g id="node30" class="node">
<title>SessionResourceComponentComponent </title>
<polygon fill="#fb8072" stroke="black" points="2582.54,-228.8 2337.46,-228.8 2337.46,-192.8 2582.54,-192.8 2582.54,-228.8"/>
<text text-anchor="middle" x="2460" y="-206.6" font-family="Times,serif" font-size="14.00">SessionResourceComponentComponent </text>
</g>
<!-- AppModule&#45;&gt;SessionResourceComponentComponent  -->
<g id="edge29" class="edge">
<title>AppModule&#45;&gt;SessionResourceComponentComponent </title>
<path fill="none" stroke="black" stroke-dasharray="5,2" d="M2550.34,-161.02C2550.34,-161.02 2550.34,-182.53 2550.34,-182.53"/>
<polygon fill="black" stroke="black" points="2546.84,-182.53 2550.34,-192.53 2553.84,-182.53 2546.84,-182.53"/>
</g>
<!-- AppComponent  -->
<g id="node31" class="node">
<title>AppComponent </title>
<polygon fill="#80b1d3" stroke="black" points="2715.44,-228.8 2606.56,-228.8 2606.56,-192.8 2715.44,-192.8 2715.44,-228.8"/>
<text text-anchor="middle" x="2661" y="-206.6" font-family="Times,serif" font-size="14.00">AppComponent </text>
</g>
<!-- AppModule&#45;&gt;AppComponent  -->
<g id="edge30" class="edge">
<title>AppModule&#45;&gt;AppComponent </title>
<path fill="none" stroke="black" stroke-dasharray="1,5" d="M2601.78,-159.8C2607.84,-159.8 2612.07,-159.8 2612.07,-159.8 2612.07,-159.8 2612.07,-182.68 2612.07,-182.68"/>
<polygon fill="black" stroke="black" points="2608.57,-182.68 2612.07,-192.68 2615.57,-182.68 2608.57,-182.68"/>
</g>
<!-- BrowserModule -->
<g id="node15" class="node">
<title>BrowserModule</title>
<polygon fill="#8dd3c7" stroke="black" points="3606.49,-84.8 3603.49,-88.8 3582.49,-88.8 3579.49,-84.8 3499.51,-84.8 3499.51,-48.8 3606.49,-48.8 3606.49,-84.8"/>
<text text-anchor="middle" x="3553" y="-62.6" font-family="Times,serif" font-size="14.00">BrowserModule</text>
</g>
<!-- BrowserModule&#45;&gt;AppModule -->
<g id="edge14" class="edge">
<title>BrowserModule&#45;&gt;AppModule</title>
<path fill="none" stroke="black" d="M3553,-84.93C3553,-105.37 3553,-135.8 3553,-135.8 3553,-135.8 2611.72,-135.8 2611.72,-135.8"/>
<polygon fill="black" stroke="black" points="2611.72,-132.3 2601.72,-135.8 2611.72,-139.3 2611.72,-132.3"/>
</g>
<!-- AppRoutingModule -->
<g id="node16" class="node">
<title>AppRoutingModule</title>
<polygon fill="#8dd3c7" stroke="black" points="2746.28,-84.8 2743.28,-88.8 2722.28,-88.8 2719.28,-84.8 2617.72,-84.8 2617.72,-48.8 2746.28,-48.8 2746.28,-84.8"/>
<text text-anchor="middle" x="2682" y="-62.6" font-family="Times,serif" font-size="14.00">AppRoutingModule</text>
</g>
<!-- AppRoutingModule&#45;&gt;AppModule -->
<g id="edge15" class="edge">
<title>AppRoutingModule&#45;&gt;AppModule</title>
<path fill="none" stroke="black" d="M2617.36,-66.8C2605.47,-66.8 2596.72,-66.8 2596.72,-66.8 2596.72,-66.8 2596.72,-114.79 2596.72,-114.79"/>
<polygon fill="black" stroke="black" points="2593.22,-114.79 2596.72,-124.79 2600.22,-114.79 2593.22,-114.79"/>
</g>
<!-- RouterModule  -->
<g id="node34" class="node">
<title>RouterModule </title>
<polygon fill="#fb8072" stroke="black" points="125.66,-160.8 24.34,-160.8 24.34,-124.8 125.66,-124.8 125.66,-160.8"/>
<text text-anchor="middle" x="75" y="-138.6" font-family="Times,serif" font-size="14.00">RouterModule </text>
</g>
<!-- AppRoutingModule&#45;&gt;RouterModule  -->
<g id="edge33" class="edge">
<title>AppRoutingModule&#45;&gt;RouterModule </title>
<path fill="none" stroke="black" stroke-dasharray="5,2" d="M2650.23,-85.01C2650.23,-90.35 2650.23,-94.8 2650.23,-94.8 2650.23,-94.8 75,-94.8 75,-94.8 75,-94.8 75,-114.65 75,-114.65"/>
<polygon fill="black" stroke="black" points="71.5,-114.65 75,-124.65 78.5,-114.65 71.5,-114.65"/>
</g>
<!-- SessionModule&#45;&gt;AppModule -->
<g id="edge16" class="edge">
<title>SessionModule&#45;&gt;AppModule</title>
<path fill="none" stroke="black" d="M4403.82,-155.8C4403.82,-155.8 2611.91,-155.8 2611.91,-155.8"/>
<polygon fill="black" stroke="black" points="2611.91,-152.3 2601.91,-155.8 2611.91,-159.3 2611.91,-152.3"/>
</g>
<!-- DisplaySessionComponent  -->
<g id="node46" class="node">
<title>DisplaySessionComponent </title>
<polygon fill="#fb8072" stroke="black" points="4717.67,-84.8 4546.33,-84.8 4546.33,-48.8 4717.67,-48.8 4717.67,-84.8"/>
<text text-anchor="middle" x="4632" y="-62.6" font-family="Times,serif" font-size="14.00">DisplaySessionComponent </text>
</g>
<!-- SessionModule&#45;&gt;DisplaySessionComponent  -->
<g id="edge51" class="edge">
<title>SessionModule&#45;&gt;DisplaySessionComponent </title>
<path fill="none" stroke="black" stroke-dasharray="5,2" d="M4506.2,-129.8C4558.47,-129.8 4632,-129.8 4632,-129.8 4632,-129.8 4632,-95.02 4632,-95.02"/>
<polygon fill="black" stroke="black" points="4635.5,-95.02 4632,-85.02 4628.5,-95.02 4635.5,-95.02"/>
</g>
<!-- PreviousSessionsComponent  -->
<g id="node47" class="node">
<title>PreviousSessionsComponent </title>
<polygon fill="#fb8072" stroke="black" points="5063.07,-84.8 4880.93,-84.8 4880.93,-48.8 5063.07,-48.8 5063.07,-84.8"/>
<text text-anchor="middle" x="4972" y="-62.6" font-family="Times,serif" font-size="14.00">PreviousSessionsComponent </text>
</g>
<!-- SessionModule&#45;&gt;PreviousSessionsComponent  -->
<g id="edge52" class="edge">
<title>SessionModule&#45;&gt;PreviousSessionsComponent </title>
<path fill="none" stroke="black" stroke-dasharray="5,2" d="M4506.46,-133.8C4637.23,-133.8 4972,-133.8 4972,-133.8 4972,-133.8 4972,-95.11 4972,-95.11"/>
<polygon fill="black" stroke="black" points="4975.5,-95.11 4972,-85.11 4968.5,-95.11 4975.5,-95.11"/>
</g>
<!-- SessionComponent  -->
<g id="node48" class="node">
<title>SessionComponent </title>
<polygon fill="#fb8072" stroke="black" points="4862.62,-84.8 4735.38,-84.8 4735.38,-48.8 4862.62,-48.8 4862.62,-84.8"/>
<text text-anchor="middle" x="4799" y="-62.6" font-family="Times,serif" font-size="14.00">SessionComponent </text>
</g>
<!-- SessionModule&#45;&gt;SessionComponent  -->
<g id="edge53" class="edge">
<title>SessionModule&#45;&gt;SessionComponent </title>
<path fill="none" stroke="black" stroke-dasharray="5,2" d="M4506.5,-131.8C4602.46,-131.8 4799,-131.8 4799,-131.8 4799,-131.8 4799,-94.91 4799,-94.91"/>
<polygon fill="black" stroke="black" points="4802.5,-94.91 4799,-84.91 4795.5,-94.91 4802.5,-94.91"/>
</g>
<!-- ReactiveFormsModule -->
<g id="node18" class="node">
<title>ReactiveFormsModule</title>
<polygon fill="#8dd3c7" stroke="black" points="4126.31,-84.8 4123.31,-88.8 4102.31,-88.8 4099.31,-84.8 3981.69,-84.8 3981.69,-48.8 4126.31,-48.8 4126.31,-84.8"/>
<text text-anchor="middle" x="4054" y="-62.6" font-family="Times,serif" font-size="14.00">ReactiveFormsModule</text>
</g>
<!-- ReactiveFormsModule&#45;&gt;AppModule -->
<g id="edge17" class="edge">
<title>ReactiveFormsModule&#45;&gt;AppModule</title>
<path fill="none" stroke="black" d="M4029.95,-84.81C4029.95,-107.29 4029.95,-142.8 4029.95,-142.8 4029.95,-142.8 2612.02,-142.8 2612.02,-142.8"/>
<polygon fill="black" stroke="black" points="2612.02,-139.3 2602.02,-142.8 2612.02,-146.3 2612.02,-139.3"/>
</g>
<!-- ReactiveFormsModule&#45;&gt;SessionModule -->
<g id="edge37" class="edge">
<title>ReactiveFormsModule&#45;&gt;SessionModule</title>
<path fill="none" stroke="black" d="M4078.05,-84.83C4078.05,-109.78 4078.05,-151.8 4078.05,-151.8 4078.05,-151.8 4393.77,-151.8 4393.77,-151.8"/>
<polygon fill="black" stroke="black" points="4393.77,-155.3 4403.77,-151.8 4393.77,-148.3 4393.77,-155.3"/>
</g>
<!-- FormsModule -->
<g id="node19" class="node">
<title>FormsModule</title>
<polygon fill="#8dd3c7" stroke="black" points="3963.84,-84.8 3960.84,-88.8 3939.84,-88.8 3936.84,-84.8 3868.16,-84.8 3868.16,-48.8 3963.84,-48.8 3963.84,-84.8"/>
<text text-anchor="middle" x="3916" y="-62.6" font-family="Times,serif" font-size="14.00">FormsModule</text>
</g>
<!-- FormsModule&#45;&gt;AppModule -->
<g id="edge18" class="edge">
<title>FormsModule&#45;&gt;AppModule</title>
<path fill="none" stroke="black" d="M3900.11,-84.96C3900.11,-107.15 3900.11,-141.8 3900.11,-141.8 3900.11,-141.8 2611.95,-141.8 2611.95,-141.8"/>
<polygon fill="black" stroke="black" points="2611.95,-138.3 2601.95,-141.8 2611.95,-145.3 2611.95,-138.3"/>
</g>
<!-- FormsModule&#45;&gt;SessionModule -->
<g id="edge38" class="edge">
<title>FormsModule&#45;&gt;SessionModule</title>
<path fill="none" stroke="black" d="M3931.89,-84.83C3931.89,-110.31 3931.89,-153.8 3931.89,-153.8 3931.89,-153.8 4393.41,-153.8 4393.41,-153.8"/>
<polygon fill="black" stroke="black" points="4393.41,-157.3 4403.41,-153.8 4393.41,-150.3 4393.41,-157.3"/>
</g>
<!-- ServiceWorkerModule.register(args) -->
<g id="node20" class="node">
<title>ServiceWorkerModule.register(args)</title>
<polygon fill="#8dd3c7" stroke="black" points="3481.41,-84.8 3478.41,-88.8 3457.41,-88.8 3454.41,-84.8 3258.59,-84.8 3258.59,-48.8 3481.41,-48.8 3481.41,-84.8"/>
<text text-anchor="middle" x="3370" y="-62.6" font-family="Times,serif" font-size="14.00">ServiceWorkerModule.register(args)</text>
</g>
<!-- ServiceWorkerModule.register(args)&#45;&gt;AppModule -->
<g id="edge19" class="edge">
<title>ServiceWorkerModule.register(args)&#45;&gt;AppModule</title>
<path fill="none" stroke="black" d="M3370,-85.11C3370,-104.95 3370,-133.8 3370,-133.8 3370,-133.8 2611.84,-133.8 2611.84,-133.8"/>
<polygon fill="black" stroke="black" points="2611.84,-130.3 2601.84,-133.8 2611.84,-137.3 2611.84,-130.3"/>
</g>
<!-- RouterModule -->
<g id="node21" class="node">
<title>RouterModule</title>
<polygon fill="#8dd3c7" stroke="black" points="3240.66,-84.8 3237.66,-88.8 3216.66,-88.8 3213.66,-84.8 3143.34,-84.8 3143.34,-48.8 3240.66,-48.8 3240.66,-84.8"/>
<text text-anchor="middle" x="3192" y="-62.6" font-family="Times,serif" font-size="14.00">RouterModule</text>
</g>
<!-- RouterModule&#45;&gt;AppModule -->
<g id="edge20" class="edge">
<title>RouterModule&#45;&gt;AppModule</title>
<path fill="none" stroke="black" d="M3192,-84.83C3192,-104.38 3192,-132.8 3192,-132.8 3192,-132.8 2611.96,-132.8 2611.96,-132.8"/>
<polygon fill="black" stroke="black" points="2611.96,-129.3 2601.96,-132.8 2611.96,-136.3 2611.96,-129.3"/>
</g>
<!-- HttpClientModule -->
<g id="node22" class="node">
<title>HttpClientModule</title>
<polygon fill="#8dd3c7" stroke="black" points="4390.16,-84.8 4387.16,-88.8 4366.16,-88.8 4363.16,-84.8 4271.84,-84.8 4271.84,-48.8 4390.16,-48.8 4390.16,-84.8"/>
<text text-anchor="middle" x="4331" y="-62.6" font-family="Times,serif" font-size="14.00">HttpClientModule</text>
</g>
<!-- HttpClientModule&#45;&gt;AppModule -->
<g id="edge21" class="edge">
<title>HttpClientModule&#45;&gt;AppModule</title>
<path fill="none" stroke="black" d="M4311.22,-84.95C4311.22,-108.56 4311.22,-146.8 4311.22,-146.8 4311.22,-146.8 2611.99,-146.8 2611.99,-146.8"/>
<polygon fill="black" stroke="black" points="2611.99,-143.3 2601.99,-146.8 2611.99,-150.3 2611.99,-143.3"/>
</g>
<!-- HttpClientModule&#45;&gt;SessionModule -->
<g id="edge41" class="edge">
<title>HttpClientModule&#45;&gt;SessionModule</title>
<path fill="none" stroke="black" d="M4350.78,-85C4350.78,-109.16 4350.78,-148.8 4350.78,-148.8 4350.78,-148.8 4393.8,-148.8 4393.8,-148.8"/>
<polygon fill="black" stroke="black" points="4393.8,-152.3 4403.8,-148.8 4393.8,-145.3 4393.8,-152.3"/>
</g>
<!-- ButtonModule -->
<g id="node23" class="node">
<title>ButtonModule</title>
<polygon fill="#8dd3c7" stroke="black" points="4505.67,-84.8 4502.67,-88.8 4481.67,-88.8 4478.67,-84.8 4408.33,-84.8 4408.33,-48.8 4505.67,-48.8 4505.67,-84.8"/>
<text text-anchor="middle" x="4457" y="-62.6" font-family="Times,serif" font-size="14.00">ButtonModule</text>
</g>
<!-- ButtonModule&#45;&gt;AppModule -->
<g id="edge22" class="edge">
<title>ButtonModule&#45;&gt;AppModule</title>
<path fill="none" stroke="black" d="M4440.72,-84.95C4440.72,-98.54 4440.72,-114.8 4440.72,-114.8 4440.72,-114.8 2599.28,-114.8 2599.28,-114.8 2599.28,-114.8 2599.28,-115.78 2599.28,-115.78"/>
<polygon fill="black" stroke="black" points="2595.78,-114.59 2599.28,-124.59 2602.78,-114.59 2595.78,-114.59"/>
</g>
<!-- ButtonModule&#45;&gt;SessionModule -->
<g id="edge49" class="edge">
<title>ButtonModule&#45;&gt;SessionModule</title>
<path fill="none" stroke="black" d="M4473.28,-84.81C4473.28,-84.81 4473.28,-114.65 4473.28,-114.65"/>
<polygon fill="black" stroke="black" points="4469.78,-114.65 4473.28,-124.65 4476.78,-114.65 4469.78,-114.65"/>
</g>
<!-- SongModule -->
<g id="node50" class="node">
<title>SongModule</title>
<polygon fill="#8dd3c7" stroke="black" points="6765.34,-160.8 6762.34,-164.8 6741.34,-164.8 6738.34,-160.8 6676.66,-160.8 6676.66,-124.8 6765.34,-124.8 6765.34,-160.8"/>
<text text-anchor="middle" x="6721" y="-138.6" font-family="Times,serif" font-size="14.00">SongModule</text>
</g>
<!-- ButtonModule&#45;&gt;SongModule -->
<g id="edge56" class="edge">
<title>ButtonModule&#45;&gt;SongModule</title>
<path fill="none" stroke="black" d="M4505.88,-66.8C4517.34,-66.8 4526.29,-66.8 4526.29,-66.8 4526.29,-66.8 4526.29,-127.8 4526.29,-127.8 4526.29,-127.8 6666.66,-127.8 6666.66,-127.8"/>
<polygon fill="black" stroke="black" points="6666.66,-131.3 6676.66,-127.8 6666.66,-124.3 6666.66,-131.3"/>
</g>
<!-- InputTextModule -->
<g id="node24" class="node">
<title>InputTextModule</title>
<polygon fill="#8dd3c7" stroke="black" points="3125.26,-84.8 3122.26,-88.8 3101.26,-88.8 3098.26,-84.8 3010.74,-84.8 3010.74,-48.8 3125.26,-48.8 3125.26,-84.8"/>
<text text-anchor="middle" x="3068" y="-62.6" font-family="Times,serif" font-size="14.00">InputTextModule</text>
</g>
<!-- InputTextModule&#45;&gt;AppModule -->
<g id="edge23" class="edge">
<title>InputTextModule&#45;&gt;AppModule</title>
<path fill="none" stroke="black" d="M3068,-84.97C3068,-103.89 3068,-130.8 3068,-130.8 3068,-130.8 2612,-130.8 2612,-130.8"/>
<polygon fill="black" stroke="black" points="2612,-127.3 2602,-130.8 2612,-134.3 2612,-127.3"/>
</g>
<!-- StyleClassModule -->
<g id="node25" class="node">
<title>StyleClassModule</title>
<polygon fill="#8dd3c7" stroke="black" points="2992.17,-84.8 2989.17,-88.8 2968.17,-88.8 2965.17,-84.8 2873.83,-84.8 2873.83,-48.8 2992.17,-48.8 2992.17,-84.8"/>
<text text-anchor="middle" x="2933" y="-62.6" font-family="Times,serif" font-size="14.00">StyleClassModule</text>
</g>
<!-- StyleClassModule&#45;&gt;AppModule -->
<g id="edge24" class="edge">
<title>StyleClassModule&#45;&gt;AppModule</title>
<path fill="none" stroke="black" d="M2933,-85.07C2933,-103.36 2933,-128.8 2933,-128.8 2933,-128.8 2611.7,-128.8 2611.7,-128.8"/>
<polygon fill="black" stroke="black" points="2611.7,-125.3 2601.7,-128.8 2611.7,-132.3 2611.7,-125.3"/>
</g>
<!-- MenuModule -->
<g id="node26" class="node">
<title>MenuModule</title>
<polygon fill="#8dd3c7" stroke="black" points="2856.21,-84.8 2853.21,-88.8 2832.21,-88.8 2829.21,-84.8 2763.79,-84.8 2763.79,-48.8 2856.21,-48.8 2856.21,-84.8"/>
<text text-anchor="middle" x="2810" y="-62.6" font-family="Times,serif" font-size="14.00">MenuModule</text>
</g>
<!-- MenuModule&#45;&gt;AppModule -->
<g id="edge25" class="edge">
<title>MenuModule&#45;&gt;AppModule</title>
<path fill="none" stroke="black" d="M2810,-84.8C2810,-102.48 2810,-126.8 2810,-126.8 2810,-126.8 2611.84,-126.8 2611.84,-126.8"/>
<polygon fill="black" stroke="black" points="2611.84,-123.3 2601.84,-126.8 2611.84,-130.3 2611.84,-123.3"/>
</g>
<!-- MenubarModule -->
<g id="node27" class="node">
<title>MenubarModule</title>
<polygon fill="#8dd3c7" stroke="black" points="3850.09,-84.8 3847.09,-88.8 3826.09,-88.8 3823.09,-84.8 3739.91,-84.8 3739.91,-48.8 3850.09,-48.8 3850.09,-84.8"/>
<text text-anchor="middle" x="3795" y="-62.6" font-family="Times,serif" font-size="14.00">MenubarModule</text>
</g>
<!-- MenubarModule&#45;&gt;AppModule -->
<g id="edge26" class="edge">
<title>MenubarModule&#45;&gt;AppModule</title>
<path fill="none" stroke="black" d="M3795,-84.84C3795,-106.46 3795,-139.8 3795,-139.8 3795,-139.8 2611.8,-139.8 2611.8,-139.8"/>
<polygon fill="black" stroke="black" points="2611.8,-136.3 2601.8,-139.8 2611.8,-143.3 2611.8,-136.3"/>
</g>
<!-- CdTimerModule -->
<g id="node28" class="node">
<title>CdTimerModule</title>
<polygon fill="#8dd3c7" stroke="black" points="4254.1,-84.8 4251.1,-88.8 4230.1,-88.8 4227.1,-84.8 4143.9,-84.8 4143.9,-48.8 4254.1,-48.8 4254.1,-84.8"/>
<text text-anchor="middle" x="4199" y="-62.6" font-family="Times,serif" font-size="14.00">CdTimerModule</text>
</g>
<!-- CdTimerModule&#45;&gt;AppModule -->
<g id="edge27" class="edge">
<title>CdTimerModule&#45;&gt;AppModule</title>
<path fill="none" stroke="black" d="M4180.65,-84.89C4180.65,-107.93 4180.65,-144.8 4180.65,-144.8 4180.65,-144.8 2611.69,-144.8 2611.69,-144.8"/>
<polygon fill="black" stroke="black" points="2611.69,-141.3 2601.69,-144.8 2611.69,-148.3 2611.69,-141.3"/>
</g>
<!-- CdTimerModule&#45;&gt;SessionModule -->
<g id="edge45" class="edge">
<title>CdTimerModule&#45;&gt;SessionModule</title>
<path fill="none" stroke="black" d="M4217.35,-85.03C4217.35,-109.73 4217.35,-150.8 4217.35,-150.8 4217.35,-150.8 4393.73,-150.8 4393.73,-150.8"/>
<polygon fill="black" stroke="black" points="4393.73,-154.3 4403.73,-150.8 4393.73,-147.3 4393.73,-154.3"/>
</g>
<!-- DialogModule -->
<g id="node29" class="node">
<title>DialogModule</title>
<polygon fill="#8dd3c7" stroke="black" points="3721.66,-84.8 3718.66,-88.8 3697.66,-88.8 3694.66,-84.8 3624.34,-84.8 3624.34,-48.8 3721.66,-48.8 3721.66,-84.8"/>
<text text-anchor="middle" x="3673" y="-62.6" font-family="Times,serif" font-size="14.00">DialogModule</text>
</g>
<!-- DialogModule&#45;&gt;AppModule -->
<g id="edge28" class="edge">
<title>DialogModule&#45;&gt;AppModule</title>
<path fill="none" stroke="black" d="M3673,-85.08C3673,-106.12 3673,-137.8 3673,-137.8 3673,-137.8 2611.94,-137.8 2611.94,-137.8"/>
<polygon fill="black" stroke="black" points="2611.94,-134.3 2601.94,-137.8 2611.94,-141.3 2611.94,-134.3"/>
</g>
<!-- Convertors -->
<g id="node32" class="node">
<title>Convertors</title>
<ellipse fill="#fdb462" stroke="black" cx="422" cy="-66.8" rx="53.9" ry="18"/>
<text text-anchor="middle" x="422" y="-62.6" font-family="Times,serif" font-size="14.00">Convertors</text>
</g>
<!-- Convertors&#45;&gt;AppModule -->
<g id="edge31" class="edge">
<title>Convertors&#45;&gt;AppModule</title>
<path fill="none" stroke="black" d="M422,-84.98C422,-111.79 422,-158.8 422,-158.8 422,-158.8 2508.25,-158.8 2508.25,-158.8"/>
<polygon fill="black" stroke="black" points="2508.25,-162.3 2518.25,-158.8 2508.25,-155.3 2508.25,-162.3"/>
</g>
<!-- RouterModule.forRoot(args) -->
<g id="node33" class="node">
<title>RouterModule.forRoot(args)</title>
<polygon fill="#8dd3c7" stroke="black" points="327.86,-160.8 324.86,-164.8 303.86,-164.8 300.86,-160.8 150.14,-160.8 150.14,-124.8 327.86,-124.8 327.86,-160.8"/>
<text text-anchor="middle" x="239" y="-138.6" font-family="Times,serif" font-size="14.00">RouterModule.forRoot(args)</text>
</g>
<!-- RouterModule.forRoot(args)&#45;&gt;AppRoutingModule -->
<g id="edge32" class="edge">
<title>RouterModule.forRoot(args)&#45;&gt;AppRoutingModule</title>
<path fill="none" stroke="black" d="M239,-124.69C239,-114.9 239,-104.8 239,-104.8 239,-104.8 2682.85,-104.8 2682.85,-104.8 2682.85,-104.8 2682.85,-94.91 2682.85,-94.91"/>
<polygon fill="black" stroke="black" points="2686.35,-94.91 2682.85,-84.91 2679.35,-94.91 2686.35,-94.91"/>
</g>
<!-- DisplaySessionComponent -->
<g id="node35" class="node">
<title>DisplaySessionComponent</title>
<polygon fill="#ffffb3" stroke="black" points="5254.67,-84.8 5087.33,-84.8 5087.33,-48.8 5254.67,-48.8 5254.67,-84.8"/>
<text text-anchor="middle" x="5171" y="-62.6" font-family="Times,serif" font-size="14.00">DisplaySessionComponent</text>
</g>
<!-- DisplaySessionComponent&#45;&gt;SessionModule -->
<g id="edge34" class="edge">
<title>DisplaySessionComponent&#45;&gt;SessionModule</title>
<path fill="none" stroke="black" d="M5171,-84.83C5171,-105.57 5171,-136.8 5171,-136.8 5171,-136.8 4516.21,-136.8 4516.21,-136.8"/>
<polygon fill="black" stroke="black" points="4516.21,-133.3 4506.21,-136.8 4516.21,-140.3 4516.21,-133.3"/>
</g>
<!-- PreviousSessionsComponent -->
<g id="node36" class="node">
<title>PreviousSessionsComponent</title>
<polygon fill="#ffffb3" stroke="black" points="5593.07,-84.8 5414.93,-84.8 5414.93,-48.8 5593.07,-48.8 5593.07,-84.8"/>
<text text-anchor="middle" x="5504" y="-62.6" font-family="Times,serif" font-size="14.00">PreviousSessionsComponent</text>
</g>
<!-- PreviousSessionsComponent&#45;&gt;SessionModule -->
<g id="edge35" class="edge">
<title>PreviousSessionsComponent&#45;&gt;SessionModule</title>
<path fill="none" stroke="black" d="M5504,-85.09C5504,-107.01 5504,-140.8 5504,-140.8 5504,-140.8 4516.31,-140.8 4516.31,-140.8"/>
<polygon fill="black" stroke="black" points="4516.31,-137.3 4506.31,-140.8 4516.31,-144.3 4516.31,-137.3"/>
</g>
<!-- SessionComponent -->
<g id="node37" class="node">
<title>SessionComponent</title>
<polygon fill="#ffffb3" stroke="black" points="5397.12,-84.8 5272.88,-84.8 5272.88,-48.8 5397.12,-48.8 5397.12,-84.8"/>
<text text-anchor="middle" x="5335" y="-62.6" font-family="Times,serif" font-size="14.00">SessionComponent</text>
</g>
<!-- SessionComponent&#45;&gt;SessionModule -->
<g id="edge36" class="edge">
<title>SessionComponent&#45;&gt;SessionModule</title>
<path fill="none" stroke="black" d="M5335,-84.97C5335,-106.3 5335,-138.8 5335,-138.8 5335,-138.8 4516.44,-138.8 4516.44,-138.8"/>
<polygon fill="black" stroke="black" points="4516.44,-135.3 4506.44,-138.8 4516.44,-142.3 4516.44,-135.3"/>
</g>
<!-- MatInputModule -->
<g id="node38" class="node">
<title>MatInputModule</title>
<polygon fill="#8dd3c7" stroke="black" points="5970.66,-84.8 5967.66,-88.8 5946.66,-88.8 5943.66,-84.8 5859.34,-84.8 5859.34,-48.8 5970.66,-48.8 5970.66,-84.8"/>
<text text-anchor="middle" x="5915" y="-62.6" font-family="Times,serif" font-size="14.00">MatInputModule</text>
</g>
<!-- MatInputModule&#45;&gt;SessionModule -->
<g id="edge39" class="edge">
<title>MatInputModule&#45;&gt;SessionModule</title>
<path fill="none" stroke="black" d="M5915,-85.18C5915,-109.08 5915,-147.8 5915,-147.8 5915,-147.8 4516.53,-147.8 4516.53,-147.8"/>
<polygon fill="black" stroke="black" points="4516.53,-144.3 4506.53,-147.8 4516.53,-151.3 4516.53,-144.3"/>
</g>
<!-- CommonModule -->
<g id="node39" class="node">
<title>CommonModule</title>
<polygon fill="#8dd3c7" stroke="black" points="6644.67,-84.8 6641.67,-88.8 6620.67,-88.8 6617.67,-84.8 6533.33,-84.8 6533.33,-48.8 6644.67,-48.8 6644.67,-84.8"/>
<text text-anchor="middle" x="6589" y="-62.6" font-family="Times,serif" font-size="14.00">CommonModule</text>
</g>
<!-- CommonModule&#45;&gt;SessionModule -->
<g id="edge40" class="edge">
<title>CommonModule&#45;&gt;SessionModule</title>
<path fill="none" stroke="black" d="M6589,-84.98C6589,-111.79 6589,-158.8 6589,-158.8 6589,-158.8 4516.43,-158.8 4516.43,-158.8"/>
<polygon fill="black" stroke="black" points="4516.43,-155.3 4506.43,-158.8 4516.43,-162.3 4516.43,-155.3"/>
</g>
<!-- CommonModule&#45;&gt;SongModule -->
<g id="edge55" class="edge">
<title>CommonModule&#45;&gt;SongModule</title>
<path fill="none" stroke="black" d="M6644.83,-66.8C6664.08,-66.8 6680.89,-66.8 6680.89,-66.8 6680.89,-66.8 6680.89,-114.79 6680.89,-114.79"/>
<polygon fill="black" stroke="black" points="6677.39,-114.79 6680.89,-124.79 6684.39,-114.79 6677.39,-114.79"/>
</g>
<!-- MatTableModule -->
<g id="node40" class="node">
<title>MatTableModule</title>
<polygon fill="#8dd3c7" stroke="black" points="5730.97,-84.8 5727.97,-88.8 5706.97,-88.8 5703.97,-84.8 5617.03,-84.8 5617.03,-48.8 5730.97,-48.8 5730.97,-84.8"/>
<text text-anchor="middle" x="5674" y="-62.6" font-family="Times,serif" font-size="14.00">MatTableModule</text>
</g>
<!-- MatTableModule&#45;&gt;SessionModule -->
<g id="edge42" class="edge">
<title>MatTableModule&#45;&gt;SessionModule</title>
<path fill="none" stroke="black" d="M5674,-84.81C5674,-107.29 5674,-142.8 5674,-142.8 5674,-142.8 4516.21,-142.8 4516.21,-142.8"/>
<polygon fill="black" stroke="black" points="4516.21,-139.3 4506.21,-142.8 4516.21,-146.3 4516.21,-139.3"/>
</g>
<!-- MatPaginatorModule -->
<g id="node41" class="node">
<title>MatPaginatorModule</title>
<polygon fill="#8dd3c7" stroke="black" points="6514.76,-84.8 6511.76,-88.8 6490.76,-88.8 6487.76,-84.8 6379.24,-84.8 6379.24,-48.8 6514.76,-48.8 6514.76,-84.8"/>
<text text-anchor="middle" x="6447" y="-62.6" font-family="Times,serif" font-size="14.00">MatPaginatorModule</text>
</g>
<!-- MatPaginatorModule&#45;&gt;SessionModule -->
<g id="edge43" class="edge">
<title>MatPaginatorModule&#45;&gt;SessionModule</title>
<path fill="none" stroke="black" d="M6447,-85.01C6447,-111.31 6447,-156.8 6447,-156.8 6447,-156.8 4516.24,-156.8 4516.24,-156.8"/>
<polygon fill="black" stroke="black" points="4516.24,-153.3 4506.24,-156.8 4516.24,-160.3 4516.24,-153.3"/>
</g>
<!-- MatSortModule -->
<g id="node42" class="node">
<title>MatSortModule</title>
<polygon fill="#8dd3c7" stroke="black" points="6360.94,-84.8 6357.94,-88.8 6336.94,-88.8 6333.94,-84.8 6255.06,-84.8 6255.06,-48.8 6360.94,-48.8 6360.94,-84.8"/>
<text text-anchor="middle" x="6308" y="-62.6" font-family="Times,serif" font-size="14.00">MatSortModule</text>
</g>
<!-- MatSortModule&#45;&gt;SessionModule -->
<g id="edge44" class="edge">
<title>MatSortModule&#45;&gt;SessionModule</title>
<path fill="none" stroke="black" d="M6308,-85.03C6308,-110.81 6308,-154.8 6308,-154.8 6308,-154.8 4516.49,-154.8 4516.49,-154.8"/>
<polygon fill="black" stroke="black" points="4516.49,-151.3 4506.49,-154.8 4516.49,-158.3 4516.49,-151.3"/>
</g>
<!-- ChipsModule -->
<g id="node43" class="node">
<title>ChipsModule</title>
<polygon fill="#8dd3c7" stroke="black" points="6237.23,-84.8 6234.23,-88.8 6213.23,-88.8 6210.23,-84.8 6144.77,-84.8 6144.77,-48.8 6237.23,-48.8 6237.23,-84.8"/>
<text text-anchor="middle" x="6191" y="-62.6" font-family="Times,serif" font-size="14.00">ChipsModule</text>
</g>
<!-- ChipsModule&#45;&gt;SessionModule -->
<g id="edge46" class="edge">
<title>ChipsModule&#45;&gt;SessionModule</title>
<path fill="none" stroke="black" d="M6191,-84.83C6191,-109.78 6191,-151.8 6191,-151.8 6191,-151.8 4516.48,-151.8 4516.48,-151.8"/>
<polygon fill="black" stroke="black" points="4516.48,-148.3 4506.48,-151.8 4516.48,-155.3 4516.48,-148.3"/>
</g>
<!-- InputTextareaModule -->
<g id="node44" class="node">
<title>InputTextareaModule</title>
<polygon fill="#8dd3c7" stroke="black" points="6127.06,-84.8 6124.06,-88.8 6103.06,-88.8 6100.06,-84.8 5988.94,-84.8 5988.94,-48.8 6127.06,-48.8 6127.06,-84.8"/>
<text text-anchor="middle" x="6058" y="-62.6" font-family="Times,serif" font-size="14.00">InputTextareaModule</text>
</g>
<!-- InputTextareaModule&#45;&gt;SessionModule -->
<g id="edge47" class="edge">
<title>InputTextareaModule&#45;&gt;SessionModule</title>
<path fill="none" stroke="black" d="M6058,-84.81C6058,-109.22 6058,-149.8 6058,-149.8 6058,-149.8 4516.52,-149.8 4516.52,-149.8"/>
<polygon fill="black" stroke="black" points="4516.52,-146.3 4506.52,-149.8 4516.52,-153.3 4516.52,-146.3"/>
</g>
<!-- TableModule -->
<g id="node45" class="node">
<title>TableModule</title>
<polygon fill="#8dd3c7" stroke="black" points="5840.92,-84.8 5837.92,-88.8 5816.92,-88.8 5813.92,-84.8 5749.08,-84.8 5749.08,-48.8 5840.92,-48.8 5840.92,-84.8"/>
<text text-anchor="middle" x="5795" y="-62.6" font-family="Times,serif" font-size="14.00">TableModule</text>
</g>
<!-- TableModule&#45;&gt;SessionModule -->
<g id="edge48" class="edge">
<title>TableModule&#45;&gt;SessionModule</title>
<path fill="none" stroke="black" d="M5795,-85.12C5795,-108.46 5795,-145.8 5795,-145.8 5795,-145.8 4516.3,-145.8 4516.3,-145.8"/>
<polygon fill="black" stroke="black" points="4516.3,-142.3 4506.3,-145.8 4516.3,-149.3 4516.3,-142.3"/>
</g>
<!-- SongComponent -->
<g id="node49" class="node">
<title>SongComponent</title>
<polygon fill="#ffffb3" stroke="black" points="6795.12,-84.8 6684.88,-84.8 6684.88,-48.8 6795.12,-48.8 6795.12,-84.8"/>
<text text-anchor="middle" x="6740" y="-62.6" font-family="Times,serif" font-size="14.00">SongComponent</text>
</g>
<!-- SongComponent&#45;&gt;SongModule -->
<g id="edge54" class="edge">
<title>SongComponent&#45;&gt;SongModule</title>
<path fill="none" stroke="black" d="M6725.06,-84.81C6725.06,-84.81 6725.06,-114.65 6725.06,-114.65"/>
<polygon fill="black" stroke="black" points="6721.56,-114.65 6725.06,-124.65 6728.56,-114.65 6721.56,-114.65"/>
</g>
</g>
</svg>
