<?xml version="1.0" encoding="UTF-8" standalone="no"?>
<!DOCTYPE svg PUBLIC "-//W3C//DTD SVG 1.1//EN"
 "http://www.w3.org/Graphics/SVG/1.1/DTD/svg11.dtd">
<!-- Generated by graphviz version 5.0.0 (20220707.1540)
 -->
<!-- Title: dependencies Pages: 1 -->
<svg width="4315pt" height="247pt"
 viewBox="0.00 0.00 4315.00 246.80" xmlns="http://www.w3.org/2000/svg" xmlns:xlink="http://www.w3.org/1999/xlink">
<g id="graph0" class="graph" transform="scale(1 1) rotate(0) translate(4 242.8)">
<title>dependencies</title>
<polygon fill="white" stroke="transparent" points="-4,4 -4,-242.8 4311,-242.8 4311,4 -4,4"/>
<text text-anchor="middle" x="2153.5" y="-8.2" font-family="sans-serif" font-size="14.00">dependencies</text>
<g id="clust1" class="cluster">
<title>cluster_AppModule</title>
<polygon fill="none" stroke="black" stroke-dasharray="1,5" points="8,-32.8 8,-230.8 4299,-230.8 4299,-32.8 8,-32.8"/>
</g>
<g id="clust19" class="cluster">
<title>cluster_AppModule_providers</title>
<polygon fill="none" stroke="black" points="4167,-40.8 4167,-92.8 4291,-92.8 4291,-40.8 4167,-40.8"/>
</g>
<g id="clust16" class="cluster">
<title>cluster_AppModule_imports</title>
<polygon fill="none" stroke="black" points="2134,-40.8 2134,-92.8 4159,-92.8 4159,-40.8 2134,-40.8"/>
</g>
<g id="clust18" class="cluster">
<title>cluster_AppModule_bootstrap</title>
<polygon fill="none" stroke="black" points="2352,-170.8 2352,-222.8 2476,-222.8 2476,-170.8 2352,-170.8"/>
</g>
<g id="clust17" class="cluster">
<title>cluster_AppModule_exports</title>
<polygon fill="none" stroke="black" points="2082,-170.8 2082,-222.8 2344,-222.8 2344,-170.8 2082,-170.8"/>
</g>
<g id="clust2" class="cluster">
<title>cluster_AppModule_declarations</title>
<polygon fill="none" stroke="black" points="16,-40.8 16,-92.8 2126,-92.8 2126,-40.8 16,-40.8"/>
</g>
<!-- AppComponent -->
<g id="node1" class="node">
<title>AppComponent</title>
<polygon fill="#ffffb3" stroke="black" points="2117.94,-84.8 2012.06,-84.8 2012.06,-48.8 2117.94,-48.8 2117.94,-84.8"/>
<text text-anchor="middle" x="2065" y="-62.6" font-family="Times,serif" font-size="14.00">AppComponent</text>
</g>
<!-- AppModule -->
<g id="node14" class="node">
<title>AppModule</title>
<polygon fill="#8dd3c7" stroke="black" points="2354.66,-149.8 2351.66,-153.8 2330.66,-153.8 2327.66,-149.8 2271.34,-149.8 2271.34,-113.8 2354.66,-113.8 2354.66,-149.8"/>
<text text-anchor="middle" x="2313" y="-127.6" font-family="Times,serif" font-size="14.00">AppModule</text>
</g>
<!-- AppComponent&#45;&gt;AppModule -->
<g id="edge1" class="edge">
<title>AppComponent&#45;&gt;AppModule</title>
<path fill="none" stroke="black" d="M2104.1,-84.99C2104.1,-99.98 2104.1,-118.8 2104.1,-118.8 2104.1,-118.8 2261.23,-118.8 2261.23,-118.8"/>
<polygon fill="black" stroke="black" points="2261.23,-122.3 2271.23,-118.8 2261.23,-115.3 2261.23,-122.3"/>
</g>
<!-- LandingPageComponent -->
<g id="node2" class="node">
<title>LandingPageComponent</title>
<polygon fill="#ffffb3" stroke="black" points="1994.7,-84.8 1839.3,-84.8 1839.3,-48.8 1994.7,-48.8 1994.7,-84.8"/>
<text text-anchor="middle" x="1917" y="-62.6" font-family="Times,serif" font-size="14.00">LandingPageComponent</text>
</g>
<!-- LandingPageComponent&#45;&gt;AppModule -->
<g id="edge2" class="edge">
<title>LandingPageComponent&#45;&gt;AppModule</title>
<path fill="none" stroke="black" d="M1917,-84.81C1917,-100.85 1917,-121.8 1917,-121.8 1917,-121.8 2261,-121.8 2261,-121.8"/>
<polygon fill="black" stroke="black" points="2261,-125.3 2271,-121.8 2261,-118.3 2261,-125.3"/>
</g>
<!-- HeaderComponent -->
<g id="node3" class="node">
<title>HeaderComponent</title>
<polygon fill="#ffffb3" stroke="black" points="1821.75,-84.8 1700.25,-84.8 1700.25,-48.8 1821.75,-48.8 1821.75,-84.8"/>
<text text-anchor="middle" x="1761" y="-62.6" font-family="Times,serif" font-size="14.00">HeaderComponent</text>
</g>
<!-- HeaderComponent&#45;&gt;AppModule -->
<g id="edge3" class="edge">
<title>HeaderComponent&#45;&gt;AppModule</title>
<path fill="none" stroke="black" d="M1761,-84.84C1761,-101.53 1761,-123.8 1761,-123.8 1761,-123.8 2261.06,-123.8 2261.06,-123.8"/>
<polygon fill="black" stroke="black" points="2261.06,-127.3 2271.06,-123.8 2261.06,-120.3 2261.06,-127.3"/>
</g>
<!-- FooterComponent -->
<g id="node4" class="node">
<title>FooterComponent</title>
<polygon fill="#ffffb3" stroke="black" points="1681.88,-84.8 1564.12,-84.8 1564.12,-48.8 1681.88,-48.8 1681.88,-84.8"/>
<text text-anchor="middle" x="1623" y="-62.6" font-family="Times,serif" font-size="14.00">FooterComponent</text>
</g>
<!-- FooterComponent&#45;&gt;AppModule -->
<g id="edge4" class="edge">
<title>FooterComponent&#45;&gt;AppModule</title>
<path fill="none" stroke="black" d="M1623,-84.82C1623,-102.17 1623,-125.8 1623,-125.8 1623,-125.8 2261.13,-125.8 2261.13,-125.8"/>
<polygon fill="black" stroke="black" points="2261.13,-129.3 2271.13,-125.8 2261.13,-122.3 2261.13,-129.3"/>
</g>
<!-- NavigationComponent -->
<g id="node5" class="node">
<title>NavigationComponent</title>
<polygon fill="#ffffb3" stroke="black" points="1545.54,-84.8 1402.46,-84.8 1402.46,-48.8 1545.54,-48.8 1545.54,-84.8"/>
<text text-anchor="middle" x="1474" y="-62.6" font-family="Times,serif" font-size="14.00">NavigationComponent</text>
</g>
<!-- NavigationComponent&#45;&gt;AppModule -->
<g id="edge5" class="edge">
<title>NavigationComponent&#45;&gt;AppModule</title>
<path fill="none" stroke="black" d="M1474,-85.07C1474,-103.36 1474,-128.8 1474,-128.8 1474,-128.8 2261.11,-128.8 2261.11,-128.8"/>
<polygon fill="black" stroke="black" points="2261.11,-132.3 2271.11,-128.8 2261.11,-125.3 2261.11,-132.3"/>
</g>
<!-- ChordComponent -->
<g id="node6" class="node">
<title>ChordComponent</title>
<polygon fill="#ffffb3" stroke="black" points="1384.33,-84.8 1267.67,-84.8 1267.67,-48.8 1384.33,-48.8 1384.33,-84.8"/>
<text text-anchor="middle" x="1326" y="-62.6" font-family="Times,serif" font-size="14.00">ChordComponent</text>
</g>
<!-- ChordComponent&#45;&gt;AppModule -->
<g id="edge6" class="edge">
<title>ChordComponent&#45;&gt;AppModule</title>
<path fill="none" stroke="black" d="M1326,-84.97C1326,-103.89 1326,-130.8 1326,-130.8 1326,-130.8 2261.22,-130.8 2261.22,-130.8"/>
<polygon fill="black" stroke="black" points="2261.22,-134.3 2271.22,-130.8 2261.22,-127.3 2261.22,-134.3"/>
</g>
<!-- SessionResourceComponentComponent -->
<g id="node7" class="node">
<title>SessionResourceComponentComponent</title>
<polygon fill="#ffffb3" stroke="black" points="1249.54,-84.8 1008.46,-84.8 1008.46,-48.8 1249.54,-48.8 1249.54,-84.8"/>
<text text-anchor="middle" x="1129" y="-62.6" font-family="Times,serif" font-size="14.00">SessionResourceComponentComponent</text>
</g>
<!-- SessionResourceComponentComponent&#45;&gt;AppModule -->
<g id="edge7" class="edge">
<title>SessionResourceComponentComponent&#45;&gt;AppModule</title>
<path fill="none" stroke="black" d="M1129,-85.11C1129,-104.95 1129,-133.8 1129,-133.8 1129,-133.8 2261.21,-133.8 2261.21,-133.8"/>
<polygon fill="black" stroke="black" points="2261.21,-137.3 2271.21,-133.8 2261.21,-130.3 2261.21,-137.3"/>
</g>
<!-- ExercisesComponent -->
<g id="node8" class="node">
<title>ExercisesComponent</title>
<polygon fill="#ffffb3" stroke="black" points="990.47,-84.8 855.53,-84.8 855.53,-48.8 990.47,-48.8 990.47,-84.8"/>
<text text-anchor="middle" x="923" y="-62.6" font-family="Times,serif" font-size="14.00">ExercisesComponent</text>
</g>
<!-- ExercisesComponent&#45;&gt;AppModule -->
<g id="edge8" class="edge">
<title>ExercisesComponent&#45;&gt;AppModule</title>
<path fill="none" stroke="black" d="M923,-84.93C923,-105.37 923,-135.8 923,-135.8 923,-135.8 2261.02,-135.8 2261.02,-135.8"/>
<polygon fill="black" stroke="black" points="2261.02,-139.3 2271.02,-135.8 2261.02,-132.3 2261.02,-139.3"/>
</g>
<!-- AuthComponent -->
<g id="node9" class="node">
<title>AuthComponent</title>
<polygon fill="#ffffb3" stroke="black" points="837.83,-84.8 728.17,-84.8 728.17,-48.8 837.83,-48.8 837.83,-84.8"/>
<text text-anchor="middle" x="783" y="-62.6" font-family="Times,serif" font-size="14.00">AuthComponent</text>
</g>
<!-- AuthComponent&#45;&gt;AppModule -->
<g id="edge9" class="edge">
<title>AuthComponent&#45;&gt;AppModule</title>
<path fill="none" stroke="black" d="M783,-85.08C783,-106.12 783,-137.8 783,-137.8 783,-137.8 2261.28,-137.8 2261.28,-137.8"/>
<polygon fill="black" stroke="black" points="2261.28,-141.3 2271.28,-137.8 2261.28,-134.3 2261.28,-141.3"/>
</g>
<!-- MetronomeComponent -->
<g id="node10" class="node">
<title>MetronomeComponent</title>
<polygon fill="#ffffb3" stroke="black" points="710.15,-84.8 563.85,-84.8 563.85,-48.8 710.15,-48.8 710.15,-84.8"/>
<text text-anchor="middle" x="637" y="-62.6" font-family="Times,serif" font-size="14.00">MetronomeComponent</text>
</g>
<!-- MetronomeComponent&#45;&gt;AppModule -->
<g id="edge10" class="edge">
<title>MetronomeComponent&#45;&gt;AppModule</title>
<path fill="none" stroke="black" d="M637,-85.09C637,-107.01 637,-140.8 637,-140.8 637,-140.8 2261.15,-140.8 2261.15,-140.8"/>
<polygon fill="black" stroke="black" points="2261.15,-144.3 2271.15,-140.8 2261.15,-137.3 2261.15,-144.3"/>
</g>
<!-- SessionResourcePickerComponent -->
<g id="node11" class="node">
<title>SessionResourcePickerComponent</title>
<polygon fill="#ffffb3" stroke="black" points="545.97,-84.8 334.03,-84.8 334.03,-48.8 545.97,-48.8 545.97,-84.8"/>
<text text-anchor="middle" x="440" y="-62.6" font-family="Times,serif" font-size="14.00">SessionResourcePickerComponent</text>
</g>
<!-- SessionResourcePickerComponent&#45;&gt;AppModule -->
<g id="edge11" class="edge">
<title>SessionResourcePickerComponent&#45;&gt;AppModule</title>
<path fill="none" stroke="black" d="M440,-84.81C440,-107.29 440,-142.8 440,-142.8 440,-142.8 2261.25,-142.8 2261.25,-142.8"/>
<polygon fill="black" stroke="black" points="2261.25,-146.3 2271.25,-142.8 2261.25,-139.3 2261.25,-146.3"/>
</g>
<!-- SongLibraryComponent -->
<g id="node12" class="node">
<title>SongLibraryComponent</title>
<polygon fill="#ffffb3" stroke="black" points="316.1,-84.8 163.9,-84.8 163.9,-48.8 316.1,-48.8 316.1,-84.8"/>
<text text-anchor="middle" x="240" y="-62.6" font-family="Times,serif" font-size="14.00">SongLibraryComponent</text>
</g>
<!-- SongLibraryComponent&#45;&gt;AppModule -->
<g id="edge12" class="edge">
<title>SongLibraryComponent&#45;&gt;AppModule</title>
<path fill="none" stroke="black" d="M240,-85.12C240,-108.46 240,-145.8 240,-145.8 240,-145.8 2261.12,-145.8 2261.12,-145.8"/>
<polygon fill="black" stroke="black" points="2261.12,-149.3 2271.12,-145.8 2261.12,-142.3 2261.12,-149.3"/>
</g>
<!-- UploadComponent -->
<g id="node13" class="node">
<title>UploadComponent</title>
<polygon fill="#ffffb3" stroke="black" points="146.05,-84.8 23.95,-84.8 23.95,-48.8 146.05,-48.8 146.05,-84.8"/>
<text text-anchor="middle" x="85" y="-62.6" font-family="Times,serif" font-size="14.00">UploadComponent</text>
</g>
<!-- UploadComponent&#45;&gt;AppModule -->
<g id="edge13" class="edge">
<title>UploadComponent&#45;&gt;AppModule</title>
<path fill="none" stroke="black" d="M85,-85.18C85,-109.08 85,-147.8 85,-147.8 85,-147.8 2260.97,-147.8 2260.97,-147.8"/>
<polygon fill="black" stroke="black" points="2260.97,-151.3 2270.97,-147.8 2260.97,-144.3 2260.97,-151.3"/>
</g>
<!-- SessionResourceComponentComponent  -->
<g id="node30" class="node">
<title>SessionResourceComponentComponent </title>
<polygon fill="#fb8072" stroke="black" points="2335.54,-214.8 2090.46,-214.8 2090.46,-178.8 2335.54,-178.8 2335.54,-214.8"/>
<text text-anchor="middle" x="2213" y="-192.6" font-family="Times,serif" font-size="14.00">SessionResourceComponentComponent </text>
</g>
<!-- AppModule&#45;&gt;SessionResourceComponentComponent  -->
<g id="edge29" class="edge">
<title>AppModule&#45;&gt;SessionResourceComponentComponent </title>
<path fill="none" stroke="black" stroke-dasharray="5,2" d="M2303.34,-149.91C2303.34,-149.91 2303.34,-168.79 2303.34,-168.79"/>
<polygon fill="black" stroke="black" points="2299.84,-168.79 2303.34,-178.79 2306.84,-168.79 2299.84,-168.79"/>
</g>
<!-- AppComponent  -->
<g id="node31" class="node">
<title>AppComponent </title>
<polygon fill="#80b1d3" stroke="black" points="2468.44,-214.8 2359.56,-214.8 2359.56,-178.8 2468.44,-178.8 2468.44,-214.8"/>
<text text-anchor="middle" x="2414" y="-192.6" font-family="Times,serif" font-size="14.00">AppComponent </text>
</g>
<!-- AppModule&#45;&gt;AppComponent  -->
<g id="edge30" class="edge">
<title>AppModule&#45;&gt;AppComponent </title>
<path fill="none" stroke="black" stroke-dasharray="1,5" d="M2354.94,-147.8C2360.21,-147.8 2363.79,-147.8 2363.79,-147.8 2363.79,-147.8 2363.79,-168.55 2363.79,-168.55"/>
<polygon fill="black" stroke="black" points="2360.29,-168.55 2363.79,-178.55 2367.29,-168.55 2360.29,-168.55"/>
</g>
<!-- BrowserModule -->
<g id="node15" class="node">
<title>BrowserModule</title>
<polygon fill="#8dd3c7" stroke="black" points="4151.49,-84.8 4148.49,-88.8 4127.49,-88.8 4124.49,-84.8 4044.51,-84.8 4044.51,-48.8 4151.49,-48.8 4151.49,-84.8"/>
<text text-anchor="middle" x="4098" y="-62.6" font-family="Times,serif" font-size="14.00">BrowserModule</text>
</g>
<!-- BrowserModule&#45;&gt;AppModule -->
<g id="edge14" class="edge">
<title>BrowserModule&#45;&gt;AppModule</title>
<path fill="none" stroke="black" d="M4098,-85.05C4098,-107.82 4098,-143.8 4098,-143.8 4098,-143.8 2364.93,-143.8 2364.93,-143.8"/>
<polygon fill="black" stroke="black" points="2364.93,-140.3 2354.93,-143.8 2364.93,-147.3 2364.93,-140.3"/>
</g>
<!-- AppRoutingModule -->
<g id="node16" class="node">
<title>AppRoutingModule</title>
<polygon fill="#8dd3c7" stroke="black" points="4026.28,-84.8 4023.28,-88.8 4002.28,-88.8 3999.28,-84.8 3897.72,-84.8 3897.72,-48.8 4026.28,-48.8 4026.28,-84.8"/>
<text text-anchor="middle" x="3962" y="-62.6" font-family="Times,serif" font-size="14.00">AppRoutingModule</text>
</g>
<!-- AppRoutingModule&#45;&gt;AppModule -->
<g id="edge15" class="edge">
<title>AppRoutingModule&#45;&gt;AppModule</title>
<path fill="none" stroke="black" d="M3962,-85.09C3962,-107.01 3962,-140.8 3962,-140.8 3962,-140.8 2365,-140.8 2365,-140.8"/>
<polygon fill="black" stroke="black" points="2365,-137.3 2355,-140.8 2365,-144.3 2365,-137.3"/>
</g>
<!-- SessionModule -->
<g id="node17" class="node">
<title>SessionModule</title>
<polygon fill="#8dd3c7" stroke="black" points="3879.34,-84.8 3876.34,-88.8 3855.34,-88.8 3852.34,-84.8 3776.66,-84.8 3776.66,-48.8 3879.34,-48.8 3879.34,-84.8"/>
<text text-anchor="middle" x="3828" y="-62.6" font-family="Times,serif" font-size="14.00">SessionModule</text>
</g>
<!-- SessionModule&#45;&gt;AppModule -->
<g id="edge16" class="edge">
<title>SessionModule&#45;&gt;AppModule</title>
<path fill="none" stroke="black" d="M3828,-84.97C3828,-106.3 3828,-138.8 3828,-138.8 3828,-138.8 2364.7,-138.8 2364.7,-138.8"/>
<polygon fill="black" stroke="black" points="2364.7,-135.3 2354.7,-138.8 2364.7,-142.3 2364.7,-135.3"/>
</g>
<!-- ReactiveFormsModule -->
<g id="node18" class="node">
<title>ReactiveFormsModule</title>
<polygon fill="#8dd3c7" stroke="black" points="3759.31,-84.8 3756.31,-88.8 3735.31,-88.8 3732.31,-84.8 3614.69,-84.8 3614.69,-48.8 3759.31,-48.8 3759.31,-84.8"/>
<text text-anchor="middle" x="3687" y="-62.6" font-family="Times,serif" font-size="14.00">ReactiveFormsModule</text>
</g>
<!-- ReactiveFormsModule&#45;&gt;AppModule -->
<g id="edge17" class="edge">
<title>ReactiveFormsModule&#45;&gt;AppModule</title>
<path fill="none" stroke="black" d="M3687,-84.83C3687,-105.57 3687,-136.8 3687,-136.8 3687,-136.8 2364.87,-136.8 2364.87,-136.8"/>
<polygon fill="black" stroke="black" points="2364.87,-133.3 2354.87,-136.8 2364.87,-140.3 2364.87,-133.3"/>
</g>
<!-- FormsModule -->
<g id="node19" class="node">
<title>FormsModule</title>
<polygon fill="#8dd3c7" stroke="black" points="3596.84,-84.8 3593.84,-88.8 3572.84,-88.8 3569.84,-84.8 3501.16,-84.8 3501.16,-48.8 3596.84,-48.8 3596.84,-84.8"/>
<text text-anchor="middle" x="3549" y="-62.6" font-family="Times,serif" font-size="14.00">FormsModule</text>
</g>
<!-- FormsModule&#45;&gt;AppModule -->
<g id="edge18" class="edge">
<title>FormsModule&#45;&gt;AppModule</title>
<path fill="none" stroke="black" d="M3549,-85.02C3549,-105.17 3549,-134.8 3549,-134.8 3549,-134.8 2364.83,-134.8 2364.83,-134.8"/>
<polygon fill="black" stroke="black" points="2364.83,-131.3 2354.83,-134.8 2364.83,-138.3 2364.83,-131.3"/>
</g>
<!-- ServiceWorkerModule.register(args) -->
<g id="node20" class="node">
<title>ServiceWorkerModule.register(args)</title>
<polygon fill="#8dd3c7" stroke="black" points="3483.41,-84.8 3480.41,-88.8 3459.41,-88.8 3456.41,-84.8 3260.59,-84.8 3260.59,-48.8 3483.41,-48.8 3483.41,-84.8"/>
<text text-anchor="middle" x="3372" y="-62.6" font-family="Times,serif" font-size="14.00">ServiceWorkerModule.register(args)</text>
</g>
<!-- ServiceWorkerModule.register(args)&#45;&gt;AppModule -->
<g id="edge19" class="edge">
<title>ServiceWorkerModule.register(args)&#45;&gt;AppModule</title>
<path fill="none" stroke="black" d="M3372,-84.91C3372,-104.14 3372,-131.8 3372,-131.8 3372,-131.8 2364.84,-131.8 2364.84,-131.8"/>
<polygon fill="black" stroke="black" points="2364.84,-128.3 2354.84,-131.8 2364.84,-135.3 2364.84,-128.3"/>
</g>
<!-- RouterModule -->
<g id="node21" class="node">
<title>RouterModule</title>
<polygon fill="#8dd3c7" stroke="black" points="3242.66,-84.8 3239.66,-88.8 3218.66,-88.8 3215.66,-84.8 3145.34,-84.8 3145.34,-48.8 3242.66,-48.8 3242.66,-84.8"/>
<text text-anchor="middle" x="3194" y="-62.6" font-family="Times,serif" font-size="14.00">RouterModule</text>
</g>
<!-- RouterModule&#45;&gt;AppModule -->
<g id="edge20" class="edge">
<title>RouterModule&#45;&gt;AppModule</title>
<path fill="none" stroke="black" d="M3194,-85.02C3194,-103.63 3194,-129.8 3194,-129.8 3194,-129.8 2364.9,-129.8 2364.9,-129.8"/>
<polygon fill="black" stroke="black" points="2364.9,-126.3 2354.9,-129.8 2364.9,-133.3 2364.9,-126.3"/>
</g>
<!-- HttpClientModule -->
<g id="node22" class="node">
<title>HttpClientModule</title>
<polygon fill="#8dd3c7" stroke="black" points="3127.16,-84.8 3124.16,-88.8 3103.16,-88.8 3100.16,-84.8 3008.84,-84.8 3008.84,-48.8 3127.16,-48.8 3127.16,-84.8"/>
<text text-anchor="middle" x="3068" y="-62.6" font-family="Times,serif" font-size="14.00">HttpClientModule</text>
</g>
<!-- HttpClientModule&#45;&gt;AppModule -->
<g id="edge21" class="edge">
<title>HttpClientModule&#45;&gt;AppModule</title>
<path fill="none" stroke="black" d="M3068,-85.1C3068,-103.07 3068,-127.8 3068,-127.8 3068,-127.8 2364.67,-127.8 2364.67,-127.8"/>
<polygon fill="black" stroke="black" points="2364.67,-124.3 2354.67,-127.8 2364.67,-131.3 2364.67,-124.3"/>
</g>
<!-- ButtonModule -->
<g id="node23" class="node">
<title>ButtonModule</title>
<polygon fill="#8dd3c7" stroke="black" points="2990.67,-84.8 2987.67,-88.8 2966.67,-88.8 2963.67,-84.8 2893.33,-84.8 2893.33,-48.8 2990.67,-48.8 2990.67,-84.8"/>
<text text-anchor="middle" x="2942" y="-62.6" font-family="Times,serif" font-size="14.00">ButtonModule</text>
</g>
<!-- ButtonModule&#45;&gt;AppModule -->
<g id="edge22" class="edge">
<title>ButtonModule&#45;&gt;AppModule</title>
<path fill="none" stroke="black" d="M2942,-84.82C2942,-102.17 2942,-125.8 2942,-125.8 2942,-125.8 2364.76,-125.8 2364.76,-125.8"/>
<polygon fill="black" stroke="black" points="2364.76,-122.3 2354.76,-125.8 2364.76,-129.3 2364.76,-122.3"/>
</g>
<!-- InputTextModule -->
<g id="node24" class="node">
<title>InputTextModule</title>
<polygon fill="#8dd3c7" stroke="black" points="2875.26,-84.8 2872.26,-88.8 2851.26,-88.8 2848.26,-84.8 2760.74,-84.8 2760.74,-48.8 2875.26,-48.8 2875.26,-84.8"/>
<text text-anchor="middle" x="2818" y="-62.6" font-family="Times,serif" font-size="14.00">InputTextModule</text>
</g>
<!-- InputTextModule&#45;&gt;AppModule -->
<g id="edge23" class="edge">
<title>InputTextModule&#45;&gt;AppModule</title>
<path fill="none" stroke="black" d="M2818,-84.83C2818,-101.2 2818,-122.8 2818,-122.8 2818,-122.8 2364.76,-122.8 2364.76,-122.8"/>
<polygon fill="black" stroke="black" points="2364.76,-119.3 2354.76,-122.8 2364.76,-126.3 2364.76,-119.3"/>
</g>
<!-- StyleClassModule -->
<g id="node25" class="node">
<title>StyleClassModule</title>
<polygon fill="#8dd3c7" stroke="black" points="2742.17,-84.8 2739.17,-88.8 2718.17,-88.8 2715.17,-84.8 2623.83,-84.8 2623.83,-48.8 2742.17,-48.8 2742.17,-84.8"/>
<text text-anchor="middle" x="2683" y="-62.6" font-family="Times,serif" font-size="14.00">StyleClassModule</text>
</g>
<!-- StyleClassModule&#45;&gt;AppModule -->
<g id="edge24" class="edge">
<title>StyleClassModule&#45;&gt;AppModule</title>
<path fill="none" stroke="black" d="M2683,-85.08C2683,-100.75 2683,-120.8 2683,-120.8 2683,-120.8 2364.72,-120.8 2364.72,-120.8"/>
<polygon fill="black" stroke="black" points="2364.72,-117.3 2354.72,-120.8 2364.72,-124.3 2364.72,-117.3"/>
</g>
<!-- MenuModule -->
<g id="node26" class="node">
<title>MenuModule</title>
<polygon fill="#8dd3c7" stroke="black" points="2606.21,-84.8 2603.21,-88.8 2582.21,-88.8 2579.21,-84.8 2513.79,-84.8 2513.79,-48.8 2606.21,-48.8 2606.21,-84.8"/>
<text text-anchor="middle" x="2560" y="-62.6" font-family="Times,serif" font-size="14.00">MenuModule</text>
</g>
<!-- MenuModule&#45;&gt;AppModule -->
<g id="edge25" class="edge">
<title>MenuModule&#45;&gt;AppModule</title>
<path fill="none" stroke="black" d="M2560,-84.99C2560,-99.98 2560,-118.8 2560,-118.8 2560,-118.8 2364.9,-118.8 2364.9,-118.8"/>
<polygon fill="black" stroke="black" points="2364.9,-115.3 2354.9,-118.8 2364.9,-122.3 2364.9,-115.3"/>
</g>
<!-- MenubarModule -->
<g id="node27" class="node">
<title>MenubarModule</title>
<polygon fill="#8dd3c7" stroke="black" points="2496.09,-84.8 2493.09,-88.8 2472.09,-88.8 2469.09,-84.8 2385.91,-84.8 2385.91,-48.8 2496.09,-48.8 2496.09,-84.8"/>
<text text-anchor="middle" x="2441" y="-62.6" font-family="Times,serif" font-size="14.00">MenubarModule</text>
</g>
<!-- MenubarModule&#45;&gt;AppModule -->
<g id="edge26" class="edge">
<title>MenubarModule&#45;&gt;AppModule</title>
<path fill="none" stroke="black" d="M2427.21,-84.85C2427.21,-99.17 2427.21,-116.8 2427.21,-116.8 2427.21,-116.8 2364.88,-116.8 2364.88,-116.8"/>
<polygon fill="black" stroke="black" points="2364.88,-113.3 2354.88,-116.8 2364.88,-120.3 2364.88,-113.3"/>
</g>
<!-- CdTimerModule -->
<g id="node28" class="node">
<title>CdTimerModule</title>
<polygon fill="#8dd3c7" stroke="black" points="2368.1,-84.8 2365.1,-88.8 2344.1,-88.8 2341.1,-84.8 2257.9,-84.8 2257.9,-48.8 2368.1,-48.8 2368.1,-84.8"/>
<text text-anchor="middle" x="2313" y="-62.6" font-family="Times,serif" font-size="14.00">CdTimerModule</text>
</g>
<!-- CdTimerModule&#45;&gt;AppModule -->
<g id="edge27" class="edge">
<title>CdTimerModule&#45;&gt;AppModule</title>
<path fill="none" stroke="black" d="M2313,-84.91C2313,-84.91 2313,-103.79 2313,-103.79"/>
<polygon fill="black" stroke="black" points="2309.5,-103.79 2313,-113.79 2316.5,-103.79 2309.5,-103.79"/>
</g>
<!-- DialogModule -->
<g id="node29" class="node">
<title>DialogModule</title>
<polygon fill="#8dd3c7" stroke="black" points="2239.66,-84.8 2236.66,-88.8 2215.66,-88.8 2212.66,-84.8 2142.34,-84.8 2142.34,-48.8 2239.66,-48.8 2239.66,-84.8"/>
<text text-anchor="middle" x="2191" y="-62.6" font-family="Times,serif" font-size="14.00">DialogModule</text>
</g>
<!-- DialogModule&#45;&gt;AppModule -->
<g id="edge28" class="edge">
<title>DialogModule&#45;&gt;AppModule</title>
<path fill="none" stroke="black" d="M2191,-84.85C2191,-99.17 2191,-116.8 2191,-116.8 2191,-116.8 2261.01,-116.8 2261.01,-116.8"/>
<polygon fill="black" stroke="black" points="2261.01,-120.3 2271.01,-116.8 2261.01,-113.3 2261.01,-120.3"/>
</g>
<!-- Convertors -->
<g id="node32" class="node">
<title>Convertors</title>
<ellipse fill="#fdb462" stroke="black" cx="4229" cy="-66.8" rx="53.9" ry="18"/>
<text text-anchor="middle" x="4229" y="-62.6" font-family="Times,serif" font-size="14.00">Convertors</text>
</g>
<!-- Convertors&#45;&gt;AppModule -->
<g id="edge31" class="edge">
<title>Convertors&#45;&gt;AppModule</title>
<path fill="none" stroke="black" d="M4229,-85.12C4229,-108.46 4229,-145.8 4229,-145.8 4229,-145.8 2364.8,-145.8 2364.8,-145.8"/>
<polygon fill="black" stroke="black" points="2364.8,-142.3 2354.8,-145.8 2364.8,-149.3 2364.8,-142.3"/>
</g>
</g>
</svg>
