<?xml version="1.0" encoding="UTF-8" standalone="no"?>
<!DOCTYPE svg PUBLIC "-//W3C//DTD SVG 1.1//EN"
 "http://www.w3.org/Graphics/SVG/1.1/DTD/svg11.dtd">
<!-- Generated by graphviz version 3.0.0 (20220226.1711)
 -->
<!-- Title: dependencies Pages: 1 -->
<svg width="1618pt" height="247pt"
 viewBox="0.00 0.00 1618.00 246.80" xmlns="http://www.w3.org/2000/svg" xmlns:xlink="http://www.w3.org/1999/xlink">
<g id="graph0" class="graph" transform="scale(1 1) rotate(0) translate(4 242.8)">
<title>dependencies</title>
<polygon fill="white" stroke="transparent" points="-4,4 -4,-242.8 1614,-242.8 1614,4 -4,4"/>
<text text-anchor="middle" x="805" y="-8.2" font-family="sans-serif" font-size="14.00">dependencies</text>
<g id="clust1" class="cluster">
<title>cluster_AppModule</title>
<polygon fill="none" stroke="black" stroke-dasharray="1,5" points="8,-32.8 8,-230.8 1602,-230.8 1602,-32.8 8,-32.8"/>
</g>
<g id="clust2" class="cluster">
<title>cluster_AppModule_declarations</title>
<polygon fill="none" stroke="black" points="409,-40.8 409,-92.8 1594,-92.8 1594,-40.8 409,-40.8"/>
</g>
<g id="clust11" class="cluster">
<title>cluster_AppModule_imports</title>
<polygon fill="none" stroke="black" points="16,-40.8 16,-92.8 401,-92.8 401,-40.8 16,-40.8"/>
</g>
<g id="clust13" class="cluster">
<title>cluster_AppModule_bootstrap</title>
<polygon fill="none" stroke="black" points="728,-170.8 728,-222.8 852,-222.8 852,-170.8 728,-170.8"/>
</g>
<!-- AppComponent -->
<g id="node1" class="node">
<title>AppComponent</title>
<polygon fill="#ffffb3" stroke="black" points="1585.94,-84.8 1480.06,-84.8 1480.06,-48.8 1585.94,-48.8 1585.94,-84.8"/>
<text text-anchor="middle" x="1533" y="-62.6" font-family="Times,serif" font-size="14.00">AppComponent</text>
</g>
<!-- AppModule -->
<g id="node9" class="node">
<title>AppModule</title>
<polygon fill="#8dd3c7" stroke="black" points="831.66,-149.8 828.66,-153.8 807.66,-153.8 804.66,-149.8 748.34,-149.8 748.34,-113.8 831.66,-113.8 831.66,-149.8"/>
<text text-anchor="middle" x="790" y="-127.6" font-family="Times,serif" font-size="14.00">AppModule</text>
</g>
<!-- AppComponent&#45;&gt;AppModule -->
<g id="edge1" class="edge">
<title>AppComponent&#45;&gt;AppModule</title>
<path fill="none" stroke="black" d="M1533,-85.05C1533,-107.82 1533,-143.8 1533,-143.8 1533,-143.8 841.81,-143.8 841.81,-143.8"/>
<polygon fill="black" stroke="black" points="841.81,-140.3 831.81,-143.8 841.81,-147.3 841.81,-140.3"/>
</g>
<!-- ChordComponent -->
<g id="node2" class="node">
<title>ChordComponent</title>
<polygon fill="#ffffb3" stroke="black" points="1462.33,-84.8 1345.67,-84.8 1345.67,-48.8 1462.33,-48.8 1462.33,-84.8"/>
<text text-anchor="middle" x="1404" y="-62.6" font-family="Times,serif" font-size="14.00">ChordComponent</text>
</g>
<!-- ChordComponent&#45;&gt;AppModule -->
<g id="edge2" class="edge">
<title>ChordComponent&#45;&gt;AppModule</title>
<path fill="none" stroke="black" d="M1404,-85.08C1404,-106.12 1404,-137.8 1404,-137.8 1404,-137.8 841.72,-137.8 841.72,-137.8"/>
<polygon fill="black" stroke="black" points="841.72,-134.3 831.72,-137.8 841.72,-141.3 841.72,-134.3"/>
</g>
<!-- FooterComponent -->
<g id="node3" class="node">
<title>FooterComponent</title>
<polygon fill="#ffffb3" stroke="black" points="1327.88,-84.8 1210.12,-84.8 1210.12,-48.8 1327.88,-48.8 1327.88,-84.8"/>
<text text-anchor="middle" x="1269" y="-62.6" font-family="Times,serif" font-size="14.00">FooterComponent</text>
</g>
<!-- FooterComponent&#45;&gt;AppModule -->
<g id="edge3" class="edge">
<title>FooterComponent&#45;&gt;AppModule</title>
<path fill="none" stroke="black" d="M1269,-84.91C1269,-104.14 1269,-131.8 1269,-131.8 1269,-131.8 841.67,-131.8 841.67,-131.8"/>
<polygon fill="black" stroke="black" points="841.67,-128.3 831.67,-131.8 841.67,-135.3 841.67,-128.3"/>
</g>
<!-- HeaderComponent -->
<g id="node4" class="node">
<title>HeaderComponent</title>
<polygon fill="#ffffb3" stroke="black" points="1191.75,-84.8 1070.25,-84.8 1070.25,-48.8 1191.75,-48.8 1191.75,-84.8"/>
<text text-anchor="middle" x="1131" y="-62.6" font-family="Times,serif" font-size="14.00">HeaderComponent</text>
</g>
<!-- HeaderComponent&#45;&gt;AppModule -->
<g id="edge4" class="edge">
<title>HeaderComponent&#45;&gt;AppModule</title>
<path fill="none" stroke="black" d="M1131,-84.82C1131,-102.17 1131,-125.8 1131,-125.8 1131,-125.8 841.81,-125.8 841.81,-125.8"/>
<polygon fill="black" stroke="black" points="841.81,-122.3 831.81,-125.8 841.81,-129.3 841.81,-122.3"/>
</g>
<!-- LandingPageComponent -->
<g id="node5" class="node">
<title>LandingPageComponent</title>
<polygon fill="#ffffb3" stroke="black" points="1052.7,-84.8 897.3,-84.8 897.3,-48.8 1052.7,-48.8 1052.7,-84.8"/>
<text text-anchor="middle" x="975" y="-62.6" font-family="Times,serif" font-size="14.00">LandingPageComponent</text>
</g>
<!-- LandingPageComponent&#45;&gt;AppModule -->
<g id="edge5" class="edge">
<title>LandingPageComponent&#45;&gt;AppModule</title>
<path fill="none" stroke="black" d="M975,-85.04C975,-100.37 975,-119.8 975,-119.8 975,-119.8 841.98,-119.8 841.98,-119.8"/>
<polygon fill="black" stroke="black" points="841.98,-116.3 831.98,-119.8 841.98,-123.3 841.98,-116.3"/>
</g>
<!-- PreviousSessionsComponent -->
<g id="node6" class="node">
<title>PreviousSessionsComponent</title>
<polygon fill="#ffffb3" stroke="black" points="879.07,-84.8 700.93,-84.8 700.93,-48.8 879.07,-48.8 879.07,-84.8"/>
<text text-anchor="middle" x="790" y="-62.6" font-family="Times,serif" font-size="14.00">PreviousSessionsComponent</text>
</g>
<!-- PreviousSessionsComponent&#45;&gt;AppModule -->
<g id="edge6" class="edge">
<title>PreviousSessionsComponent&#45;&gt;AppModule</title>
<path fill="none" stroke="black" d="M790,-84.91C790,-84.91 790,-103.79 790,-103.79"/>
<polygon fill="black" stroke="black" points="786.5,-103.79 790,-113.79 793.5,-103.79 786.5,-103.79"/>
</g>
<!-- SessionComponent -->
<g id="node7" class="node">
<title>SessionComponent</title>
<polygon fill="#ffffb3" stroke="black" points="683.12,-84.8 558.88,-84.8 558.88,-48.8 683.12,-48.8 683.12,-84.8"/>
<text text-anchor="middle" x="621" y="-62.6" font-family="Times,serif" font-size="14.00">SessionComponent</text>
</g>
<!-- SessionComponent&#45;&gt;AppModule -->
<g id="edge7" class="edge">
<title>SessionComponent&#45;&gt;AppModule</title>
<path fill="none" stroke="black" d="M621,-85.04C621,-100.37 621,-119.8 621,-119.8 621,-119.8 738.22,-119.8 738.22,-119.8"/>
<polygon fill="black" stroke="black" points="738.22,-123.3 748.22,-119.8 738.22,-116.3 738.22,-123.3"/>
</g>
<!-- SidebarComponent -->
<g id="node8" class="node">
<title>SidebarComponent</title>
<polygon fill="#ffffb3" stroke="black" points="541.1,-84.8 416.9,-84.8 416.9,-48.8 541.1,-48.8 541.1,-84.8"/>
<text text-anchor="middle" x="479" y="-62.6" font-family="Times,serif" font-size="14.00">SidebarComponent</text>
</g>
<!-- SidebarComponent&#45;&gt;AppModule -->
<g id="edge8" class="edge">
<title>SidebarComponent&#45;&gt;AppModule</title>
<path fill="none" stroke="black" d="M479,-84.82C479,-102.17 479,-125.8 479,-125.8 479,-125.8 738.06,-125.8 738.06,-125.8"/>
<polygon fill="black" stroke="black" points="738.06,-129.3 748.06,-125.8 738.06,-122.3 738.06,-129.3"/>
</g>
<!-- AppComponent  -->
<g id="node13" class="node">
<title>AppComponent </title>
<polygon fill="#80b1d3" stroke="black" points="844.44,-214.8 735.56,-214.8 735.56,-178.8 844.44,-178.8 844.44,-214.8"/>
<text text-anchor="middle" x="790" y="-192.6" font-family="Times,serif" font-size="14.00">AppComponent </text>
</g>
<!-- AppModule&#45;&gt;AppComponent  -->
<g id="edge12" class="edge">
<title>AppModule&#45;&gt;AppComponent </title>
<path fill="none" stroke="black" stroke-dasharray="1,5" d="M790,-149.91C790,-149.91 790,-168.79 790,-168.79"/>
<polygon fill="black" stroke="black" points="786.5,-168.79 790,-178.79 793.5,-168.79 786.5,-168.79"/>
</g>
<!-- AppRoutingModule -->
<g id="node10" class="node">
<title>AppRoutingModule</title>
<polygon fill="#8dd3c7" stroke="black" points="393.28,-84.8 390.28,-88.8 369.28,-88.8 366.28,-84.8 264.72,-84.8 264.72,-48.8 393.28,-48.8 393.28,-84.8"/>
<text text-anchor="middle" x="329" y="-62.6" font-family="Times,serif" font-size="14.00">AppRoutingModule</text>
</g>
<!-- AppRoutingModule&#45;&gt;AppModule -->
<g id="edge9" class="edge">
<title>AppRoutingModule&#45;&gt;AppModule</title>
<path fill="none" stroke="black" d="M329,-84.91C329,-104.14 329,-131.8 329,-131.8 329,-131.8 738.28,-131.8 738.28,-131.8"/>
<polygon fill="black" stroke="black" points="738.28,-135.3 748.28,-131.8 738.28,-128.3 738.28,-135.3"/>
</g>
<!-- SessionModule -->
<g id="node11" class="node">
<title>SessionModule</title>
<polygon fill="#8dd3c7" stroke="black" points="246.34,-84.8 243.34,-88.8 222.34,-88.8 219.34,-84.8 143.66,-84.8 143.66,-48.8 246.34,-48.8 246.34,-84.8"/>
<text text-anchor="middle" x="195" y="-62.6" font-family="Times,serif" font-size="14.00">SessionModule</text>
</g>
<!-- SessionModule&#45;&gt;AppModule -->
<g id="edge10" class="edge">
<title>SessionModule&#45;&gt;AppModule</title>
<path fill="none" stroke="black" d="M195,-85.08C195,-106.12 195,-137.8 195,-137.8 195,-137.8 738.16,-137.8 738.16,-137.8"/>
<polygon fill="black" stroke="black" points="738.16,-141.3 748.16,-137.8 738.16,-134.3 738.16,-141.3"/>
</g>
<!-- SidebarModule -->
<g id="node12" class="node">
<title>SidebarModule</title>
<polygon fill="#8dd3c7" stroke="black" points="126.32,-84.8 123.32,-88.8 102.32,-88.8 99.32,-84.8 23.68,-84.8 23.68,-48.8 126.32,-48.8 126.32,-84.8"/>
<text text-anchor="middle" x="75" y="-62.6" font-family="Times,serif" font-size="14.00">SidebarModule</text>
</g>
<!-- SidebarModule&#45;&gt;AppModule -->
<g id="edge11" class="edge">
<title>SidebarModule&#45;&gt;AppModule</title>
<path fill="none" stroke="black" d="M75,-85.05C75,-107.82 75,-143.8 75,-143.8 75,-143.8 738.21,-143.8 738.21,-143.8"/>
<polygon fill="black" stroke="black" points="738.21,-147.3 748.21,-143.8 738.21,-140.3 738.21,-147.3"/>
</g>
</g>
</svg>
