<?xml version="1.0" encoding="UTF-8" standalone="no"?>
<!DOCTYPE svg PUBLIC "-//W3C//DTD SVG 1.1//EN"
 "http://www.w3.org/Graphics/SVG/1.1/DTD/svg11.dtd">
<!-- Generated by graphviz version 5.0.0 (20220707.1540)
 -->
<!-- Title: dependencies Pages: 1 -->
<svg width="2955pt" height="247pt"
 viewBox="0.00 0.00 2955.00 246.80" xmlns="http://www.w3.org/2000/svg" xmlns:xlink="http://www.w3.org/1999/xlink">
<g id="graph0" class="graph" transform="scale(1 1) rotate(0) translate(4 242.8)">
<title>dependencies</title>
<polygon fill="white" stroke="transparent" points="-4,4 -4,-242.8 2951,-242.8 2951,4 -4,4"/>
<text text-anchor="middle" x="1473.5" y="-8.2" font-family="sans-serif" font-size="14.00">dependencies</text>
<g id="clust1" class="cluster">
<title>cluster_AppModule</title>
<polygon fill="none" stroke="black" stroke-dasharray="1,5" points="8,-32.8 8,-230.8 2939,-230.8 2939,-32.8 8,-32.8"/>
</g>
<g id="clust11" class="cluster">
<title>cluster_AppModule_bootstrap</title>
<polygon fill="none" stroke="black" points="1385,-170.8 1385,-222.8 1509,-222.8 1509,-170.8 1385,-170.8"/>
</g>
<g id="clust2" class="cluster">
<title>cluster_AppModule_declarations</title>
<polygon fill="none" stroke="black" points="2065,-40.8 2065,-92.8 2931,-92.8 2931,-40.8 2065,-40.8"/>
</g>
<g id="clust9" class="cluster">
<title>cluster_AppModule_imports</title>
<polygon fill="none" stroke="black" points="148,-40.8 148,-92.8 2057,-92.8 2057,-40.8 148,-40.8"/>
</g>
<g id="clust12" class="cluster">
<title>cluster_AppModule_providers</title>
<polygon fill="none" stroke="black" points="16,-40.8 16,-92.8 140,-92.8 140,-40.8 16,-40.8"/>
</g>
<!-- AppComponent -->
<g id="node1" class="node">
<title>AppComponent</title>
<polygon fill="#ffffb3" stroke="black" points="2922.94,-84.8 2817.06,-84.8 2817.06,-48.8 2922.94,-48.8 2922.94,-84.8"/>
<text text-anchor="middle" x="2870" y="-62.6" font-family="Times,serif" font-size="14.00">AppComponent</text>
</g>
<!-- AppModule -->
<g id="node7" class="node">
<title>AppModule</title>
<polygon fill="#8dd3c7" stroke="black" points="1488.66,-149.8 1485.66,-153.8 1464.66,-153.8 1461.66,-149.8 1405.34,-149.8 1405.34,-113.8 1488.66,-113.8 1488.66,-149.8"/>
<text text-anchor="middle" x="1447" y="-127.6" font-family="Times,serif" font-size="14.00">AppModule</text>
</g>
<!-- AppComponent&#45;&gt;AppModule -->
<g id="edge1" class="edge">
<title>AppComponent&#45;&gt;AppModule</title>
<path fill="none" stroke="black" d="M2870,-84.95C2870,-108.56 2870,-146.8 2870,-146.8 2870,-146.8 1498.82,-146.8 1498.82,-146.8"/>
<polygon fill="black" stroke="black" points="1498.82,-143.3 1488.82,-146.8 1498.82,-150.3 1498.82,-143.3"/>
</g>
<!-- LandingPageComponent -->
<g id="node2" class="node">
<title>LandingPageComponent</title>
<polygon fill="#ffffb3" stroke="black" points="2799.7,-84.8 2644.3,-84.8 2644.3,-48.8 2799.7,-48.8 2799.7,-84.8"/>
<text text-anchor="middle" x="2722" y="-62.6" font-family="Times,serif" font-size="14.00">LandingPageComponent</text>
</g>
<!-- LandingPageComponent&#45;&gt;AppModule -->
<g id="edge2" class="edge">
<title>LandingPageComponent&#45;&gt;AppModule</title>
<path fill="none" stroke="black" d="M2722,-85.05C2722,-107.82 2722,-143.8 2722,-143.8 2722,-143.8 1498.7,-143.8 1498.7,-143.8"/>
<polygon fill="black" stroke="black" points="1498.7,-140.3 1488.7,-143.8 1498.7,-147.3 1498.7,-140.3"/>
</g>
<!-- HeaderComponent -->
<g id="node3" class="node">
<title>HeaderComponent</title>
<polygon fill="#ffffb3" stroke="black" points="2626.75,-84.8 2505.25,-84.8 2505.25,-48.8 2626.75,-48.8 2626.75,-84.8"/>
<text text-anchor="middle" x="2566" y="-62.6" font-family="Times,serif" font-size="14.00">HeaderComponent</text>
</g>
<!-- HeaderComponent&#45;&gt;AppModule -->
<g id="edge3" class="edge">
<title>HeaderComponent&#45;&gt;AppModule</title>
<path fill="none" stroke="black" d="M2566,-85.09C2566,-107.01 2566,-140.8 2566,-140.8 2566,-140.8 1498.82,-140.8 1498.82,-140.8"/>
<polygon fill="black" stroke="black" points="1498.82,-137.3 1488.82,-140.8 1498.82,-144.3 1498.82,-137.3"/>
</g>
<!-- FooterComponent -->
<g id="node4" class="node">
<title>FooterComponent</title>
<polygon fill="#ffffb3" stroke="black" points="2486.88,-84.8 2369.12,-84.8 2369.12,-48.8 2486.88,-48.8 2486.88,-84.8"/>
<text text-anchor="middle" x="2428" y="-62.6" font-family="Times,serif" font-size="14.00">FooterComponent</text>
</g>
<!-- FooterComponent&#45;&gt;AppModule -->
<g id="edge4" class="edge">
<title>FooterComponent&#45;&gt;AppModule</title>
<path fill="none" stroke="black" d="M2428,-84.83C2428,-105.57 2428,-136.8 2428,-136.8 2428,-136.8 1498.84,-136.8 1498.84,-136.8"/>
<polygon fill="black" stroke="black" points="1498.84,-133.3 1488.84,-136.8 1498.84,-140.3 1498.84,-133.3"/>
</g>
<!-- NavigationComponent -->
<g id="node5" class="node">
<title>NavigationComponent</title>
<polygon fill="#ffffb3" stroke="black" points="2350.54,-84.8 2207.46,-84.8 2207.46,-48.8 2350.54,-48.8 2350.54,-84.8"/>
<text text-anchor="middle" x="2279" y="-62.6" font-family="Times,serif" font-size="14.00">NavigationComponent</text>
</g>
<!-- NavigationComponent&#45;&gt;AppModule -->
<g id="edge5" class="edge">
<title>NavigationComponent&#45;&gt;AppModule</title>
<path fill="none" stroke="black" d="M2279,-85.11C2279,-104.95 2279,-133.8 2279,-133.8 2279,-133.8 1498.83,-133.8 1498.83,-133.8"/>
<polygon fill="black" stroke="black" points="1498.83,-130.3 1488.83,-133.8 1498.83,-137.3 1498.83,-130.3"/>
</g>
<!-- ChordComponent -->
<g id="node6" class="node">
<title>ChordComponent</title>
<polygon fill="#ffffb3" stroke="black" points="2189.33,-84.8 2072.67,-84.8 2072.67,-48.8 2189.33,-48.8 2189.33,-84.8"/>
<text text-anchor="middle" x="2131" y="-62.6" font-family="Times,serif" font-size="14.00">ChordComponent</text>
</g>
<!-- ChordComponent&#45;&gt;AppModule -->
<g id="edge6" class="edge">
<title>ChordComponent&#45;&gt;AppModule</title>
<path fill="none" stroke="black" d="M2131,-84.97C2131,-103.89 2131,-130.8 2131,-130.8 2131,-130.8 1498.76,-130.8 1498.76,-130.8"/>
<polygon fill="black" stroke="black" points="1498.76,-127.3 1488.76,-130.8 1498.76,-134.3 1498.76,-127.3"/>
</g>
<!-- AppComponent  -->
<g id="node22" class="node">
<title>AppComponent </title>
<polygon fill="#80b1d3" stroke="black" points="1501.44,-214.8 1392.56,-214.8 1392.56,-178.8 1501.44,-178.8 1501.44,-214.8"/>
<text text-anchor="middle" x="1447" y="-192.6" font-family="Times,serif" font-size="14.00">AppComponent </text>
</g>
<!-- AppModule&#45;&gt;AppComponent  -->
<g id="edge21" class="edge">
<title>AppModule&#45;&gt;AppComponent </title>
<path fill="none" stroke="black" stroke-dasharray="1,5" d="M1447,-149.91C1447,-149.91 1447,-168.79 1447,-168.79"/>
<polygon fill="black" stroke="black" points="1443.5,-168.79 1447,-178.79 1450.5,-168.79 1443.5,-168.79"/>
</g>
<!-- BrowserModule -->
<g id="node8" class="node">
<title>BrowserModule</title>
<polygon fill="#8dd3c7" stroke="black" points="2049.49,-84.8 2046.49,-88.8 2025.49,-88.8 2022.49,-84.8 1942.51,-84.8 1942.51,-48.8 2049.49,-48.8 2049.49,-84.8"/>
<text text-anchor="middle" x="1996" y="-62.6" font-family="Times,serif" font-size="14.00">BrowserModule</text>
</g>
<!-- BrowserModule&#45;&gt;AppModule -->
<g id="edge7" class="edge">
<title>BrowserModule&#45;&gt;AppModule</title>
<path fill="none" stroke="black" d="M1996,-85.1C1996,-103.07 1996,-127.8 1996,-127.8 1996,-127.8 1498.71,-127.8 1498.71,-127.8"/>
<polygon fill="black" stroke="black" points="1498.71,-124.3 1488.71,-127.8 1498.71,-131.3 1498.71,-124.3"/>
</g>
<!-- AppRoutingModule -->
<g id="node9" class="node">
<title>AppRoutingModule</title>
<polygon fill="#8dd3c7" stroke="black" points="1924.28,-84.8 1921.28,-88.8 1900.28,-88.8 1897.28,-84.8 1795.72,-84.8 1795.72,-48.8 1924.28,-48.8 1924.28,-84.8"/>
<text text-anchor="middle" x="1860" y="-62.6" font-family="Times,serif" font-size="14.00">AppRoutingModule</text>
</g>
<!-- AppRoutingModule&#45;&gt;AppModule -->
<g id="edge8" class="edge">
<title>AppRoutingModule&#45;&gt;AppModule</title>
<path fill="none" stroke="black" d="M1860,-84.84C1860,-101.53 1860,-123.8 1860,-123.8 1860,-123.8 1498.87,-123.8 1498.87,-123.8"/>
<polygon fill="black" stroke="black" points="1498.87,-120.3 1488.87,-123.8 1498.87,-127.3 1498.87,-120.3"/>
</g>
<!-- SessionModule -->
<g id="node10" class="node">
<title>SessionModule</title>
<polygon fill="#8dd3c7" stroke="black" points="1777.34,-84.8 1774.34,-88.8 1753.34,-88.8 1750.34,-84.8 1674.66,-84.8 1674.66,-48.8 1777.34,-48.8 1777.34,-84.8"/>
<text text-anchor="middle" x="1726" y="-62.6" font-family="Times,serif" font-size="14.00">SessionModule</text>
</g>
<!-- SessionModule&#45;&gt;AppModule -->
<g id="edge9" class="edge">
<title>SessionModule&#45;&gt;AppModule</title>
<path fill="none" stroke="black" d="M1726,-85.08C1726,-100.75 1726,-120.8 1726,-120.8 1726,-120.8 1498.77,-120.8 1498.77,-120.8"/>
<polygon fill="black" stroke="black" points="1498.77,-117.3 1488.77,-120.8 1498.77,-124.3 1498.77,-117.3"/>
</g>
<!-- ReactiveFormsModule -->
<g id="node11" class="node">
<title>ReactiveFormsModule</title>
<polygon fill="#8dd3c7" stroke="black" points="1657.31,-84.8 1654.31,-88.8 1633.31,-88.8 1630.31,-84.8 1512.69,-84.8 1512.69,-48.8 1657.31,-48.8 1657.31,-84.8"/>
<text text-anchor="middle" x="1585" y="-62.6" font-family="Times,serif" font-size="14.00">ReactiveFormsModule</text>
</g>
<!-- ReactiveFormsModule&#45;&gt;AppModule -->
<g id="edge10" class="edge">
<title>ReactiveFormsModule&#45;&gt;AppModule</title>
<path fill="none" stroke="black" d="M1585,-84.92C1585,-99.58 1585,-117.8 1585,-117.8 1585,-117.8 1498.78,-117.8 1498.78,-117.8"/>
<polygon fill="black" stroke="black" points="1498.78,-114.3 1488.78,-117.8 1498.78,-121.3 1498.78,-114.3"/>
</g>
<!-- FormsModule -->
<g id="node12" class="node">
<title>FormsModule</title>
<polygon fill="#8dd3c7" stroke="black" points="1494.84,-84.8 1491.84,-88.8 1470.84,-88.8 1467.84,-84.8 1399.16,-84.8 1399.16,-48.8 1494.84,-48.8 1494.84,-84.8"/>
<text text-anchor="middle" x="1447" y="-62.6" font-family="Times,serif" font-size="14.00">FormsModule</text>
</g>
<!-- FormsModule&#45;&gt;AppModule -->
<g id="edge11" class="edge">
<title>FormsModule&#45;&gt;AppModule</title>
<path fill="none" stroke="black" d="M1447,-84.91C1447,-84.91 1447,-103.79 1447,-103.79"/>
<polygon fill="black" stroke="black" points="1443.5,-103.79 1447,-113.79 1450.5,-103.79 1443.5,-103.79"/>
</g>
<!-- ServiceWorkerModule.register(args) -->
<g id="node13" class="node">
<title>ServiceWorkerModule.register(args)</title>
<polygon fill="#8dd3c7" stroke="black" points="1381.41,-84.8 1378.41,-88.8 1357.41,-88.8 1354.41,-84.8 1158.59,-84.8 1158.59,-48.8 1381.41,-48.8 1381.41,-84.8"/>
<text text-anchor="middle" x="1270" y="-62.6" font-family="Times,serif" font-size="14.00">ServiceWorkerModule.register(args)</text>
</g>
<!-- ServiceWorkerModule.register(args)&#45;&gt;AppModule -->
<g id="edge12" class="edge">
<title>ServiceWorkerModule.register(args)&#45;&gt;AppModule</title>
<path fill="none" stroke="black" d="M1270,-84.92C1270,-99.58 1270,-117.8 1270,-117.8 1270,-117.8 1395.05,-117.8 1395.05,-117.8"/>
<polygon fill="black" stroke="black" points="1395.05,-121.3 1405.05,-117.8 1395.05,-114.3 1395.05,-121.3"/>
</g>
<!-- RouterModule -->
<g id="node14" class="node">
<title>RouterModule</title>
<polygon fill="#8dd3c7" stroke="black" points="1140.66,-84.8 1137.66,-88.8 1116.66,-88.8 1113.66,-84.8 1043.34,-84.8 1043.34,-48.8 1140.66,-48.8 1140.66,-84.8"/>
<text text-anchor="middle" x="1092" y="-62.6" font-family="Times,serif" font-size="14.00">RouterModule</text>
</g>
<!-- RouterModule&#45;&gt;AppModule -->
<g id="edge13" class="edge">
<title>RouterModule&#45;&gt;AppModule</title>
<path fill="none" stroke="black" d="M1092,-85.08C1092,-100.75 1092,-120.8 1092,-120.8 1092,-120.8 1395.23,-120.8 1395.23,-120.8"/>
<polygon fill="black" stroke="black" points="1395.23,-124.3 1405.23,-120.8 1395.23,-117.3 1395.23,-124.3"/>
</g>
<!-- HttpClientModule -->
<g id="node15" class="node">
<title>HttpClientModule</title>
<polygon fill="#8dd3c7" stroke="black" points="1025.16,-84.8 1022.16,-88.8 1001.16,-88.8 998.16,-84.8 906.84,-84.8 906.84,-48.8 1025.16,-48.8 1025.16,-84.8"/>
<text text-anchor="middle" x="966" y="-62.6" font-family="Times,serif" font-size="14.00">HttpClientModule</text>
</g>
<!-- HttpClientModule&#45;&gt;AppModule -->
<g id="edge14" class="edge">
<title>HttpClientModule&#45;&gt;AppModule</title>
<path fill="none" stroke="black" d="M966,-84.84C966,-101.53 966,-123.8 966,-123.8 966,-123.8 1395.16,-123.8 1395.16,-123.8"/>
<polygon fill="black" stroke="black" points="1395.16,-127.3 1405.16,-123.8 1395.16,-120.3 1395.16,-127.3"/>
</g>
<!-- ButtonModule -->
<g id="node16" class="node">
<title>ButtonModule</title>
<polygon fill="#8dd3c7" stroke="black" points="888.67,-84.8 885.67,-88.8 864.67,-88.8 861.67,-84.8 791.33,-84.8 791.33,-48.8 888.67,-48.8 888.67,-84.8"/>
<text text-anchor="middle" x="840" y="-62.6" font-family="Times,serif" font-size="14.00">ButtonModule</text>
</g>
<!-- ButtonModule&#45;&gt;AppModule -->
<g id="edge15" class="edge">
<title>ButtonModule&#45;&gt;AppModule</title>
<path fill="none" stroke="black" d="M840,-85.1C840,-103.07 840,-127.8 840,-127.8 840,-127.8 1395.28,-127.8 1395.28,-127.8"/>
<polygon fill="black" stroke="black" points="1395.28,-131.3 1405.28,-127.8 1395.28,-124.3 1395.28,-131.3"/>
</g>
<!-- InputTextModule -->
<g id="node17" class="node">
<title>InputTextModule</title>
<polygon fill="#8dd3c7" stroke="black" points="773.26,-84.8 770.26,-88.8 749.26,-88.8 746.26,-84.8 658.74,-84.8 658.74,-48.8 773.26,-48.8 773.26,-84.8"/>
<text text-anchor="middle" x="716" y="-62.6" font-family="Times,serif" font-size="14.00">InputTextModule</text>
</g>
<!-- InputTextModule&#45;&gt;AppModule -->
<g id="edge16" class="edge">
<title>InputTextModule&#45;&gt;AppModule</title>
<path fill="none" stroke="black" d="M716,-84.97C716,-103.89 716,-130.8 716,-130.8 716,-130.8 1395.07,-130.8 1395.07,-130.8"/>
<polygon fill="black" stroke="black" points="1395.07,-134.3 1405.07,-130.8 1395.07,-127.3 1395.07,-134.3"/>
</g>
<!-- StyleClassModule -->
<g id="node18" class="node">
<title>StyleClassModule</title>
<polygon fill="#8dd3c7" stroke="black" points="640.17,-84.8 637.17,-88.8 616.17,-88.8 613.17,-84.8 521.83,-84.8 521.83,-48.8 640.17,-48.8 640.17,-84.8"/>
<text text-anchor="middle" x="581" y="-62.6" font-family="Times,serif" font-size="14.00">StyleClassModule</text>
</g>
<!-- StyleClassModule&#45;&gt;AppModule -->
<g id="edge17" class="edge">
<title>StyleClassModule&#45;&gt;AppModule</title>
<path fill="none" stroke="black" d="M581,-85.11C581,-104.95 581,-133.8 581,-133.8 581,-133.8 1395.23,-133.8 1395.23,-133.8"/>
<polygon fill="black" stroke="black" points="1395.23,-137.3 1405.23,-133.8 1395.23,-130.3 1395.23,-137.3"/>
</g>
<!-- MenuModule -->
<g id="node19" class="node">
<title>MenuModule</title>
<polygon fill="#8dd3c7" stroke="black" points="504.21,-84.8 501.21,-88.8 480.21,-88.8 477.21,-84.8 411.79,-84.8 411.79,-48.8 504.21,-48.8 504.21,-84.8"/>
<text text-anchor="middle" x="458" y="-62.6" font-family="Times,serif" font-size="14.00">MenuModule</text>
</g>
<!-- MenuModule&#45;&gt;AppModule -->
<g id="edge18" class="edge">
<title>MenuModule&#45;&gt;AppModule</title>
<path fill="none" stroke="black" d="M458,-84.83C458,-105.57 458,-136.8 458,-136.8 458,-136.8 1395.14,-136.8 1395.14,-136.8"/>
<polygon fill="black" stroke="black" points="1395.14,-140.3 1405.14,-136.8 1395.14,-133.3 1395.14,-140.3"/>
</g>
<!-- MenubarModule -->
<g id="node20" class="node">
<title>MenubarModule</title>
<polygon fill="#8dd3c7" stroke="black" points="394.09,-84.8 391.09,-88.8 370.09,-88.8 367.09,-84.8 283.91,-84.8 283.91,-48.8 394.09,-48.8 394.09,-84.8"/>
<text text-anchor="middle" x="339" y="-62.6" font-family="Times,serif" font-size="14.00">MenubarModule</text>
</g>
<!-- MenubarModule&#45;&gt;AppModule -->
<g id="edge19" class="edge">
<title>MenubarModule&#45;&gt;AppModule</title>
<path fill="none" stroke="black" d="M339,-85.09C339,-107.01 339,-140.8 339,-140.8 339,-140.8 1395.25,-140.8 1395.25,-140.8"/>
<polygon fill="black" stroke="black" points="1395.25,-144.3 1405.25,-140.8 1395.25,-137.3 1395.25,-144.3"/>
</g>
<!-- CdTimerModule -->
<g id="node21" class="node">
<title>CdTimerModule</title>
<polygon fill="#8dd3c7" stroke="black" points="266.1,-84.8 263.1,-88.8 242.1,-88.8 239.1,-84.8 155.9,-84.8 155.9,-48.8 266.1,-48.8 266.1,-84.8"/>
<text text-anchor="middle" x="211" y="-62.6" font-family="Times,serif" font-size="14.00">CdTimerModule</text>
</g>
<!-- CdTimerModule&#45;&gt;AppModule -->
<g id="edge20" class="edge">
<title>CdTimerModule&#45;&gt;AppModule</title>
<path fill="none" stroke="black" d="M211,-85.05C211,-107.82 211,-143.8 211,-143.8 211,-143.8 1395.17,-143.8 1395.17,-143.8"/>
<polygon fill="black" stroke="black" points="1395.17,-147.3 1405.17,-143.8 1395.17,-140.3 1395.17,-147.3"/>
</g>
<!-- Convertors -->
<g id="node23" class="node">
<title>Convertors</title>
<ellipse fill="#fdb462" stroke="black" cx="78" cy="-66.8" rx="53.9" ry="18"/>
<text text-anchor="middle" x="78" y="-62.6" font-family="Times,serif" font-size="14.00">Convertors</text>
</g>
<!-- Convertors&#45;&gt;AppModule -->
<g id="edge22" class="edge">
<title>Convertors&#45;&gt;AppModule</title>
<path fill="none" stroke="black" d="M78,-84.95C78,-108.56 78,-146.8 78,-146.8 78,-146.8 1395.28,-146.8 1395.28,-146.8"/>
<polygon fill="black" stroke="black" points="1395.28,-150.3 1405.28,-146.8 1395.28,-143.3 1395.28,-150.3"/>
</g>
</g>
</svg>
