<?xml version="1.0" encoding="UTF-8" standalone="no"?>
<!DOCTYPE svg PUBLIC "-//W3C//DTD SVG 1.1//EN"
 "http://www.w3.org/Graphics/SVG/1.1/DTD/svg11.dtd">
<!-- Generated by graphviz version 5.0.0 (20220707.1540)
 -->
<!-- Title: dependencies Pages: 1 -->
<svg width="3995pt" height="247pt"
 viewBox="0.00 0.00 3995.00 246.80" xmlns="http://www.w3.org/2000/svg" xmlns:xlink="http://www.w3.org/1999/xlink">
<g id="graph0" class="graph" transform="scale(1 1) rotate(0) translate(4 242.8)">
<title>dependencies</title>
<polygon fill="white" stroke="transparent" points="-4,4 -4,-242.8 3991,-242.8 3991,4 -4,4"/>
<text text-anchor="middle" x="1993.5" y="-8.2" font-family="sans-serif" font-size="14.00">dependencies</text>
<g id="clust1" class="cluster">
<title>cluster_AppModule</title>
<polygon fill="none" stroke="black" stroke-dasharray="1,5" points="8,-32.8 8,-230.8 3979,-230.8 3979,-32.8 8,-32.8"/>
</g>
<g id="clust2" class="cluster">
<title>cluster_AppModule_declarations</title>
<polygon fill="none" stroke="black" points="2350,-40.8 2350,-92.8 3971,-92.8 3971,-40.8 2350,-40.8"/>
</g>
<g id="clust17" class="cluster">
<title>cluster_AppModule_providers</title>
<polygon fill="none" stroke="black" points="2218,-40.8 2218,-92.8 2342,-92.8 2342,-40.8 2218,-40.8"/>
</g>
<g id="clust14" class="cluster">
<title>cluster_AppModule_imports</title>
<polygon fill="none" stroke="black" points="16,-40.8 16,-92.8 2210,-92.8 2210,-40.8 16,-40.8"/>
</g>
<g id="clust16" class="cluster">
<title>cluster_AppModule_bootstrap</title>
<polygon fill="none" stroke="black" points="1844,-170.8 1844,-222.8 1968,-222.8 1968,-170.8 1844,-170.8"/>
</g>
<!-- AppComponent -->
<g id="node1" class="node">
<title>AppComponent</title>
<polygon fill="#ffffb3" stroke="black" points="3962.94,-84.8 3857.06,-84.8 3857.06,-48.8 3962.94,-48.8 3962.94,-84.8"/>
<text text-anchor="middle" x="3910" y="-62.6" font-family="Times,serif" font-size="14.00">AppComponent</text>
</g>
<!-- AppModule -->
<g id="node12" class="node">
<title>AppModule</title>
<polygon fill="#8dd3c7" stroke="black" points="1947.66,-149.8 1944.66,-153.8 1923.66,-153.8 1920.66,-149.8 1864.34,-149.8 1864.34,-113.8 1947.66,-113.8 1947.66,-149.8"/>
<text text-anchor="middle" x="1906" y="-127.6" font-family="Times,serif" font-size="14.00">AppModule</text>
</g>
<!-- AppComponent&#45;&gt;AppModule -->
<g id="edge1" class="edge">
<title>AppComponent&#45;&gt;AppModule</title>
<path fill="none" stroke="black" d="M3910,-85.18C3910,-109.08 3910,-147.8 3910,-147.8 3910,-147.8 1957.86,-147.8 1957.86,-147.8"/>
<polygon fill="black" stroke="black" points="1957.86,-144.3 1947.86,-147.8 1957.86,-151.3 1957.86,-144.3"/>
</g>
<!-- LandingPageComponent -->
<g id="node2" class="node">
<title>LandingPageComponent</title>
<polygon fill="#ffffb3" stroke="black" points="3839.7,-84.8 3684.3,-84.8 3684.3,-48.8 3839.7,-48.8 3839.7,-84.8"/>
<text text-anchor="middle" x="3762" y="-62.6" font-family="Times,serif" font-size="14.00">LandingPageComponent</text>
</g>
<!-- LandingPageComponent&#45;&gt;AppModule -->
<g id="edge2" class="edge">
<title>LandingPageComponent&#45;&gt;AppModule</title>
<path fill="none" stroke="black" d="M3762,-84.89C3762,-107.93 3762,-144.8 3762,-144.8 3762,-144.8 1957.81,-144.8 1957.81,-144.8"/>
<polygon fill="black" stroke="black" points="1957.81,-141.3 1947.81,-144.8 1957.81,-148.3 1957.81,-141.3"/>
</g>
<!-- HeaderComponent -->
<g id="node3" class="node">
<title>HeaderComponent</title>
<polygon fill="#ffffb3" stroke="black" points="3666.75,-84.8 3545.25,-84.8 3545.25,-48.8 3666.75,-48.8 3666.75,-84.8"/>
<text text-anchor="middle" x="3606" y="-62.6" font-family="Times,serif" font-size="14.00">HeaderComponent</text>
</g>
<!-- HeaderComponent&#45;&gt;AppModule -->
<g id="edge3" class="edge">
<title>HeaderComponent&#45;&gt;AppModule</title>
<path fill="none" stroke="black" d="M3606,-84.81C3606,-107.29 3606,-142.8 3606,-142.8 3606,-142.8 1958.02,-142.8 1958.02,-142.8"/>
<polygon fill="black" stroke="black" points="1958.02,-139.3 1948.02,-142.8 1958.02,-146.3 1958.02,-139.3"/>
</g>
<!-- FooterComponent -->
<g id="node4" class="node">
<title>FooterComponent</title>
<polygon fill="#ffffb3" stroke="black" points="3526.88,-84.8 3409.12,-84.8 3409.12,-48.8 3526.88,-48.8 3526.88,-84.8"/>
<text text-anchor="middle" x="3468" y="-62.6" font-family="Times,serif" font-size="14.00">FooterComponent</text>
</g>
<!-- FooterComponent&#45;&gt;AppModule -->
<g id="edge4" class="edge">
<title>FooterComponent&#45;&gt;AppModule</title>
<path fill="none" stroke="black" d="M3468,-84.84C3468,-106.46 3468,-139.8 3468,-139.8 3468,-139.8 1957.78,-139.8 1957.78,-139.8"/>
<polygon fill="black" stroke="black" points="1957.78,-136.3 1947.78,-139.8 1957.78,-143.3 1957.78,-136.3"/>
</g>
<!-- NavigationComponent -->
<g id="node5" class="node">
<title>NavigationComponent</title>
<polygon fill="#ffffb3" stroke="black" points="3390.54,-84.8 3247.46,-84.8 3247.46,-48.8 3390.54,-48.8 3390.54,-84.8"/>
<text text-anchor="middle" x="3319" y="-62.6" font-family="Times,serif" font-size="14.00">NavigationComponent</text>
</g>
<!-- NavigationComponent&#45;&gt;AppModule -->
<g id="edge5" class="edge">
<title>NavigationComponent&#45;&gt;AppModule</title>
<path fill="none" stroke="black" d="M3319,-85.08C3319,-106.12 3319,-137.8 3319,-137.8 3319,-137.8 1957.9,-137.8 1957.9,-137.8"/>
<polygon fill="black" stroke="black" points="1957.9,-134.3 1947.9,-137.8 1957.9,-141.3 1957.9,-134.3"/>
</g>
<!-- ChordComponent -->
<g id="node6" class="node">
<title>ChordComponent</title>
<polygon fill="#ffffb3" stroke="black" points="3229.33,-84.8 3112.67,-84.8 3112.67,-48.8 3229.33,-48.8 3229.33,-84.8"/>
<text text-anchor="middle" x="3171" y="-62.6" font-family="Times,serif" font-size="14.00">ChordComponent</text>
</g>
<!-- ChordComponent&#45;&gt;AppModule -->
<g id="edge6" class="edge">
<title>ChordComponent&#45;&gt;AppModule</title>
<path fill="none" stroke="black" d="M3171,-85.02C3171,-105.17 3171,-134.8 3171,-134.8 3171,-134.8 1957.73,-134.8 1957.73,-134.8"/>
<polygon fill="black" stroke="black" points="1957.73,-131.3 1947.73,-134.8 1957.73,-138.3 1957.73,-131.3"/>
</g>
<!-- ExercisesComponent -->
<g id="node7" class="node">
<title>ExercisesComponent</title>
<polygon fill="#ffffb3" stroke="black" points="3094.47,-84.8 2959.53,-84.8 2959.53,-48.8 3094.47,-48.8 3094.47,-84.8"/>
<text text-anchor="middle" x="3027" y="-62.6" font-family="Times,serif" font-size="14.00">ExercisesComponent</text>
</g>
<!-- ExercisesComponent&#45;&gt;AppModule -->
<g id="edge7" class="edge">
<title>ExercisesComponent&#45;&gt;AppModule</title>
<path fill="none" stroke="black" d="M3027,-84.91C3027,-104.14 3027,-131.8 3027,-131.8 3027,-131.8 1957.9,-131.8 1957.9,-131.8"/>
<polygon fill="black" stroke="black" points="1957.9,-128.3 1947.9,-131.8 1957.9,-135.3 1957.9,-128.3"/>
</g>
<!-- AuthComponent -->
<g id="node8" class="node">
<title>AuthComponent</title>
<polygon fill="#ffffb3" stroke="black" points="2941.83,-84.8 2832.17,-84.8 2832.17,-48.8 2941.83,-48.8 2941.83,-84.8"/>
<text text-anchor="middle" x="2887" y="-62.6" font-family="Times,serif" font-size="14.00">AuthComponent</text>
</g>
<!-- AuthComponent&#45;&gt;AppModule -->
<g id="edge8" class="edge">
<title>AuthComponent&#45;&gt;AppModule</title>
<path fill="none" stroke="black" d="M2887,-85.02C2887,-103.63 2887,-129.8 2887,-129.8 2887,-129.8 1957.84,-129.8 1957.84,-129.8"/>
<polygon fill="black" stroke="black" points="1957.84,-126.3 1947.84,-129.8 1957.84,-133.3 1957.84,-126.3"/>
</g>
<!-- MetronomeComponent -->
<g id="node9" class="node">
<title>MetronomeComponent</title>
<polygon fill="#ffffb3" stroke="black" points="2814.15,-84.8 2667.85,-84.8 2667.85,-48.8 2814.15,-48.8 2814.15,-84.8"/>
<text text-anchor="middle" x="2741" y="-62.6" font-family="Times,serif" font-size="14.00">MetronomeComponent</text>
</g>
<!-- MetronomeComponent&#45;&gt;AppModule -->
<g id="edge9" class="edge">
<title>MetronomeComponent&#45;&gt;AppModule</title>
<path fill="none" stroke="black" d="M2741,-84.8C2741,-102.48 2741,-126.8 2741,-126.8 2741,-126.8 1957.69,-126.8 1957.69,-126.8"/>
<polygon fill="black" stroke="black" points="1957.69,-123.3 1947.69,-126.8 1957.69,-130.3 1957.69,-123.3"/>
</g>
<!-- SongLibraryComponent -->
<g id="node10" class="node">
<title>SongLibraryComponent</title>
<polygon fill="#ffffb3" stroke="black" points="2650.1,-84.8 2497.9,-84.8 2497.9,-48.8 2650.1,-48.8 2650.1,-84.8"/>
<text text-anchor="middle" x="2574" y="-62.6" font-family="Times,serif" font-size="14.00">SongLibraryComponent</text>
</g>
<!-- SongLibraryComponent&#45;&gt;AppModule -->
<g id="edge10" class="edge">
<title>SongLibraryComponent&#45;&gt;AppModule</title>
<path fill="none" stroke="black" d="M2574,-84.83C2574,-101.86 2574,-124.8 2574,-124.8 2574,-124.8 1957.79,-124.8 1957.79,-124.8"/>
<polygon fill="black" stroke="black" points="1957.79,-121.3 1947.79,-124.8 1957.79,-128.3 1957.79,-121.3"/>
</g>
<!-- UploadComponent -->
<g id="node11" class="node">
<title>UploadComponent</title>
<polygon fill="#ffffb3" stroke="black" points="2480.05,-84.8 2357.95,-84.8 2357.95,-48.8 2480.05,-48.8 2480.05,-84.8"/>
<text text-anchor="middle" x="2419" y="-62.6" font-family="Times,serif" font-size="14.00">UploadComponent</text>
</g>
<!-- UploadComponent&#45;&gt;AppModule -->
<g id="edge11" class="edge">
<title>UploadComponent&#45;&gt;AppModule</title>
<path fill="none" stroke="black" d="M2419,-84.81C2419,-100.85 2419,-121.8 2419,-121.8 2419,-121.8 1957.98,-121.8 1957.98,-121.8"/>
<polygon fill="black" stroke="black" points="1957.98,-118.3 1947.98,-121.8 1957.98,-125.3 1957.98,-118.3"/>
</g>
<!-- AppComponent  -->
<g id="node29" class="node">
<title>AppComponent </title>
<polygon fill="#80b1d3" stroke="black" points="1960.44,-214.8 1851.56,-214.8 1851.56,-178.8 1960.44,-178.8 1960.44,-214.8"/>
<text text-anchor="middle" x="1906" y="-192.6" font-family="Times,serif" font-size="14.00">AppComponent </text>
</g>
<!-- AppModule&#45;&gt;AppComponent  -->
<g id="edge28" class="edge">
<title>AppModule&#45;&gt;AppComponent </title>
<path fill="none" stroke="black" stroke-dasharray="1,5" d="M1906,-149.91C1906,-149.91 1906,-168.79 1906,-168.79"/>
<polygon fill="black" stroke="black" points="1902.5,-168.79 1906,-178.79 1909.5,-168.79 1902.5,-168.79"/>
</g>
<!-- BrowserModule -->
<g id="node13" class="node">
<title>BrowserModule</title>
<polygon fill="#8dd3c7" stroke="black" points="2202.49,-84.8 2199.49,-88.8 2178.49,-88.8 2175.49,-84.8 2095.51,-84.8 2095.51,-48.8 2202.49,-48.8 2202.49,-84.8"/>
<text text-anchor="middle" x="2149" y="-62.6" font-family="Times,serif" font-size="14.00">BrowserModule</text>
</g>
<!-- BrowserModule&#45;&gt;AppModule -->
<g id="edge12" class="edge">
<title>BrowserModule&#45;&gt;AppModule</title>
<path fill="none" stroke="black" d="M2149,-84.85C2149,-99.17 2149,-116.8 2149,-116.8 2149,-116.8 1957.77,-116.8 1957.77,-116.8"/>
<polygon fill="black" stroke="black" points="1957.77,-113.3 1947.77,-116.8 1957.77,-120.3 1957.77,-113.3"/>
</g>
<!-- BrowserAnimationsModule -->
<g id="node14" class="node">
<title>BrowserAnimationsModule</title>
<polygon fill="#8dd3c7" stroke="black" points="2077.32,-84.8 2074.32,-88.8 2053.32,-88.8 2050.32,-84.8 1904.68,-84.8 1904.68,-48.8 2077.32,-48.8 2077.32,-84.8"/>
<text text-anchor="middle" x="1991" y="-62.6" font-family="Times,serif" font-size="14.00">BrowserAnimationsModule</text>
</g>
<!-- BrowserAnimationsModule&#45;&gt;AppModule -->
<g id="edge13" class="edge">
<title>BrowserAnimationsModule&#45;&gt;AppModule</title>
<path fill="none" stroke="black" d="M1926.34,-84.91C1926.34,-84.91 1926.34,-103.79 1926.34,-103.79"/>
<polygon fill="black" stroke="black" points="1922.84,-103.79 1926.34,-113.79 1929.84,-103.79 1922.84,-103.79"/>
</g>
<!-- AppRoutingModule -->
<g id="node15" class="node">
<title>AppRoutingModule</title>
<polygon fill="#8dd3c7" stroke="black" points="1886.28,-84.8 1883.28,-88.8 1862.28,-88.8 1859.28,-84.8 1757.72,-84.8 1757.72,-48.8 1886.28,-48.8 1886.28,-84.8"/>
<text text-anchor="middle" x="1822" y="-62.6" font-family="Times,serif" font-size="14.00">AppRoutingModule</text>
</g>
<!-- AppRoutingModule&#45;&gt;AppModule -->
<g id="edge14" class="edge">
<title>AppRoutingModule&#45;&gt;AppModule</title>
<path fill="none" stroke="black" d="M1875.28,-84.91C1875.28,-84.91 1875.28,-103.79 1875.28,-103.79"/>
<polygon fill="black" stroke="black" points="1871.78,-103.79 1875.28,-113.79 1878.78,-103.79 1871.78,-103.79"/>
</g>
<!-- SessionModule -->
<g id="node16" class="node">
<title>SessionModule</title>
<polygon fill="#8dd3c7" stroke="black" points="1739.34,-84.8 1736.34,-88.8 1715.34,-88.8 1712.34,-84.8 1636.66,-84.8 1636.66,-48.8 1739.34,-48.8 1739.34,-84.8"/>
<text text-anchor="middle" x="1688" y="-62.6" font-family="Times,serif" font-size="14.00">SessionModule</text>
</g>
<!-- SessionModule&#45;&gt;AppModule -->
<g id="edge15" class="edge">
<title>SessionModule&#45;&gt;AppModule</title>
<path fill="none" stroke="black" d="M1688,-84.85C1688,-99.17 1688,-116.8 1688,-116.8 1688,-116.8 1854.23,-116.8 1854.23,-116.8"/>
<polygon fill="black" stroke="black" points="1854.23,-120.3 1864.23,-116.8 1854.23,-113.3 1854.23,-120.3"/>
</g>
<!-- SongModule -->
<g id="node17" class="node">
<title>SongModule</title>
<polygon fill="#8dd3c7" stroke="black" points="1619.34,-84.8 1616.34,-88.8 1595.34,-88.8 1592.34,-84.8 1530.66,-84.8 1530.66,-48.8 1619.34,-48.8 1619.34,-84.8"/>
<text text-anchor="middle" x="1575" y="-62.6" font-family="Times,serif" font-size="14.00">SongModule</text>
</g>
<!-- SongModule&#45;&gt;AppModule -->
<g id="edge16" class="edge">
<title>SongModule&#45;&gt;AppModule</title>
<path fill="none" stroke="black" d="M1575,-85.04C1575,-100.37 1575,-119.8 1575,-119.8 1575,-119.8 1854.08,-119.8 1854.08,-119.8"/>
<polygon fill="black" stroke="black" points="1854.08,-123.3 1864.08,-119.8 1854.08,-116.3 1854.08,-123.3"/>
</g>
<!-- ReactiveFormsModule -->
<g id="node18" class="node">
<title>ReactiveFormsModule</title>
<polygon fill="#8dd3c7" stroke="black" points="1513.31,-84.8 1510.31,-88.8 1489.31,-88.8 1486.31,-84.8 1368.69,-84.8 1368.69,-48.8 1513.31,-48.8 1513.31,-84.8"/>
<text text-anchor="middle" x="1441" y="-62.6" font-family="Times,serif" font-size="14.00">ReactiveFormsModule</text>
</g>
<!-- ReactiveFormsModule&#45;&gt;AppModule -->
<g id="edge17" class="edge">
<title>ReactiveFormsModule&#45;&gt;AppModule</title>
<path fill="none" stroke="black" d="M1441,-84.81C1441,-100.85 1441,-121.8 1441,-121.8 1441,-121.8 1854.33,-121.8 1854.33,-121.8"/>
<polygon fill="black" stroke="black" points="1854.33,-125.3 1864.33,-121.8 1854.33,-118.3 1854.33,-125.3"/>
</g>
<!-- FormsModule -->
<g id="node19" class="node">
<title>FormsModule</title>
<polygon fill="#8dd3c7" stroke="black" points="1350.84,-84.8 1347.84,-88.8 1326.84,-88.8 1323.84,-84.8 1255.16,-84.8 1255.16,-48.8 1350.84,-48.8 1350.84,-84.8"/>
<text text-anchor="middle" x="1303" y="-62.6" font-family="Times,serif" font-size="14.00">FormsModule</text>
</g>
<!-- FormsModule&#45;&gt;AppModule -->
<g id="edge18" class="edge">
<title>FormsModule&#45;&gt;AppModule</title>
<path fill="none" stroke="black" d="M1303,-84.83C1303,-101.86 1303,-124.8 1303,-124.8 1303,-124.8 1854.08,-124.8 1854.08,-124.8"/>
<polygon fill="black" stroke="black" points="1854.08,-128.3 1864.08,-124.8 1854.08,-121.3 1854.08,-128.3"/>
</g>
<!-- ServiceWorkerModule.register(args) -->
<g id="node20" class="node">
<title>ServiceWorkerModule.register(args)</title>
<polygon fill="#8dd3c7" stroke="black" points="1237.41,-84.8 1234.41,-88.8 1213.41,-88.8 1210.41,-84.8 1014.59,-84.8 1014.59,-48.8 1237.41,-48.8 1237.41,-84.8"/>
<text text-anchor="middle" x="1126" y="-62.6" font-family="Times,serif" font-size="14.00">ServiceWorkerModule.register(args)</text>
</g>
<!-- ServiceWorkerModule.register(args)&#45;&gt;AppModule -->
<g id="edge19" class="edge">
<title>ServiceWorkerModule.register(args)&#45;&gt;AppModule</title>
<path fill="none" stroke="black" d="M1126,-84.8C1126,-102.48 1126,-126.8 1126,-126.8 1126,-126.8 1854.06,-126.8 1854.06,-126.8"/>
<polygon fill="black" stroke="black" points="1854.06,-130.3 1864.06,-126.8 1854.06,-123.3 1854.06,-130.3"/>
</g>
<!-- RouterModule -->
<g id="node21" class="node">
<title>RouterModule</title>
<polygon fill="#8dd3c7" stroke="black" points="996.66,-84.8 993.66,-88.8 972.66,-88.8 969.66,-84.8 899.34,-84.8 899.34,-48.8 996.66,-48.8 996.66,-84.8"/>
<text text-anchor="middle" x="948" y="-62.6" font-family="Times,serif" font-size="14.00">RouterModule</text>
</g>
<!-- RouterModule&#45;&gt;AppModule -->
<g id="edge20" class="edge">
<title>RouterModule&#45;&gt;AppModule</title>
<path fill="none" stroke="black" d="M948,-85.02C948,-103.63 948,-129.8 948,-129.8 948,-129.8 1854.22,-129.8 1854.22,-129.8"/>
<polygon fill="black" stroke="black" points="1854.22,-133.3 1864.22,-129.8 1854.22,-126.3 1854.22,-133.3"/>
</g>
<!-- HttpClientModule -->
<g id="node22" class="node">
<title>HttpClientModule</title>
<polygon fill="#8dd3c7" stroke="black" points="881.16,-84.8 878.16,-88.8 857.16,-88.8 854.16,-84.8 762.84,-84.8 762.84,-48.8 881.16,-48.8 881.16,-84.8"/>
<text text-anchor="middle" x="822" y="-62.6" font-family="Times,serif" font-size="14.00">HttpClientModule</text>
</g>
<!-- HttpClientModule&#45;&gt;AppModule -->
<g id="edge21" class="edge">
<title>HttpClientModule&#45;&gt;AppModule</title>
<path fill="none" stroke="black" d="M822,-84.91C822,-104.14 822,-131.8 822,-131.8 822,-131.8 1854.17,-131.8 1854.17,-131.8"/>
<polygon fill="black" stroke="black" points="1854.17,-135.3 1864.17,-131.8 1854.17,-128.3 1854.17,-135.3"/>
</g>
<!-- ButtonModule -->
<g id="node23" class="node">
<title>ButtonModule</title>
<polygon fill="#8dd3c7" stroke="black" points="744.67,-84.8 741.67,-88.8 720.67,-88.8 717.67,-84.8 647.33,-84.8 647.33,-48.8 744.67,-48.8 744.67,-84.8"/>
<text text-anchor="middle" x="696" y="-62.6" font-family="Times,serif" font-size="14.00">ButtonModule</text>
</g>
<!-- ButtonModule&#45;&gt;AppModule -->
<g id="edge22" class="edge">
<title>ButtonModule&#45;&gt;AppModule</title>
<path fill="none" stroke="black" d="M696,-85.02C696,-105.17 696,-134.8 696,-134.8 696,-134.8 1854,-134.8 1854,-134.8"/>
<polygon fill="black" stroke="black" points="1854,-138.3 1864,-134.8 1854,-131.3 1854,-138.3"/>
</g>
<!-- InputTextModule -->
<g id="node24" class="node">
<title>InputTextModule</title>
<polygon fill="#8dd3c7" stroke="black" points="629.26,-84.8 626.26,-88.8 605.26,-88.8 602.26,-84.8 514.74,-84.8 514.74,-48.8 629.26,-48.8 629.26,-84.8"/>
<text text-anchor="middle" x="572" y="-62.6" font-family="Times,serif" font-size="14.00">InputTextModule</text>
</g>
<!-- InputTextModule&#45;&gt;AppModule -->
<g id="edge23" class="edge">
<title>InputTextModule&#45;&gt;AppModule</title>
<path fill="none" stroke="black" d="M572,-85.08C572,-106.12 572,-137.8 572,-137.8 572,-137.8 1854.24,-137.8 1854.24,-137.8"/>
<polygon fill="black" stroke="black" points="1854.24,-141.3 1864.24,-137.8 1854.24,-134.3 1854.24,-141.3"/>
</g>
<!-- StyleClassModule -->
<g id="node25" class="node">
<title>StyleClassModule</title>
<polygon fill="#8dd3c7" stroke="black" points="496.17,-84.8 493.17,-88.8 472.17,-88.8 469.17,-84.8 377.83,-84.8 377.83,-48.8 496.17,-48.8 496.17,-84.8"/>
<text text-anchor="middle" x="437" y="-62.6" font-family="Times,serif" font-size="14.00">StyleClassModule</text>
</g>
<!-- StyleClassModule&#45;&gt;AppModule -->
<g id="edge24" class="edge">
<title>StyleClassModule&#45;&gt;AppModule</title>
<path fill="none" stroke="black" d="M437,-84.84C437,-106.46 437,-139.8 437,-139.8 437,-139.8 1854.01,-139.8 1854.01,-139.8"/>
<polygon fill="black" stroke="black" points="1854.01,-143.3 1864.01,-139.8 1854.01,-136.3 1854.01,-143.3"/>
</g>
<!-- MenuModule -->
<g id="node26" class="node">
<title>MenuModule</title>
<polygon fill="#8dd3c7" stroke="black" points="360.21,-84.8 357.21,-88.8 336.21,-88.8 333.21,-84.8 267.79,-84.8 267.79,-48.8 360.21,-48.8 360.21,-84.8"/>
<text text-anchor="middle" x="314" y="-62.6" font-family="Times,serif" font-size="14.00">MenuModule</text>
</g>
<!-- MenuModule&#45;&gt;AppModule -->
<g id="edge25" class="edge">
<title>MenuModule&#45;&gt;AppModule</title>
<path fill="none" stroke="black" d="M314,-84.81C314,-107.29 314,-142.8 314,-142.8 314,-142.8 1854.24,-142.8 1854.24,-142.8"/>
<polygon fill="black" stroke="black" points="1854.24,-146.3 1864.24,-142.8 1854.24,-139.3 1854.24,-146.3"/>
</g>
<!-- MenubarModule -->
<g id="node27" class="node">
<title>MenubarModule</title>
<polygon fill="#8dd3c7" stroke="black" points="250.09,-84.8 247.09,-88.8 226.09,-88.8 223.09,-84.8 139.91,-84.8 139.91,-48.8 250.09,-48.8 250.09,-84.8"/>
<text text-anchor="middle" x="195" y="-62.6" font-family="Times,serif" font-size="14.00">MenubarModule</text>
</g>
<!-- MenubarModule&#45;&gt;AppModule -->
<g id="edge26" class="edge">
<title>MenubarModule&#45;&gt;AppModule</title>
<path fill="none" stroke="black" d="M195,-84.89C195,-107.93 195,-144.8 195,-144.8 195,-144.8 1854.13,-144.8 1854.13,-144.8"/>
<polygon fill="black" stroke="black" points="1854.13,-148.3 1864.13,-144.8 1854.13,-141.3 1854.13,-148.3"/>
</g>
<!-- DialogModule -->
<g id="node28" class="node">
<title>DialogModule</title>
<polygon fill="#8dd3c7" stroke="black" points="121.66,-84.8 118.66,-88.8 97.66,-88.8 94.66,-84.8 24.34,-84.8 24.34,-48.8 121.66,-48.8 121.66,-84.8"/>
<text text-anchor="middle" x="73" y="-62.6" font-family="Times,serif" font-size="14.00">DialogModule</text>
</g>
<!-- DialogModule&#45;&gt;AppModule -->
<g id="edge27" class="edge">
<title>DialogModule&#45;&gt;AppModule</title>
<path fill="none" stroke="black" d="M73,-85.18C73,-109.08 73,-147.8 73,-147.8 73,-147.8 1854.27,-147.8 1854.27,-147.8"/>
<polygon fill="black" stroke="black" points="1854.27,-151.3 1864.27,-147.8 1854.27,-144.3 1854.27,-151.3"/>
</g>
<!-- Convertors -->
<g id="node30" class="node">
<title>Convertors</title>
<ellipse fill="#fdb462" stroke="black" cx="2280" cy="-66.8" rx="53.9" ry="18"/>
<text text-anchor="middle" x="2280" y="-62.6" font-family="Times,serif" font-size="14.00">Convertors</text>
</g>
<!-- Convertors&#45;&gt;AppModule -->
<g id="edge29" class="edge">
<title>Convertors&#45;&gt;AppModule</title>
<path fill="none" stroke="black" d="M2280,-85.04C2280,-100.37 2280,-119.8 2280,-119.8 2280,-119.8 1957.81,-119.8 1957.81,-119.8"/>
<polygon fill="black" stroke="black" points="1957.81,-116.3 1947.81,-119.8 1957.81,-123.3 1957.81,-116.3"/>
</g>
</g>
</svg>
