<?xml version="1.0" encoding="UTF-8" standalone="no"?>
<!DOCTYPE svg PUBLIC "-//W3C//DTD SVG 1.1//EN"
 "http://www.w3.org/Graphics/SVG/1.1/DTD/svg11.dtd">
<!-- Generated by graphviz version 5.0.0 (20220707.1540)
 -->
<!-- Title: dependencies Pages: 1 -->
<svg width="302pt" height="174pt"
 viewBox="0.00 0.00 302.00 173.80" xmlns="http://www.w3.org/2000/svg" xmlns:xlink="http://www.w3.org/1999/xlink">
<g id="graph0" class="graph" transform="scale(1 1) rotate(0) translate(4 169.8)">
<title>dependencies</title>
<polygon fill="white" stroke="transparent" points="-4,4 -4,-169.8 298,-169.8 298,4 -4,4"/>
<text text-anchor="middle" x="147" y="-8.2" font-family="sans-serif" font-size="14.00">dependencies</text>
<g id="clust1" class="cluster">
<title>cluster_SongModule</title>
<polygon fill="none" stroke="black" stroke-dasharray="1,5" points="8,-32.8 8,-157.8 286,-157.8 286,-32.8 8,-32.8"/>
</g>
<g id="clust2" class="cluster">
<title>cluster_SongModule_declarations</title>
<polygon fill="none" stroke="black" points="152,-40.8 152,-92.8 278,-92.8 278,-40.8 152,-40.8"/>
</g>
<g id="clust4" class="cluster">
<title>cluster_SongModule_imports</title>
<polygon fill="none" stroke="black" points="16,-40.8 16,-92.8 144,-92.8 144,-40.8 16,-40.8"/>
</g>
<!-- SongComponent -->
<g id="node1" class="node">
<title>SongComponent</title>
<polygon fill="#ffffb3" stroke="black" points="270.12,-84.8 159.88,-84.8 159.88,-48.8 270.12,-48.8 270.12,-84.8"/>
<text text-anchor="middle" x="215" y="-62.6" font-family="Times,serif" font-size="14.00">SongComponent</text>
</g>
<!-- SongModule -->
<g id="node2" class="node">
<title>SongModule</title>
<polygon fill="#8dd3c7" stroke="black" points="191.34,-149.8 188.34,-153.8 167.34,-153.8 164.34,-149.8 102.66,-149.8 102.66,-113.8 191.34,-113.8 191.34,-149.8"/>
<text text-anchor="middle" x="147" y="-127.6" font-family="Times,serif" font-size="14.00">SongModule</text>
</g>
<!-- SongComponent&#45;&gt;SongModule -->
<g id="edge1" class="edge">
<title>SongComponent&#45;&gt;SongModule</title>
<path fill="none" stroke="black" d="M175.56,-84.91C175.56,-84.91 175.56,-103.79 175.56,-103.79"/>
<polygon fill="black" stroke="black" points="172.06,-103.79 175.56,-113.79 179.06,-103.79 172.06,-103.79"/>
</g>
<!-- CommonModule -->
<g id="node3" class="node">
<title>CommonModule</title>
<polygon fill="#8dd3c7" stroke="black" points="135.67,-84.8 132.67,-88.8 111.67,-88.8 108.67,-84.8 24.33,-84.8 24.33,-48.8 135.67,-48.8 135.67,-84.8"/>
<text text-anchor="middle" x="80" y="-62.6" font-family="Times,serif" font-size="14.00">CommonModule</text>
</g>
<!-- CommonModule&#45;&gt;SongModule -->
<g id="edge2" class="edge">
<title>CommonModule&#45;&gt;SongModule</title>
<path fill="none" stroke="black" d="M119.33,-84.91C119.33,-84.91 119.33,-103.79 119.33,-103.79"/>
<polygon fill="black" stroke="black" points="115.83,-103.79 119.33,-113.79 122.83,-103.79 115.83,-103.79"/>
</g>
</g>
</svg>
