<?xml version="1.0" encoding="UTF-8" standalone="no"?>
<!DOCTYPE svg PUBLIC "-//W3C//DTD SVG 1.1//EN"
 "http://www.w3.org/Graphics/SVG/1.1/DTD/svg11.dtd">
<!-- Generated by graphviz version 5.0.0 (20220707.1540)
 -->
<!-- Title: dependencies Pages: 1 -->
<svg width="674pt" height="239pt"
 viewBox="0.00 0.00 674.00 238.80" xmlns="http://www.w3.org/2000/svg" xmlns:xlink="http://www.w3.org/1999/xlink">
<g id="graph0" class="graph" transform="scale(1 1) rotate(0) translate(4 234.8)">
<title>dependencies</title>
<polygon fill="white" stroke="transparent" points="-4,4 -4,-234.8 670,-234.8 670,4 -4,4"/>
<text text-anchor="middle" x="333" y="-8.2" font-family="sans-serif" font-size="14.00">dependencies</text>
<g id="clust1" class="cluster">
<title>cluster_SongModule</title>
<polygon fill="none" stroke="black" stroke-dasharray="1,5" points="8,-32.8 8,-222.8 658,-222.8 658,-32.8 8,-32.8"/>
</g>
<g id="clust4" class="cluster">
<title>cluster_SongModule_imports</title>
<polygon fill="none" stroke="black" points="150,-105.8 150,-157.8 650,-157.8 650,-105.8 150,-105.8"/>
</g>
<g id="clust2" class="cluster">
<title>cluster_SongModule_declarations</title>
<polygon fill="none" stroke="black" points="16,-105.8 16,-157.8 142,-157.8 142,-105.8 16,-105.8"/>
</g>
<g id="clust3" class="cluster">
<title>cluster_SongModule_SongComponent_providers</title>
<polygon fill="none" stroke="black" points="16,-40.8 16,-92.8 352,-92.8 352,-40.8 16,-40.8"/>
</g>
<!-- SongComponent -->
<g id="node1" class="node">
<title>SongComponent</title>
<polygon fill="#ffffb3" stroke="black" points="134.12,-149.8 23.88,-149.8 23.88,-113.8 134.12,-113.8 134.12,-149.8"/>
<text text-anchor="middle" x="79" y="-127.6" font-family="Times,serif" font-size="14.00">SongComponent</text>
</g>
<!-- SongModule -->
<g id="node2" class="node">
<title>SongModule</title>
<polygon fill="#8dd3c7" stroke="black" points="391.34,-214.8 388.34,-218.8 367.34,-218.8 364.34,-214.8 302.66,-214.8 302.66,-178.8 391.34,-178.8 391.34,-214.8"/>
<text text-anchor="middle" x="347" y="-192.6" font-family="Times,serif" font-size="14.00">SongModule</text>
</g>
<!-- SongComponent&#45;&gt;SongModule -->
<g id="edge1" class="edge">
<title>SongComponent&#45;&gt;SongModule</title>
<path fill="none" stroke="black" d="M79,-150.08C79,-171.12 79,-202.8 79,-202.8 79,-202.8 292.75,-202.8 292.75,-202.8"/>
<polygon fill="black" stroke="black" points="292.75,-206.3 302.75,-202.8 292.75,-199.3 292.75,-206.3"/>
</g>
<!-- MessageService -->
<g id="node3" class="node">
<title>MessageService</title>
<ellipse fill="#fdb462" stroke="black" cx="270" cy="-66.8" rx="73.57" ry="18"/>
<text text-anchor="middle" x="270" y="-62.6" font-family="Times,serif" font-size="14.00">MessageService</text>
</g>
<!-- MessageService&#45;&gt;SongComponent -->
<g id="edge2" class="edge">
<title>MessageService&#45;&gt;SongComponent</title>
<path fill="none" stroke="black" d="M238.24,-83.3C238.24,-91.55 238.24,-99.8 238.24,-99.8 238.24,-99.8 97.37,-99.8 97.37,-99.8 97.37,-99.8 97.37,-103.56 97.37,-103.56"/>
<polygon fill="black" stroke="black" points="93.87,-103.56 97.37,-113.56 100.87,-103.56 93.87,-103.56"/>
</g>
<!-- SongsterrService -->
<g id="node4" class="node">
<title>SongsterrService</title>
<ellipse fill="#fdb462" stroke="black" cx="101" cy="-66.8" rx="77.02" ry="18"/>
<text text-anchor="middle" x="101" y="-62.6" font-family="Times,serif" font-size="14.00">SongsterrService</text>
</g>
<!-- SongsterrService&#45;&gt;SongComponent -->
<g id="edge3" class="edge">
<title>SongsterrService&#45;&gt;SongComponent</title>
<path fill="none" stroke="black" d="M60.68,-82.2C60.68,-82.2 60.68,-103.74 60.68,-103.74"/>
<polygon fill="black" stroke="black" points="57.18,-103.74 60.68,-113.74 64.18,-103.74 57.18,-103.74"/>
</g>
<!-- CommonModule -->
<g id="node5" class="node">
<title>CommonModule</title>
<polygon fill="#8dd3c7" stroke="black" points="641.67,-149.8 638.67,-153.8 617.67,-153.8 614.67,-149.8 530.33,-149.8 530.33,-113.8 641.67,-113.8 641.67,-149.8"/>
<text text-anchor="middle" x="586" y="-127.6" font-family="Times,serif" font-size="14.00">CommonModule</text>
</g>
<!-- CommonModule&#45;&gt;SongModule -->
<g id="edge4" class="edge">
<title>CommonModule&#45;&gt;SongModule</title>
<path fill="none" stroke="black" d="M586,-150.08C586,-171.12 586,-202.8 586,-202.8 586,-202.8 401.39,-202.8 401.39,-202.8"/>
<polygon fill="black" stroke="black" points="401.39,-199.3 391.39,-202.8 401.39,-206.3 401.39,-199.3"/>
</g>
<!-- ButtonModule -->
<g id="node6" class="node">
<title>ButtonModule</title>
<polygon fill="#8dd3c7" stroke="black" points="511.67,-149.8 508.67,-153.8 487.67,-153.8 484.67,-149.8 414.33,-149.8 414.33,-113.8 511.67,-113.8 511.67,-149.8"/>
<text text-anchor="middle" x="463" y="-127.6" font-family="Times,serif" font-size="14.00">ButtonModule</text>
</g>
<!-- ButtonModule&#45;&gt;SongModule -->
<g id="edge5" class="edge">
<title>ButtonModule&#45;&gt;SongModule</title>
<path fill="none" stroke="black" d="M463,-149.82C463,-167.17 463,-190.8 463,-190.8 463,-190.8 401.19,-190.8 401.19,-190.8"/>
<polygon fill="black" stroke="black" points="401.19,-187.3 391.19,-190.8 401.19,-194.3 401.19,-187.3"/>
</g>
<!-- DialogModule -->
<g id="node7" class="node">
<title>DialogModule</title>
<polygon fill="#8dd3c7" stroke="black" points="395.66,-149.8 392.66,-153.8 371.66,-153.8 368.66,-149.8 298.34,-149.8 298.34,-113.8 395.66,-113.8 395.66,-149.8"/>
<text text-anchor="middle" x="347" y="-127.6" font-family="Times,serif" font-size="14.00">DialogModule</text>
</g>
<!-- DialogModule&#45;&gt;SongModule -->
<g id="edge6" class="edge">
<title>DialogModule&#45;&gt;SongModule</title>
<path fill="none" stroke="black" d="M347,-149.91C347,-149.91 347,-168.79 347,-168.79"/>
<polygon fill="black" stroke="black" points="343.5,-168.79 347,-178.79 350.5,-168.79 343.5,-168.79"/>
</g>
<!-- FileUploadModule -->
<g id="node8" class="node">
<title>FileUploadModule</title>
<polygon fill="#8dd3c7" stroke="black" points="280.05,-149.8 277.05,-153.8 256.05,-153.8 253.05,-149.8 157.95,-149.8 157.95,-113.8 280.05,-113.8 280.05,-149.8"/>
<text text-anchor="middle" x="219" y="-127.6" font-family="Times,serif" font-size="14.00">FileUploadModule</text>
</g>
<!-- FileUploadModule&#45;&gt;SongModule -->
<g id="edge7" class="edge">
<title>FileUploadModule&#45;&gt;SongModule</title>
<path fill="none" stroke="black" d="M219,-149.82C219,-167.17 219,-190.8 219,-190.8 219,-190.8 292.59,-190.8 292.59,-190.8"/>
<polygon fill="black" stroke="black" points="292.59,-194.3 302.59,-190.8 292.59,-187.3 292.59,-194.3"/>
</g>
</g>
</svg>
