<?xml version="1.0" encoding="UTF-8" standalone="no"?>
<!DOCTYPE svg PUBLIC "-//W3C//DTD SVG 1.1//EN"
 "http://www.w3.org/Graphics/SVG/1.1/DTD/svg11.dtd">
<!-- Generated by graphviz version 5.0.0 (20220707.1540)
 -->
<!-- Title: dependencies Pages: 1 -->
<svg width="418pt" height="174pt"
 viewBox="0.00 0.00 418.00 173.80" xmlns="http://www.w3.org/2000/svg" xmlns:xlink="http://www.w3.org/1999/xlink">
<g id="graph0" class="graph" transform="scale(1 1) rotate(0) translate(4 169.8)">
<title>dependencies</title>
<polygon fill="white" stroke="transparent" points="-4,4 -4,-169.8 414,-169.8 414,4 -4,4"/>
<text text-anchor="middle" x="205" y="-8.2" font-family="sans-serif" font-size="14.00">dependencies</text>
<g id="clust1" class="cluster">
<title>cluster_SongModule</title>
<polygon fill="none" stroke="black" stroke-dasharray="1,5" points="8,-32.8 8,-157.8 402,-157.8 402,-32.8 8,-32.8"/>
</g>
<g id="clust2" class="cluster">
<title>cluster_SongModule_declarations</title>
<polygon fill="none" stroke="black" points="268,-40.8 268,-92.8 394,-92.8 394,-40.8 268,-40.8"/>
</g>
<g id="clust4" class="cluster">
<title>cluster_SongModule_imports</title>
<polygon fill="none" stroke="black" points="16,-40.8 16,-92.8 260,-92.8 260,-40.8 16,-40.8"/>
</g>
<!-- SongComponent -->
<g id="node1" class="node">
<title>SongComponent</title>
<polygon fill="#ffffb3" stroke="black" points="386.12,-84.8 275.88,-84.8 275.88,-48.8 386.12,-48.8 386.12,-84.8"/>
<text text-anchor="middle" x="331" y="-62.6" font-family="Times,serif" font-size="14.00">SongComponent</text>
</g>
<!-- SongModule -->
<g id="node2" class="node">
<title>SongModule</title>
<polygon fill="#8dd3c7" stroke="black" points="240.34,-149.8 237.34,-153.8 216.34,-153.8 213.34,-149.8 151.66,-149.8 151.66,-113.8 240.34,-113.8 240.34,-149.8"/>
<text text-anchor="middle" x="196" y="-127.6" font-family="Times,serif" font-size="14.00">SongModule</text>
</g>
<!-- SongComponent&#45;&gt;SongModule -->
<g id="edge1" class="edge">
<title>SongComponent&#45;&gt;SongModule</title>
<path fill="none" stroke="black" d="M331,-84.91C331,-104.14 331,-131.8 331,-131.8 331,-131.8 250.2,-131.8 250.2,-131.8"/>
<polygon fill="black" stroke="black" points="250.2,-128.3 240.2,-131.8 250.2,-135.3 250.2,-128.3"/>
</g>
<!-- CommonModule -->
<g id="node3" class="node">
<title>CommonModule</title>
<polygon fill="#8dd3c7" stroke="black" points="251.67,-84.8 248.67,-88.8 227.67,-88.8 224.67,-84.8 140.33,-84.8 140.33,-48.8 251.67,-48.8 251.67,-84.8"/>
<text text-anchor="middle" x="196" y="-62.6" font-family="Times,serif" font-size="14.00">CommonModule</text>
</g>
<!-- CommonModule&#45;&gt;SongModule -->
<g id="edge2" class="edge">
<title>CommonModule&#45;&gt;SongModule</title>
<path fill="none" stroke="black" d="M196,-84.91C196,-84.91 196,-103.79 196,-103.79"/>
<polygon fill="black" stroke="black" points="192.5,-103.79 196,-113.79 199.5,-103.79 192.5,-103.79"/>
</g>
<!-- ButtonModule -->
<g id="node4" class="node">
<title>ButtonModule</title>
<polygon fill="#8dd3c7" stroke="black" points="121.67,-84.8 118.67,-88.8 97.67,-88.8 94.67,-84.8 24.33,-84.8 24.33,-48.8 121.67,-48.8 121.67,-84.8"/>
<text text-anchor="middle" x="73" y="-62.6" font-family="Times,serif" font-size="14.00">ButtonModule</text>
</g>
<!-- ButtonModule&#45;&gt;SongModule -->
<g id="edge3" class="edge">
<title>ButtonModule&#45;&gt;SongModule</title>
<path fill="none" stroke="black" d="M73,-84.91C73,-104.14 73,-131.8 73,-131.8 73,-131.8 141.59,-131.8 141.59,-131.8"/>
<polygon fill="black" stroke="black" points="141.59,-135.3 151.59,-131.8 141.59,-128.3 141.59,-135.3"/>
</g>
</g>
</svg>
