<?xml version="1.0" encoding="UTF-8" standalone="no"?>
<!DOCTYPE svg PUBLIC "-//W3C//DTD SVG 1.1//EN"
 "http://www.w3.org/Graphics/SVG/1.1/DTD/svg11.dtd">
<!-- Generated by graphviz version 3.0.0 (20220226.1711)
 -->
<!-- Title: dependencies Pages: 1 -->
<svg width="1280pt" height="247pt"
 viewBox="0.00 0.00 1280.00 246.80" xmlns="http://www.w3.org/2000/svg" xmlns:xlink="http://www.w3.org/1999/xlink">
<g id="graph0" class="graph" transform="scale(1 1) rotate(0) translate(4 242.8)">
<title>dependencies</title>
<polygon fill="white" stroke="transparent" points="-4,4 -4,-242.8 1276,-242.8 1276,4 -4,4"/>
<text text-anchor="middle" x="636" y="-8.2" font-family="sans-serif" font-size="14.00">dependencies</text>
<g id="clust1" class="cluster">
<title>cluster_AppModule</title>
<polygon fill="none" stroke="black" stroke-dasharray="1,5" points="8,-32.8 8,-230.8 1264,-230.8 1264,-32.8 8,-32.8"/>
</g>
<g id="clust2" class="cluster">
<title>cluster_AppModule_declarations</title>
<polygon fill="none" stroke="black" points="409,-40.8 409,-92.8 1256,-92.8 1256,-40.8 409,-40.8"/>
</g>
<g id="clust11" class="cluster">
<title>cluster_AppModule_bootstrap</title>
<polygon fill="none" stroke="black" points="575,-170.8 575,-222.8 699,-222.8 699,-170.8 575,-170.8"/>
</g>
<g id="clust9" class="cluster">
<title>cluster_AppModule_imports</title>
<polygon fill="none" stroke="black" points="16,-40.8 16,-92.8 401,-92.8 401,-40.8 16,-40.8"/>
</g>
<!-- AppComponent -->
<g id="node1" class="node">
<title>AppComponent</title>
<polygon fill="#ffffb3" stroke="black" points="1247.94,-84.8 1142.06,-84.8 1142.06,-48.8 1247.94,-48.8 1247.94,-84.8"/>
<text text-anchor="middle" x="1195" y="-62.6" font-family="Times,serif" font-size="14.00">AppComponent</text>
</g>
<!-- AppModule -->
<g id="node7" class="node">
<title>AppModule</title>
<polygon fill="#8dd3c7" stroke="black" points="678.66,-149.8 675.66,-153.8 654.66,-153.8 651.66,-149.8 595.34,-149.8 595.34,-113.8 678.66,-113.8 678.66,-149.8"/>
<text text-anchor="middle" x="637" y="-127.6" font-family="Times,serif" font-size="14.00">AppModule</text>
</g>
<!-- AppComponent&#45;&gt;AppModule -->
<g id="edge1" class="edge">
<title>AppComponent&#45;&gt;AppModule</title>
<path fill="none" stroke="black" d="M1195,-84.81C1195,-107.29 1195,-142.8 1195,-142.8 1195,-142.8 688.94,-142.8 688.94,-142.8"/>
<polygon fill="black" stroke="black" points="688.94,-139.3 678.94,-142.8 688.94,-146.3 688.94,-139.3"/>
</g>
<!-- ChordComponent -->
<g id="node2" class="node">
<title>ChordComponent</title>
<polygon fill="#ffffb3" stroke="black" points="1124.33,-84.8 1007.67,-84.8 1007.67,-48.8 1124.33,-48.8 1124.33,-84.8"/>
<text text-anchor="middle" x="1066" y="-62.6" font-family="Times,serif" font-size="14.00">ChordComponent</text>
</g>
<!-- ChordComponent&#45;&gt;AppModule -->
<g id="edge2" class="edge">
<title>ChordComponent&#45;&gt;AppModule</title>
<path fill="none" stroke="black" d="M1066,-84.93C1066,-105.37 1066,-135.8 1066,-135.8 1066,-135.8 688.92,-135.8 688.92,-135.8"/>
<polygon fill="black" stroke="black" points="688.92,-132.3 678.92,-135.8 688.92,-139.3 688.92,-132.3"/>
</g>
<!-- FooterComponent -->
<g id="node3" class="node">
<title>FooterComponent</title>
<polygon fill="#ffffb3" stroke="black" points="989.88,-84.8 872.12,-84.8 872.12,-48.8 989.88,-48.8 989.88,-84.8"/>
<text text-anchor="middle" x="931" y="-62.6" font-family="Times,serif" font-size="14.00">FooterComponent</text>
</g>
<!-- FooterComponent&#45;&gt;AppModule -->
<g id="edge3" class="edge">
<title>FooterComponent&#45;&gt;AppModule</title>
<path fill="none" stroke="black" d="M931,-85.07C931,-103.36 931,-128.8 931,-128.8 931,-128.8 688.81,-128.8 688.81,-128.8"/>
<polygon fill="black" stroke="black" points="688.81,-125.3 678.81,-128.8 688.81,-132.3 688.81,-125.3"/>
</g>
<!-- HeaderComponent -->
<g id="node4" class="node">
<title>HeaderComponent</title>
<polygon fill="#ffffb3" stroke="black" points="853.75,-84.8 732.25,-84.8 732.25,-48.8 853.75,-48.8 853.75,-84.8"/>
<text text-anchor="middle" x="793" y="-62.6" font-family="Times,serif" font-size="14.00">HeaderComponent</text>
</g>
<!-- HeaderComponent&#45;&gt;AppModule -->
<g id="edge4" class="edge">
<title>HeaderComponent&#45;&gt;AppModule</title>
<path fill="none" stroke="black" d="M793,-84.81C793,-100.85 793,-121.8 793,-121.8 793,-121.8 688.81,-121.8 688.81,-121.8"/>
<polygon fill="black" stroke="black" points="688.81,-118.3 678.81,-121.8 688.81,-125.3 688.81,-118.3"/>
</g>
<!-- LandingPageComponent -->
<g id="node5" class="node">
<title>LandingPageComponent</title>
<polygon fill="#ffffb3" stroke="black" points="714.7,-84.8 559.3,-84.8 559.3,-48.8 714.7,-48.8 714.7,-84.8"/>
<text text-anchor="middle" x="637" y="-62.6" font-family="Times,serif" font-size="14.00">LandingPageComponent</text>
</g>
<!-- LandingPageComponent&#45;&gt;AppModule -->
<g id="edge5" class="edge">
<title>LandingPageComponent&#45;&gt;AppModule</title>
<path fill="none" stroke="black" d="M637,-84.91C637,-84.91 637,-103.79 637,-103.79"/>
<polygon fill="black" stroke="black" points="633.5,-103.79 637,-113.79 640.5,-103.79 633.5,-103.79"/>
</g>
<!-- SidebarComponent -->
<g id="node6" class="node">
<title>SidebarComponent</title>
<polygon fill="#ffffb3" stroke="black" points="541.1,-84.8 416.9,-84.8 416.9,-48.8 541.1,-48.8 541.1,-84.8"/>
<text text-anchor="middle" x="479" y="-62.6" font-family="Times,serif" font-size="14.00">SidebarComponent</text>
</g>
<!-- SidebarComponent&#45;&gt;AppModule -->
<g id="edge6" class="edge">
<title>SidebarComponent&#45;&gt;AppModule</title>
<path fill="none" stroke="black" d="M479,-84.81C479,-100.85 479,-121.8 479,-121.8 479,-121.8 585.07,-121.8 585.07,-121.8"/>
<polygon fill="black" stroke="black" points="585.07,-125.3 595.07,-121.8 585.07,-118.3 585.07,-125.3"/>
</g>
<!-- AppComponent  -->
<g id="node11" class="node">
<title>AppComponent </title>
<polygon fill="#80b1d3" stroke="black" points="691.44,-214.8 582.56,-214.8 582.56,-178.8 691.44,-178.8 691.44,-214.8"/>
<text text-anchor="middle" x="637" y="-192.6" font-family="Times,serif" font-size="14.00">AppComponent </text>
</g>
<!-- AppModule&#45;&gt;AppComponent  -->
<g id="edge10" class="edge">
<title>AppModule&#45;&gt;AppComponent </title>
<path fill="none" stroke="black" stroke-dasharray="1,5" d="M637,-149.91C637,-149.91 637,-168.79 637,-168.79"/>
<polygon fill="black" stroke="black" points="633.5,-168.79 637,-178.79 640.5,-168.79 633.5,-168.79"/>
</g>
<!-- AppRoutingModule -->
<g id="node8" class="node">
<title>AppRoutingModule</title>
<polygon fill="#8dd3c7" stroke="black" points="393.28,-84.8 390.28,-88.8 369.28,-88.8 366.28,-84.8 264.72,-84.8 264.72,-48.8 393.28,-48.8 393.28,-84.8"/>
<text text-anchor="middle" x="329" y="-62.6" font-family="Times,serif" font-size="14.00">AppRoutingModule</text>
</g>
<!-- AppRoutingModule&#45;&gt;AppModule -->
<g id="edge7" class="edge">
<title>AppRoutingModule&#45;&gt;AppModule</title>
<path fill="none" stroke="black" d="M329,-85.07C329,-103.36 329,-128.8 329,-128.8 329,-128.8 585.14,-128.8 585.14,-128.8"/>
<polygon fill="black" stroke="black" points="585.14,-132.3 595.14,-128.8 585.14,-125.3 585.14,-132.3"/>
</g>
<!-- SessionModule -->
<g id="node9" class="node">
<title>SessionModule</title>
<polygon fill="#8dd3c7" stroke="black" points="246.34,-84.8 243.34,-88.8 222.34,-88.8 219.34,-84.8 143.66,-84.8 143.66,-48.8 246.34,-48.8 246.34,-84.8"/>
<text text-anchor="middle" x="195" y="-62.6" font-family="Times,serif" font-size="14.00">SessionModule</text>
</g>
<!-- SessionModule&#45;&gt;AppModule -->
<g id="edge8" class="edge">
<title>SessionModule&#45;&gt;AppModule</title>
<path fill="none" stroke="black" d="M195,-84.93C195,-105.37 195,-135.8 195,-135.8 195,-135.8 585.02,-135.8 585.02,-135.8"/>
<polygon fill="black" stroke="black" points="585.02,-139.3 595.02,-135.8 585.02,-132.3 585.02,-139.3"/>
</g>
<!-- SidebarModule -->
<g id="node10" class="node">
<title>SidebarModule</title>
<polygon fill="#8dd3c7" stroke="black" points="126.32,-84.8 123.32,-88.8 102.32,-88.8 99.32,-84.8 23.68,-84.8 23.68,-48.8 126.32,-48.8 126.32,-84.8"/>
<text text-anchor="middle" x="75" y="-62.6" font-family="Times,serif" font-size="14.00">SidebarModule</text>
</g>
<!-- SidebarModule&#45;&gt;AppModule -->
<g id="edge9" class="edge">
<title>SidebarModule&#45;&gt;AppModule</title>
<path fill="none" stroke="black" d="M75,-84.81C75,-107.29 75,-142.8 75,-142.8 75,-142.8 585.22,-142.8 585.22,-142.8"/>
<polygon fill="black" stroke="black" points="585.22,-146.3 595.22,-142.8 585.22,-139.3 585.22,-146.3"/>
</g>
</g>
</svg>
