<?xml version="1.0" encoding="UTF-8" standalone="no"?>
<!DOCTYPE svg PUBLIC "-//W3C//DTD SVG 1.1//EN"
 "http://www.w3.org/Graphics/SVG/1.1/DTD/svg11.dtd">
<!-- Generated by graphviz version 5.0.0 (20220707.1540)
 -->
<!-- Title: dependencies Pages: 1 -->
<svg width="2269pt" height="247pt"
 viewBox="0.00 0.00 2269.00 246.80" xmlns="http://www.w3.org/2000/svg" xmlns:xlink="http://www.w3.org/1999/xlink">
<g id="graph0" class="graph" transform="scale(1 1) rotate(0) translate(4 242.8)">
<title>dependencies</title>
<polygon fill="white" stroke="transparent" points="-4,4 -4,-242.8 2265,-242.8 2265,4 -4,4"/>
<text text-anchor="middle" x="1130.5" y="-8.2" font-family="sans-serif" font-size="14.00">dependencies</text>
<g id="clust1" class="cluster">
<title>cluster_SessionModule</title>
<polygon fill="none" stroke="black" stroke-dasharray="1,5" points="8,-32.8 8,-230.8 2253,-230.8 2253,-32.8 8,-32.8"/>
</g>
<g id="clust7" class="cluster">
<title>cluster_SessionModule_exports</title>
<polygon fill="none" stroke="black" points="801,-170.8 801,-222.8 1335,-222.8 1335,-170.8 801,-170.8"/>
</g>
<g id="clust2" class="cluster">
<title>cluster_SessionModule_declarations</title>
<polygon fill="none" stroke="black" points="1723,-40.8 1723,-92.8 2245,-92.8 2245,-40.8 1723,-40.8"/>
</g>
<g id="clust6" class="cluster">
<title>cluster_SessionModule_imports</title>
<polygon fill="none" stroke="black" points="16,-40.8 16,-92.8 1715,-92.8 1715,-40.8 16,-40.8"/>
</g>
<!-- DisplaySessionComponent -->
<g id="node1" class="node">
<title>DisplaySessionComponent</title>
<polygon fill="#ffffb3" stroke="black" points="2236.67,-84.8 2069.33,-84.8 2069.33,-48.8 2236.67,-48.8 2236.67,-84.8"/>
<text text-anchor="middle" x="2153" y="-62.6" font-family="Times,serif" font-size="14.00">DisplaySessionComponent</text>
</g>
<!-- SessionModule -->
<g id="node4" class="node">
<title>SessionModule</title>
<polygon fill="#8dd3c7" stroke="black" points="1097.34,-149.8 1094.34,-153.8 1073.34,-153.8 1070.34,-149.8 994.66,-149.8 994.66,-113.8 1097.34,-113.8 1097.34,-149.8"/>
<text text-anchor="middle" x="1046" y="-127.6" font-family="Times,serif" font-size="14.00">SessionModule</text>
</g>
<!-- DisplaySessionComponent&#45;&gt;SessionModule -->
<g id="edge1" class="edge">
<title>DisplaySessionComponent&#45;&gt;SessionModule</title>
<path fill="none" stroke="black" d="M2153,-84.96C2153,-107.15 2153,-141.8 2153,-141.8 2153,-141.8 1107.17,-141.8 1107.17,-141.8"/>
<polygon fill="black" stroke="black" points="1107.17,-138.3 1097.17,-141.8 1107.17,-145.3 1107.17,-138.3"/>
</g>
<!-- PreviousSessionsComponent -->
<g id="node2" class="node">
<title>PreviousSessionsComponent</title>
<polygon fill="#ffffb3" stroke="black" points="2051.07,-84.8 1872.93,-84.8 1872.93,-48.8 2051.07,-48.8 2051.07,-84.8"/>
<text text-anchor="middle" x="1962" y="-62.6" font-family="Times,serif" font-size="14.00">PreviousSessionsComponent</text>
</g>
<!-- PreviousSessionsComponent&#45;&gt;SessionModule -->
<g id="edge2" class="edge">
<title>PreviousSessionsComponent&#45;&gt;SessionModule</title>
<path fill="none" stroke="black" d="M1962,-85.08C1962,-106.12 1962,-137.8 1962,-137.8 1962,-137.8 1107.21,-137.8 1107.21,-137.8"/>
<polygon fill="black" stroke="black" points="1107.21,-134.3 1097.21,-137.8 1107.21,-141.3 1107.21,-134.3"/>
</g>
<!-- SessionComponent -->
<g id="node3" class="node">
<title>SessionComponent</title>
<polygon fill="#ffffb3" stroke="black" points="1855.12,-84.8 1730.88,-84.8 1730.88,-48.8 1855.12,-48.8 1855.12,-84.8"/>
<text text-anchor="middle" x="1793" y="-62.6" font-family="Times,serif" font-size="14.00">SessionComponent</text>
</g>
<!-- SessionComponent&#45;&gt;SessionModule -->
<g id="edge3" class="edge">
<title>SessionComponent&#45;&gt;SessionModule</title>
<path fill="none" stroke="black" d="M1793,-85.11C1793,-104.95 1793,-133.8 1793,-133.8 1793,-133.8 1107.34,-133.8 1107.34,-133.8"/>
<polygon fill="black" stroke="black" points="1107.34,-130.3 1097.34,-133.8 1107.34,-137.3 1107.34,-130.3"/>
</g>
<!-- DisplaySessionComponent  -->
<g id="node18" class="node">
<title>DisplaySessionComponent </title>
<polygon fill="#fb8072" stroke="black" points="1326.67,-214.8 1155.33,-214.8 1155.33,-178.8 1326.67,-178.8 1326.67,-214.8"/>
<text text-anchor="middle" x="1241" y="-192.6" font-family="Times,serif" font-size="14.00">DisplaySessionComponent </text>
</g>
<!-- SessionModule&#45;&gt;DisplaySessionComponent  -->
<g id="edge17" class="edge">
<title>SessionModule&#45;&gt;DisplaySessionComponent </title>
<path fill="none" stroke="black" stroke-dasharray="5,2" d="M1097.36,-145.8C1129.12,-145.8 1163.87,-145.8 1163.87,-145.8 1163.87,-145.8 1163.87,-168.68 1163.87,-168.68"/>
<polygon fill="black" stroke="black" points="1160.37,-168.68 1163.87,-178.68 1167.37,-168.68 1160.37,-168.68"/>
</g>
<!-- PreviousSessionsComponent  -->
<g id="node19" class="node">
<title>PreviousSessionsComponent </title>
<polygon fill="#fb8072" stroke="black" points="1137.07,-214.8 954.93,-214.8 954.93,-178.8 1137.07,-178.8 1137.07,-214.8"/>
<text text-anchor="middle" x="1046" y="-192.6" font-family="Times,serif" font-size="14.00">PreviousSessionsComponent </text>
</g>
<!-- SessionModule&#45;&gt;PreviousSessionsComponent  -->
<g id="edge18" class="edge">
<title>SessionModule&#45;&gt;PreviousSessionsComponent </title>
<path fill="none" stroke="black" stroke-dasharray="5,2" d="M1046,-149.91C1046,-149.91 1046,-168.79 1046,-168.79"/>
<polygon fill="black" stroke="black" points="1042.5,-168.79 1046,-178.79 1049.5,-168.79 1042.5,-168.79"/>
</g>
<!-- SessionComponent  -->
<g id="node20" class="node">
<title>SessionComponent </title>
<polygon fill="#fb8072" stroke="black" points="936.62,-214.8 809.38,-214.8 809.38,-178.8 936.62,-178.8 936.62,-214.8"/>
<text text-anchor="middle" x="873" y="-192.6" font-family="Times,serif" font-size="14.00">SessionComponent </text>
</g>
<!-- SessionModule&#45;&gt;SessionComponent  -->
<g id="edge19" class="edge">
<title>SessionModule&#45;&gt;SessionComponent </title>
<path fill="none" stroke="black" stroke-dasharray="5,2" d="M994.52,-145.8C963.29,-145.8 929.41,-145.8 929.41,-145.8 929.41,-145.8 929.41,-168.68 929.41,-168.68"/>
<polygon fill="black" stroke="black" points="925.91,-168.68 929.41,-178.68 932.91,-168.68 925.91,-168.68"/>
</g>
<!-- ReactiveFormsModule -->
<g id="node5" class="node">
<title>ReactiveFormsModule</title>
<polygon fill="#8dd3c7" stroke="black" points="1707.31,-84.8 1704.31,-88.8 1683.31,-88.8 1680.31,-84.8 1562.69,-84.8 1562.69,-48.8 1707.31,-48.8 1707.31,-84.8"/>
<text text-anchor="middle" x="1635" y="-62.6" font-family="Times,serif" font-size="14.00">ReactiveFormsModule</text>
</g>
<!-- ReactiveFormsModule&#45;&gt;SessionModule -->
<g id="edge4" class="edge">
<title>ReactiveFormsModule&#45;&gt;SessionModule</title>
<path fill="none" stroke="black" d="M1635,-85.02C1635,-103.63 1635,-129.8 1635,-129.8 1635,-129.8 1107.24,-129.8 1107.24,-129.8"/>
<polygon fill="black" stroke="black" points="1107.24,-126.3 1097.24,-129.8 1107.24,-133.3 1107.24,-126.3"/>
</g>
<!-- FormsModule -->
<g id="node6" class="node">
<title>FormsModule</title>
<polygon fill="#8dd3c7" stroke="black" points="1544.84,-84.8 1541.84,-88.8 1520.84,-88.8 1517.84,-84.8 1449.16,-84.8 1449.16,-48.8 1544.84,-48.8 1544.84,-84.8"/>
<text text-anchor="middle" x="1497" y="-62.6" font-family="Times,serif" font-size="14.00">FormsModule</text>
</g>
<!-- FormsModule&#45;&gt;SessionModule -->
<g id="edge5" class="edge">
<title>FormsModule&#45;&gt;SessionModule</title>
<path fill="none" stroke="black" d="M1497,-84.82C1497,-102.17 1497,-125.8 1497,-125.8 1497,-125.8 1107.3,-125.8 1107.3,-125.8"/>
<polygon fill="black" stroke="black" points="1107.3,-122.3 1097.3,-125.8 1107.3,-129.3 1107.3,-122.3"/>
</g>
<!-- MatInputModule -->
<g id="node7" class="node">
<title>MatInputModule</title>
<polygon fill="#8dd3c7" stroke="black" points="1431.66,-84.8 1428.66,-88.8 1407.66,-88.8 1404.66,-84.8 1320.34,-84.8 1320.34,-48.8 1431.66,-48.8 1431.66,-84.8"/>
<text text-anchor="middle" x="1376" y="-62.6" font-family="Times,serif" font-size="14.00">MatInputModule</text>
</g>
<!-- MatInputModule&#45;&gt;SessionModule -->
<g id="edge6" class="edge">
<title>MatInputModule&#45;&gt;SessionModule</title>
<path fill="none" stroke="black" d="M1379.21,-84.81C1379.21,-100.85 1379.21,-121.8 1379.21,-121.8 1379.21,-121.8 1107.33,-121.8 1107.33,-121.8"/>
<polygon fill="black" stroke="black" points="1107.33,-118.3 1097.33,-121.8 1107.33,-125.3 1107.33,-118.3"/>
</g>
<!-- CommonModule -->
<g id="node8" class="node">
<title>CommonModule</title>
<polygon fill="#8dd3c7" stroke="black" points="1301.67,-84.8 1298.67,-88.8 1277.67,-88.8 1274.67,-84.8 1190.33,-84.8 1190.33,-48.8 1301.67,-48.8 1301.67,-84.8"/>
<text text-anchor="middle" x="1246" y="-62.6" font-family="Times,serif" font-size="14.00">CommonModule</text>
</g>
<!-- CommonModule&#45;&gt;SessionModule -->
<g id="edge7" class="edge">
<title>CommonModule&#45;&gt;SessionModule</title>
<path fill="none" stroke="black" d="M1246,-84.92C1246,-99.58 1246,-117.8 1246,-117.8 1246,-117.8 1107.25,-117.8 1107.25,-117.8"/>
<polygon fill="black" stroke="black" points="1107.25,-114.3 1097.25,-117.8 1107.25,-121.3 1107.25,-114.3"/>
</g>
<!-- HttpClientModule -->
<g id="node9" class="node">
<title>HttpClientModule</title>
<polygon fill="#8dd3c7" stroke="black" points="1172.16,-84.8 1169.16,-88.8 1148.16,-88.8 1145.16,-84.8 1053.84,-84.8 1053.84,-48.8 1172.16,-48.8 1172.16,-84.8"/>
<text text-anchor="middle" x="1113" y="-62.6" font-family="Times,serif" font-size="14.00">HttpClientModule</text>
</g>
<!-- HttpClientModule&#45;&gt;SessionModule -->
<g id="edge8" class="edge">
<title>HttpClientModule&#45;&gt;SessionModule</title>
<path fill="none" stroke="black" d="M1075.42,-84.91C1075.42,-84.91 1075.42,-103.79 1075.42,-103.79"/>
<polygon fill="black" stroke="black" points="1071.92,-103.79 1075.42,-113.79 1078.92,-103.79 1071.92,-103.79"/>
</g>
<!-- MatTableModule -->
<g id="node10" class="node">
<title>MatTableModule</title>
<polygon fill="#8dd3c7" stroke="black" points="1035.97,-84.8 1032.97,-88.8 1011.97,-88.8 1008.97,-84.8 922.03,-84.8 922.03,-48.8 1035.97,-48.8 1035.97,-84.8"/>
<text text-anchor="middle" x="979" y="-62.6" font-family="Times,serif" font-size="14.00">MatTableModule</text>
</g>
<!-- MatTableModule&#45;&gt;SessionModule -->
<g id="edge9" class="edge">
<title>MatTableModule&#45;&gt;SessionModule</title>
<path fill="none" stroke="black" d="M1015.41,-84.91C1015.41,-84.91 1015.41,-103.79 1015.41,-103.79"/>
<polygon fill="black" stroke="black" points="1011.91,-103.79 1015.41,-113.79 1018.91,-103.79 1011.91,-103.79"/>
</g>
<!-- MatPaginatorModule -->
<g id="node11" class="node">
<title>MatPaginatorModule</title>
<polygon fill="#8dd3c7" stroke="black" points="903.76,-84.8 900.76,-88.8 879.76,-88.8 876.76,-84.8 768.24,-84.8 768.24,-48.8 903.76,-48.8 903.76,-84.8"/>
<text text-anchor="middle" x="836" y="-62.6" font-family="Times,serif" font-size="14.00">MatPaginatorModule</text>
</g>
<!-- MatPaginatorModule&#45;&gt;SessionModule -->
<g id="edge10" class="edge">
<title>MatPaginatorModule&#45;&gt;SessionModule</title>
<path fill="none" stroke="black" d="M856.54,-84.92C856.54,-99.58 856.54,-117.8 856.54,-117.8 856.54,-117.8 984.73,-117.8 984.73,-117.8"/>
<polygon fill="black" stroke="black" points="984.73,-121.3 994.73,-117.8 984.73,-114.3 984.73,-121.3"/>
</g>
<!-- MatSortModule -->
<g id="node12" class="node">
<title>MatSortModule</title>
<polygon fill="#8dd3c7" stroke="black" points="749.94,-84.8 746.94,-88.8 725.94,-88.8 722.94,-84.8 644.06,-84.8 644.06,-48.8 749.94,-48.8 749.94,-84.8"/>
<text text-anchor="middle" x="697" y="-62.6" font-family="Times,serif" font-size="14.00">MatSortModule</text>
</g>
<!-- MatSortModule&#45;&gt;SessionModule -->
<g id="edge11" class="edge">
<title>MatSortModule&#45;&gt;SessionModule</title>
<path fill="none" stroke="black" d="M697,-84.81C697,-100.85 697,-121.8 697,-121.8 697,-121.8 984.5,-121.8 984.5,-121.8"/>
<polygon fill="black" stroke="black" points="984.5,-125.3 994.5,-121.8 984.5,-118.3 984.5,-125.3"/>
</g>
<!-- CdTimerModule -->
<g id="node13" class="node">
<title>CdTimerModule</title>
<polygon fill="#8dd3c7" stroke="black" points="626.1,-84.8 623.1,-88.8 602.1,-88.8 599.1,-84.8 515.9,-84.8 515.9,-48.8 626.1,-48.8 626.1,-84.8"/>
<text text-anchor="middle" x="571" y="-62.6" font-family="Times,serif" font-size="14.00">CdTimerModule</text>
</g>
<!-- CdTimerModule&#45;&gt;SessionModule -->
<g id="edge12" class="edge">
<title>CdTimerModule&#45;&gt;SessionModule</title>
<path fill="none" stroke="black" d="M571,-84.82C571,-102.17 571,-125.8 571,-125.8 571,-125.8 984.72,-125.8 984.72,-125.8"/>
<polygon fill="black" stroke="black" points="984.72,-129.3 994.72,-125.8 984.72,-122.3 984.72,-129.3"/>
</g>
<!-- ChipsModule -->
<g id="node14" class="node">
<title>ChipsModule</title>
<polygon fill="#8dd3c7" stroke="black" points="498.23,-84.8 495.23,-88.8 474.23,-88.8 471.23,-84.8 405.77,-84.8 405.77,-48.8 498.23,-48.8 498.23,-84.8"/>
<text text-anchor="middle" x="452" y="-62.6" font-family="Times,serif" font-size="14.00">ChipsModule</text>
</g>
<!-- ChipsModule&#45;&gt;SessionModule -->
<g id="edge13" class="edge">
<title>ChipsModule&#45;&gt;SessionModule</title>
<path fill="none" stroke="black" d="M452,-85.02C452,-103.63 452,-129.8 452,-129.8 452,-129.8 984.58,-129.8 984.58,-129.8"/>
<polygon fill="black" stroke="black" points="984.58,-133.3 994.58,-129.8 984.58,-126.3 984.58,-133.3"/>
</g>
<!-- InputTextareaModule -->
<g id="node15" class="node">
<title>InputTextareaModule</title>
<polygon fill="#8dd3c7" stroke="black" points="388.06,-84.8 385.06,-88.8 364.06,-88.8 361.06,-84.8 249.94,-84.8 249.94,-48.8 388.06,-48.8 388.06,-84.8"/>
<text text-anchor="middle" x="319" y="-62.6" font-family="Times,serif" font-size="14.00">InputTextareaModule</text>
</g>
<!-- InputTextareaModule&#45;&gt;SessionModule -->
<g id="edge14" class="edge">
<title>InputTextareaModule&#45;&gt;SessionModule</title>
<path fill="none" stroke="black" d="M319,-85.11C319,-104.95 319,-133.8 319,-133.8 319,-133.8 984.59,-133.8 984.59,-133.8"/>
<polygon fill="black" stroke="black" points="984.59,-137.3 994.59,-133.8 984.59,-130.3 984.59,-137.3"/>
</g>
<!-- TableModule -->
<g id="node16" class="node">
<title>TableModule</title>
<polygon fill="#8dd3c7" stroke="black" points="231.92,-84.8 228.92,-88.8 207.92,-88.8 204.92,-84.8 140.08,-84.8 140.08,-48.8 231.92,-48.8 231.92,-84.8"/>
<text text-anchor="middle" x="186" y="-62.6" font-family="Times,serif" font-size="14.00">TableModule</text>
</g>
<!-- TableModule&#45;&gt;SessionModule -->
<g id="edge15" class="edge">
<title>TableModule&#45;&gt;SessionModule</title>
<path fill="none" stroke="black" d="M186,-85.08C186,-106.12 186,-137.8 186,-137.8 186,-137.8 984.78,-137.8 984.78,-137.8"/>
<polygon fill="black" stroke="black" points="984.78,-141.3 994.78,-137.8 984.78,-134.3 984.78,-141.3"/>
</g>
<!-- ButtonModule -->
<g id="node17" class="node">
<title>ButtonModule</title>
<polygon fill="#8dd3c7" stroke="black" points="121.67,-84.8 118.67,-88.8 97.67,-88.8 94.67,-84.8 24.33,-84.8 24.33,-48.8 121.67,-48.8 121.67,-84.8"/>
<text text-anchor="middle" x="73" y="-62.6" font-family="Times,serif" font-size="14.00">ButtonModule</text>
</g>
<!-- ButtonModule&#45;&gt;SessionModule -->
<g id="edge16" class="edge">
<title>ButtonModule&#45;&gt;SessionModule</title>
<path fill="none" stroke="black" d="M73,-84.96C73,-107.15 73,-141.8 73,-141.8 73,-141.8 984.72,-141.8 984.72,-141.8"/>
<polygon fill="black" stroke="black" points="984.72,-145.3 994.72,-141.8 984.72,-138.3 984.72,-145.3"/>
</g>
</g>
</svg>
