<?xml version="1.0" encoding="UTF-8" standalone="no"?>
<!DOCTYPE svg PUBLIC "-//W3C//DTD SVG 1.1//EN"
 "http://www.w3.org/Graphics/SVG/1.1/DTD/svg11.dtd">
<!-- Generated by graphviz version 5.0.0 (20220707.1540)
 -->
<!-- Title: dependencies Pages: 1 -->
<svg width="2371pt" height="247pt"
 viewBox="0.00 0.00 2371.00 246.80" xmlns="http://www.w3.org/2000/svg" xmlns:xlink="http://www.w3.org/1999/xlink">
<g id="graph0" class="graph" transform="scale(1 1) rotate(0) translate(4 242.8)">
<title>dependencies</title>
<polygon fill="white" stroke="transparent" points="-4,4 -4,-242.8 2367,-242.8 2367,4 -4,4"/>
<text text-anchor="middle" x="1181.5" y="-8.2" font-family="sans-serif" font-size="14.00">dependencies</text>
<g id="clust1" class="cluster">
<title>cluster_SessionModule</title>
<polygon fill="none" stroke="black" stroke-dasharray="1,5" points="8,-32.8 8,-230.8 2355,-230.8 2355,-32.8 8,-32.8"/>
</g>
<g id="clust2" class="cluster">
<title>cluster_SessionModule_declarations</title>
<polygon fill="none" stroke="black" points="1825,-40.8 1825,-92.8 2347,-92.8 2347,-40.8 1825,-40.8"/>
</g>
<g id="clust7" class="cluster">
<title>cluster_SessionModule_exports</title>
<polygon fill="none" stroke="black" points="836,-170.8 836,-222.8 1370,-222.8 1370,-170.8 836,-170.8"/>
</g>
<g id="clust6" class="cluster">
<title>cluster_SessionModule_imports</title>
<polygon fill="none" stroke="black" points="16,-40.8 16,-92.8 1817,-92.8 1817,-40.8 16,-40.8"/>
</g>
<!-- DisplaySessionComponent -->
<g id="node1" class="node">
<title>DisplaySessionComponent</title>
<polygon fill="#ffffb3" stroke="black" points="2338.67,-84.8 2171.33,-84.8 2171.33,-48.8 2338.67,-48.8 2338.67,-84.8"/>
<text text-anchor="middle" x="2255" y="-62.6" font-family="Times,serif" font-size="14.00">DisplaySessionComponent</text>
</g>
<!-- SessionModule -->
<g id="node4" class="node">
<title>SessionModule</title>
<polygon fill="#8dd3c7" stroke="black" points="1132.34,-149.8 1129.34,-153.8 1108.34,-153.8 1105.34,-149.8 1029.66,-149.8 1029.66,-113.8 1132.34,-113.8 1132.34,-149.8"/>
<text text-anchor="middle" x="1081" y="-127.6" font-family="Times,serif" font-size="14.00">SessionModule</text>
</g>
<!-- DisplaySessionComponent&#45;&gt;SessionModule -->
<g id="edge1" class="edge">
<title>DisplaySessionComponent&#45;&gt;SessionModule</title>
<path fill="none" stroke="black" d="M2255,-84.81C2255,-107.29 2255,-142.8 2255,-142.8 2255,-142.8 1142.2,-142.8 1142.2,-142.8"/>
<polygon fill="black" stroke="black" points="1142.2,-139.3 1132.2,-142.8 1142.2,-146.3 1142.2,-139.3"/>
</g>
<!-- PreviousSessionsComponent -->
<g id="node2" class="node">
<title>PreviousSessionsComponent</title>
<polygon fill="#ffffb3" stroke="black" points="2153.07,-84.8 1974.93,-84.8 1974.93,-48.8 2153.07,-48.8 2153.07,-84.8"/>
<text text-anchor="middle" x="2064" y="-62.6" font-family="Times,serif" font-size="14.00">PreviousSessionsComponent</text>
</g>
<!-- PreviousSessionsComponent&#45;&gt;SessionModule -->
<g id="edge2" class="edge">
<title>PreviousSessionsComponent&#45;&gt;SessionModule</title>
<path fill="none" stroke="black" d="M2064,-84.84C2064,-106.46 2064,-139.8 2064,-139.8 2064,-139.8 1142.47,-139.8 1142.47,-139.8"/>
<polygon fill="black" stroke="black" points="1142.47,-136.3 1132.47,-139.8 1142.47,-143.3 1142.47,-136.3"/>
</g>
<!-- SessionComponent -->
<g id="node3" class="node">
<title>SessionComponent</title>
<polygon fill="#ffffb3" stroke="black" points="1957.12,-84.8 1832.88,-84.8 1832.88,-48.8 1957.12,-48.8 1957.12,-84.8"/>
<text text-anchor="middle" x="1895" y="-62.6" font-family="Times,serif" font-size="14.00">SessionComponent</text>
</g>
<!-- SessionComponent&#45;&gt;SessionModule -->
<g id="edge3" class="edge">
<title>SessionComponent&#45;&gt;SessionModule</title>
<path fill="none" stroke="black" d="M1895,-84.93C1895,-105.37 1895,-135.8 1895,-135.8 1895,-135.8 1142.23,-135.8 1142.23,-135.8"/>
<polygon fill="black" stroke="black" points="1142.23,-132.3 1132.23,-135.8 1142.23,-139.3 1142.23,-132.3"/>
</g>
<!-- DisplaySessionComponent  -->
<g id="node19" class="node">
<title>DisplaySessionComponent </title>
<polygon fill="#fb8072" stroke="black" points="1361.67,-214.8 1190.33,-214.8 1190.33,-178.8 1361.67,-178.8 1361.67,-214.8"/>
<text text-anchor="middle" x="1276" y="-192.6" font-family="Times,serif" font-size="14.00">DisplaySessionComponent </text>
</g>
<!-- SessionModule&#45;&gt;DisplaySessionComponent  -->
<g id="edge18" class="edge">
<title>SessionModule&#45;&gt;DisplaySessionComponent </title>
<path fill="none" stroke="black" stroke-dasharray="5,2" d="M1132.25,-146.8C1176.16,-146.8 1232.37,-146.8 1232.37,-146.8 1232.37,-146.8 1232.37,-168.75 1232.37,-168.75"/>
<polygon fill="black" stroke="black" points="1228.87,-168.75 1232.37,-178.75 1235.87,-168.75 1228.87,-168.75"/>
</g>
<!-- PreviousSessionsComponent  -->
<g id="node20" class="node">
<title>PreviousSessionsComponent </title>
<polygon fill="#fb8072" stroke="black" points="1172.07,-214.8 989.93,-214.8 989.93,-178.8 1172.07,-178.8 1172.07,-214.8"/>
<text text-anchor="middle" x="1081" y="-192.6" font-family="Times,serif" font-size="14.00">PreviousSessionsComponent </text>
</g>
<!-- SessionModule&#45;&gt;PreviousSessionsComponent  -->
<g id="edge19" class="edge">
<title>SessionModule&#45;&gt;PreviousSessionsComponent </title>
<path fill="none" stroke="black" stroke-dasharray="5,2" d="M1081,-149.91C1081,-149.91 1081,-168.79 1081,-168.79"/>
<polygon fill="black" stroke="black" points="1077.5,-168.79 1081,-178.79 1084.5,-168.79 1077.5,-168.79"/>
</g>
<!-- SessionComponent  -->
<g id="node21" class="node">
<title>SessionComponent </title>
<polygon fill="#fb8072" stroke="black" points="971.62,-214.8 844.38,-214.8 844.38,-178.8 971.62,-178.8 971.62,-214.8"/>
<text text-anchor="middle" x="908" y="-192.6" font-family="Times,serif" font-size="14.00">SessionComponent </text>
</g>
<!-- SessionModule&#45;&gt;SessionComponent  -->
<g id="edge20" class="edge">
<title>SessionModule&#45;&gt;SessionComponent </title>
<path fill="none" stroke="black" stroke-dasharray="5,2" d="M1029.48,-146.8C982.7,-146.8 920.96,-146.8 920.96,-146.8 920.96,-146.8 920.96,-168.75 920.96,-168.75"/>
<polygon fill="black" stroke="black" points="917.46,-168.75 920.96,-178.75 924.46,-168.75 917.46,-168.75"/>
</g>
<!-- ReactiveFormsModule -->
<g id="node5" class="node">
<title>ReactiveFormsModule</title>
<polygon fill="#8dd3c7" stroke="black" points="1809.31,-84.8 1806.31,-88.8 1785.31,-88.8 1782.31,-84.8 1664.69,-84.8 1664.69,-48.8 1809.31,-48.8 1809.31,-84.8"/>
<text text-anchor="middle" x="1737" y="-62.6" font-family="Times,serif" font-size="14.00">ReactiveFormsModule</text>
</g>
<!-- ReactiveFormsModule&#45;&gt;SessionModule -->
<g id="edge4" class="edge">
<title>ReactiveFormsModule&#45;&gt;SessionModule</title>
<path fill="none" stroke="black" d="M1737,-84.91C1737,-104.14 1737,-131.8 1737,-131.8 1737,-131.8 1142.2,-131.8 1142.2,-131.8"/>
<polygon fill="black" stroke="black" points="1142.2,-128.3 1132.2,-131.8 1142.2,-135.3 1142.2,-128.3"/>
</g>
<!-- FormsModule -->
<g id="node6" class="node">
<title>FormsModule</title>
<polygon fill="#8dd3c7" stroke="black" points="1646.84,-84.8 1643.84,-88.8 1622.84,-88.8 1619.84,-84.8 1551.16,-84.8 1551.16,-48.8 1646.84,-48.8 1646.84,-84.8"/>
<text text-anchor="middle" x="1599" y="-62.6" font-family="Times,serif" font-size="14.00">FormsModule</text>
</g>
<!-- FormsModule&#45;&gt;SessionModule -->
<g id="edge5" class="edge">
<title>FormsModule&#45;&gt;SessionModule</title>
<path fill="none" stroke="black" d="M1599,-85.07C1599,-103.36 1599,-128.8 1599,-128.8 1599,-128.8 1142.56,-128.8 1142.56,-128.8"/>
<polygon fill="black" stroke="black" points="1142.56,-125.3 1132.56,-128.8 1142.56,-132.3 1142.56,-125.3"/>
</g>
<!-- MatInputModule -->
<g id="node7" class="node">
<title>MatInputModule</title>
<polygon fill="#8dd3c7" stroke="black" points="1533.66,-84.8 1530.66,-88.8 1509.66,-88.8 1506.66,-84.8 1422.34,-84.8 1422.34,-48.8 1533.66,-48.8 1533.66,-84.8"/>
<text text-anchor="middle" x="1478" y="-62.6" font-family="Times,serif" font-size="14.00">MatInputModule</text>
</g>
<!-- MatInputModule&#45;&gt;SessionModule -->
<g id="edge6" class="edge">
<title>MatInputModule&#45;&gt;SessionModule</title>
<path fill="none" stroke="black" d="M1478,-84.83C1478,-101.86 1478,-124.8 1478,-124.8 1478,-124.8 1142.49,-124.8 1142.49,-124.8"/>
<polygon fill="black" stroke="black" points="1142.49,-121.3 1132.49,-124.8 1142.49,-128.3 1142.49,-121.3"/>
</g>
<!-- CommonModule -->
<g id="node8" class="node">
<title>CommonModule</title>
<polygon fill="#8dd3c7" stroke="black" points="1403.67,-84.8 1400.67,-88.8 1379.67,-88.8 1376.67,-84.8 1292.33,-84.8 1292.33,-48.8 1403.67,-48.8 1403.67,-84.8"/>
<text text-anchor="middle" x="1348" y="-62.6" font-family="Times,serif" font-size="14.00">CommonModule</text>
</g>
<!-- CommonModule&#45;&gt;SessionModule -->
<g id="edge7" class="edge">
<title>CommonModule&#45;&gt;SessionModule</title>
<path fill="none" stroke="black" d="M1326.88,-84.81C1326.88,-100.85 1326.88,-121.8 1326.88,-121.8 1326.88,-121.8 1142.24,-121.8 1142.24,-121.8"/>
<polygon fill="black" stroke="black" points="1142.24,-118.3 1132.24,-121.8 1142.24,-125.3 1142.24,-118.3"/>
</g>
<!-- HttpClientModule -->
<g id="node9" class="node">
<title>HttpClientModule</title>
<polygon fill="#8dd3c7" stroke="black" points="1274.16,-84.8 1271.16,-88.8 1250.16,-88.8 1247.16,-84.8 1155.84,-84.8 1155.84,-48.8 1274.16,-48.8 1274.16,-84.8"/>
<text text-anchor="middle" x="1215" y="-62.6" font-family="Times,serif" font-size="14.00">HttpClientModule</text>
</g>
<!-- HttpClientModule&#45;&gt;SessionModule -->
<g id="edge8" class="edge">
<title>HttpClientModule&#45;&gt;SessionModule</title>
<path fill="none" stroke="black" d="M1163.85,-84.92C1163.85,-99.58 1163.85,-117.8 1163.85,-117.8 1163.85,-117.8 1142.53,-117.8 1142.53,-117.8"/>
<polygon fill="black" stroke="black" points="1142.53,-114.3 1132.53,-117.8 1142.53,-121.3 1142.53,-114.3"/>
</g>
<!-- MatTableModule -->
<g id="node10" class="node">
<title>MatTableModule</title>
<polygon fill="#8dd3c7" stroke="black" points="1137.97,-84.8 1134.97,-88.8 1113.97,-88.8 1110.97,-84.8 1024.03,-84.8 1024.03,-48.8 1137.97,-48.8 1137.97,-84.8"/>
<text text-anchor="middle" x="1081" y="-62.6" font-family="Times,serif" font-size="14.00">MatTableModule</text>
</g>
<!-- MatTableModule&#45;&gt;SessionModule -->
<g id="edge9" class="edge">
<title>MatTableModule&#45;&gt;SessionModule</title>
<path fill="none" stroke="black" d="M1081,-84.91C1081,-84.91 1081,-103.79 1081,-103.79"/>
<polygon fill="black" stroke="black" points="1077.5,-103.79 1081,-113.79 1084.5,-103.79 1077.5,-103.79"/>
</g>
<!-- MatPaginatorModule -->
<g id="node11" class="node">
<title>MatPaginatorModule</title>
<polygon fill="#8dd3c7" stroke="black" points="1005.76,-84.8 1002.76,-88.8 981.76,-88.8 978.76,-84.8 870.24,-84.8 870.24,-48.8 1005.76,-48.8 1005.76,-84.8"/>
<text text-anchor="middle" x="938" y="-62.6" font-family="Times,serif" font-size="14.00">MatPaginatorModule</text>
</g>
<!-- MatPaginatorModule&#45;&gt;SessionModule -->
<g id="edge10" class="edge">
<title>MatPaginatorModule&#45;&gt;SessionModule</title>
<path fill="none" stroke="black" d="M997.92,-84.92C997.92,-99.58 997.92,-117.8 997.92,-117.8 997.92,-117.8 1019.81,-117.8 1019.81,-117.8"/>
<polygon fill="black" stroke="black" points="1019.81,-121.3 1029.81,-117.8 1019.81,-114.3 1019.81,-121.3"/>
</g>
<!-- MatSortModule -->
<g id="node12" class="node">
<title>MatSortModule</title>
<polygon fill="#8dd3c7" stroke="black" points="851.94,-84.8 848.94,-88.8 827.94,-88.8 824.94,-84.8 746.06,-84.8 746.06,-48.8 851.94,-48.8 851.94,-84.8"/>
<text text-anchor="middle" x="799" y="-62.6" font-family="Times,serif" font-size="14.00">MatSortModule</text>
</g>
<!-- MatSortModule&#45;&gt;SessionModule -->
<g id="edge11" class="edge">
<title>MatSortModule&#45;&gt;SessionModule</title>
<path fill="none" stroke="black" d="M847.96,-84.81C847.96,-100.85 847.96,-121.8 847.96,-121.8 847.96,-121.8 1019.57,-121.8 1019.57,-121.8"/>
<polygon fill="black" stroke="black" points="1019.57,-125.3 1029.57,-121.8 1019.57,-118.3 1019.57,-125.3"/>
</g>
<!-- CdTimerModule -->
<g id="node13" class="node">
<title>CdTimerModule</title>
<polygon fill="#8dd3c7" stroke="black" points="728.1,-84.8 725.1,-88.8 704.1,-88.8 701.1,-84.8 617.9,-84.8 617.9,-48.8 728.1,-48.8 728.1,-84.8"/>
<text text-anchor="middle" x="673" y="-62.6" font-family="Times,serif" font-size="14.00">CdTimerModule</text>
</g>
<!-- CdTimerModule&#45;&gt;SessionModule -->
<g id="edge12" class="edge">
<title>CdTimerModule&#45;&gt;SessionModule</title>
<path fill="none" stroke="black" d="M673,-84.83C673,-101.86 673,-124.8 673,-124.8 673,-124.8 1019.74,-124.8 1019.74,-124.8"/>
<polygon fill="black" stroke="black" points="1019.74,-128.3 1029.74,-124.8 1019.74,-121.3 1019.74,-128.3"/>
</g>
<!-- ChipsModule -->
<g id="node14" class="node">
<title>ChipsModule</title>
<polygon fill="#8dd3c7" stroke="black" points="600.23,-84.8 597.23,-88.8 576.23,-88.8 573.23,-84.8 507.77,-84.8 507.77,-48.8 600.23,-48.8 600.23,-84.8"/>
<text text-anchor="middle" x="554" y="-62.6" font-family="Times,serif" font-size="14.00">ChipsModule</text>
</g>
<!-- ChipsModule&#45;&gt;SessionModule -->
<g id="edge13" class="edge">
<title>ChipsModule&#45;&gt;SessionModule</title>
<path fill="none" stroke="black" d="M554,-85.07C554,-103.36 554,-128.8 554,-128.8 554,-128.8 1019.51,-128.8 1019.51,-128.8"/>
<polygon fill="black" stroke="black" points="1019.51,-132.3 1029.51,-128.8 1019.51,-125.3 1019.51,-132.3"/>
</g>
<!-- InputTextareaModule -->
<g id="node15" class="node">
<title>InputTextareaModule</title>
<polygon fill="#8dd3c7" stroke="black" points="490.06,-84.8 487.06,-88.8 466.06,-88.8 463.06,-84.8 351.94,-84.8 351.94,-48.8 490.06,-48.8 490.06,-84.8"/>
<text text-anchor="middle" x="421" y="-62.6" font-family="Times,serif" font-size="14.00">InputTextareaModule</text>
</g>
<!-- InputTextareaModule&#45;&gt;SessionModule -->
<g id="edge14" class="edge">
<title>InputTextareaModule&#45;&gt;SessionModule</title>
<path fill="none" stroke="black" d="M421,-84.91C421,-104.14 421,-131.8 421,-131.8 421,-131.8 1019.76,-131.8 1019.76,-131.8"/>
<polygon fill="black" stroke="black" points="1019.76,-135.3 1029.76,-131.8 1019.76,-128.3 1019.76,-135.3"/>
</g>
<!-- TableModule -->
<g id="node16" class="node">
<title>TableModule</title>
<polygon fill="#8dd3c7" stroke="black" points="333.92,-84.8 330.92,-88.8 309.92,-88.8 306.92,-84.8 242.08,-84.8 242.08,-48.8 333.92,-48.8 333.92,-84.8"/>
<text text-anchor="middle" x="288" y="-62.6" font-family="Times,serif" font-size="14.00">TableModule</text>
</g>
<!-- TableModule&#45;&gt;SessionModule -->
<g id="edge15" class="edge">
<title>TableModule&#45;&gt;SessionModule</title>
<path fill="none" stroke="black" d="M288,-84.93C288,-105.37 288,-135.8 288,-135.8 288,-135.8 1019.58,-135.8 1019.58,-135.8"/>
<polygon fill="black" stroke="black" points="1019.58,-139.3 1029.58,-135.8 1019.58,-132.3 1019.58,-139.3"/>
</g>
<!-- ButtonModule -->
<g id="node17" class="node">
<title>ButtonModule</title>
<polygon fill="#8dd3c7" stroke="black" points="223.67,-84.8 220.67,-88.8 199.67,-88.8 196.67,-84.8 126.33,-84.8 126.33,-48.8 223.67,-48.8 223.67,-84.8"/>
<text text-anchor="middle" x="175" y="-62.6" font-family="Times,serif" font-size="14.00">ButtonModule</text>
</g>
<!-- ButtonModule&#45;&gt;SessionModule -->
<g id="edge16" class="edge">
<title>ButtonModule&#45;&gt;SessionModule</title>
<path fill="none" stroke="black" d="M175,-84.84C175,-106.46 175,-139.8 175,-139.8 175,-139.8 1019.69,-139.8 1019.69,-139.8"/>
<polygon fill="black" stroke="black" points="1019.69,-143.3 1029.69,-139.8 1019.69,-136.3 1019.69,-143.3"/>
</g>
<!-- AppModule -->
<g id="node18" class="node">
<title>AppModule</title>
<polygon fill="#8dd3c7" stroke="black" points="107.66,-84.8 104.66,-88.8 83.66,-88.8 80.66,-84.8 24.34,-84.8 24.34,-48.8 107.66,-48.8 107.66,-84.8"/>
<text text-anchor="middle" x="66" y="-62.6" font-family="Times,serif" font-size="14.00">AppModule</text>
</g>
<!-- AppModule&#45;&gt;SessionModule -->
<g id="edge17" class="edge">
<title>AppModule&#45;&gt;SessionModule</title>
<path fill="none" stroke="black" d="M66,-84.81C66,-107.29 66,-142.8 66,-142.8 66,-142.8 1019.62,-142.8 1019.62,-142.8"/>
<polygon fill="black" stroke="black" points="1019.62,-146.3 1029.62,-142.8 1019.62,-139.3 1019.62,-146.3"/>
</g>
</g>
</svg>
