<?xml version="1.0" encoding="UTF-8" standalone="no"?>
<!DOCTYPE svg PUBLIC "-//W3C//DTD SVG 1.1//EN"
 "http://www.w3.org/Graphics/SVG/1.1/DTD/svg11.dtd">
<!-- Generated by graphviz version 5.0.0 (20220707.1540)
 -->
<!-- Title: dependencies Pages: 1 -->
<svg width="2693pt" height="247pt"
 viewBox="0.00 0.00 2693.00 246.80" xmlns="http://www.w3.org/2000/svg" xmlns:xlink="http://www.w3.org/1999/xlink">
<g id="graph0" class="graph" transform="scale(1 1) rotate(0) translate(4 242.8)">
<title>dependencies</title>
<polygon fill="white" stroke="transparent" points="-4,4 -4,-242.8 2689,-242.8 2689,4 -4,4"/>
<text text-anchor="middle" x="1342.5" y="-8.2" font-family="sans-serif" font-size="14.00">dependencies</text>
<g id="clust1" class="cluster">
<title>cluster_SessionModule</title>
<polygon fill="none" stroke="black" stroke-dasharray="1,5" points="8,-32.8 8,-230.8 2677,-230.8 2677,-32.8 8,-32.8"/>
</g>
<g id="clust2" class="cluster">
<title>cluster_SessionModule_declarations</title>
<polygon fill="none" stroke="black" points="1723,-40.8 1723,-92.8 2669,-92.8 2669,-40.8 1723,-40.8"/>
</g>
<g id="clust9" class="cluster">
<title>cluster_SessionModule_exports</title>
<polygon fill="none" stroke="black" points="934,-170.8 934,-222.8 1468,-222.8 1468,-170.8 934,-170.8"/>
</g>
<g id="clust8" class="cluster">
<title>cluster_SessionModule_imports</title>
<polygon fill="none" stroke="black" points="16,-40.8 16,-92.8 1715,-92.8 1715,-40.8 16,-40.8"/>
</g>
<!-- DisplaySessionComponent -->
<g id="node1" class="node">
<title>DisplaySessionComponent</title>
<polygon fill="#ffffb3" stroke="black" points="2660.67,-84.8 2493.33,-84.8 2493.33,-48.8 2660.67,-48.8 2660.67,-84.8"/>
<text text-anchor="middle" x="2577" y="-62.6" font-family="Times,serif" font-size="14.00">DisplaySessionComponent</text>
</g>
<!-- SessionModule -->
<g id="node6" class="node">
<title>SessionModule</title>
<polygon fill="#8dd3c7" stroke="black" points="1230.34,-149.8 1227.34,-153.8 1206.34,-153.8 1203.34,-149.8 1127.66,-149.8 1127.66,-113.8 1230.34,-113.8 1230.34,-149.8"/>
<text text-anchor="middle" x="1179" y="-127.6" font-family="Times,serif" font-size="14.00">SessionModule</text>
</g>
<!-- DisplaySessionComponent&#45;&gt;SessionModule -->
<g id="edge1" class="edge">
<title>DisplaySessionComponent&#45;&gt;SessionModule</title>
<path fill="none" stroke="black" d="M2577,-84.81C2577,-107.29 2577,-142.8 2577,-142.8 2577,-142.8 1240.41,-142.8 1240.41,-142.8"/>
<polygon fill="black" stroke="black" points="1240.41,-139.3 1230.41,-142.8 1240.41,-146.3 1240.41,-139.3"/>
</g>
<!-- PreviousSessionsComponent -->
<g id="node2" class="node">
<title>PreviousSessionsComponent</title>
<polygon fill="#ffffb3" stroke="black" points="2475.07,-84.8 2296.93,-84.8 2296.93,-48.8 2475.07,-48.8 2475.07,-84.8"/>
<text text-anchor="middle" x="2386" y="-62.6" font-family="Times,serif" font-size="14.00">PreviousSessionsComponent</text>
</g>
<!-- PreviousSessionsComponent&#45;&gt;SessionModule -->
<g id="edge2" class="edge">
<title>PreviousSessionsComponent&#45;&gt;SessionModule</title>
<path fill="none" stroke="black" d="M2386,-84.84C2386,-106.46 2386,-139.8 2386,-139.8 2386,-139.8 1240.48,-139.8 1240.48,-139.8"/>
<polygon fill="black" stroke="black" points="1240.48,-136.3 1230.48,-139.8 1240.48,-143.3 1240.48,-136.3"/>
</g>
<!-- SessionResourceComponent -->
<g id="node3" class="node">
<title>SessionResourceComponent</title>
<polygon fill="#ffffb3" stroke="black" points="2279.21,-84.8 2102.79,-84.8 2102.79,-48.8 2279.21,-48.8 2279.21,-84.8"/>
<text text-anchor="middle" x="2191" y="-62.6" font-family="Times,serif" font-size="14.00">SessionResourceComponent</text>
</g>
<!-- SessionResourceComponent&#45;&gt;SessionModule -->
<g id="edge3" class="edge">
<title>SessionResourceComponent&#45;&gt;SessionModule</title>
<path fill="none" stroke="black" d="M2191,-84.93C2191,-105.37 2191,-135.8 2191,-135.8 2191,-135.8 1240.23,-135.8 1240.23,-135.8"/>
<polygon fill="black" stroke="black" points="1240.23,-132.3 1230.23,-135.8 1240.23,-139.3 1240.23,-132.3"/>
</g>
<!-- SessionResourcePickerComponent -->
<g id="node4" class="node">
<title>SessionResourcePickerComponent</title>
<polygon fill="#ffffb3" stroke="black" points="2084.97,-84.8 1873.03,-84.8 1873.03,-48.8 2084.97,-48.8 2084.97,-84.8"/>
<text text-anchor="middle" x="1979" y="-62.6" font-family="Times,serif" font-size="14.00">SessionResourcePickerComponent</text>
</g>
<!-- SessionResourcePickerComponent&#45;&gt;SessionModule -->
<g id="edge4" class="edge">
<title>SessionResourcePickerComponent&#45;&gt;SessionModule</title>
<path fill="none" stroke="black" d="M1979,-84.91C1979,-104.14 1979,-131.8 1979,-131.8 1979,-131.8 1240.26,-131.8 1240.26,-131.8"/>
<polygon fill="black" stroke="black" points="1240.26,-128.3 1230.26,-131.8 1240.26,-135.3 1240.26,-128.3"/>
</g>
<!-- SessionComponent -->
<g id="node5" class="node">
<title>SessionComponent</title>
<polygon fill="#ffffb3" stroke="black" points="1855.12,-84.8 1730.88,-84.8 1730.88,-48.8 1855.12,-48.8 1855.12,-84.8"/>
<text text-anchor="middle" x="1793" y="-62.6" font-family="Times,serif" font-size="14.00">SessionComponent</text>
</g>
<!-- SessionComponent&#45;&gt;SessionModule -->
<g id="edge5" class="edge">
<title>SessionComponent&#45;&gt;SessionModule</title>
<path fill="none" stroke="black" d="M1793,-85.07C1793,-103.36 1793,-128.8 1793,-128.8 1793,-128.8 1240.29,-128.8 1240.29,-128.8"/>
<polygon fill="black" stroke="black" points="1240.29,-125.3 1230.29,-128.8 1240.29,-132.3 1240.29,-125.3"/>
</g>
<!-- DisplaySessionComponent  -->
<g id="node20" class="node">
<title>DisplaySessionComponent </title>
<polygon fill="#fb8072" stroke="black" points="1459.67,-214.8 1288.33,-214.8 1288.33,-178.8 1459.67,-178.8 1459.67,-214.8"/>
<text text-anchor="middle" x="1374" y="-192.6" font-family="Times,serif" font-size="14.00">DisplaySessionComponent </text>
</g>
<!-- SessionModule&#45;&gt;DisplaySessionComponent  -->
<g id="edge19" class="edge">
<title>SessionModule&#45;&gt;DisplaySessionComponent </title>
<path fill="none" stroke="black" stroke-dasharray="5,2" d="M1230.27,-146.8C1261.38,-146.8 1295.12,-146.8 1295.12,-146.8 1295.12,-146.8 1295.12,-168.75 1295.12,-168.75"/>
<polygon fill="black" stroke="black" points="1291.63,-168.75 1295.12,-178.75 1298.63,-168.75 1291.63,-168.75"/>
</g>
<!-- PreviousSessionsComponent  -->
<g id="node21" class="node">
<title>PreviousSessionsComponent </title>
<polygon fill="#fb8072" stroke="black" points="1270.07,-214.8 1087.93,-214.8 1087.93,-178.8 1270.07,-178.8 1270.07,-214.8"/>
<text text-anchor="middle" x="1179" y="-192.6" font-family="Times,serif" font-size="14.00">PreviousSessionsComponent </text>
</g>
<!-- SessionModule&#45;&gt;PreviousSessionsComponent  -->
<g id="edge20" class="edge">
<title>SessionModule&#45;&gt;PreviousSessionsComponent </title>
<path fill="none" stroke="black" stroke-dasharray="5,2" d="M1179,-149.91C1179,-149.91 1179,-168.79 1179,-168.79"/>
<polygon fill="black" stroke="black" points="1175.5,-168.79 1179,-178.79 1182.5,-168.79 1175.5,-168.79"/>
</g>
<!-- SessionComponent  -->
<g id="node22" class="node">
<title>SessionComponent </title>
<polygon fill="#fb8072" stroke="black" points="1069.62,-214.8 942.38,-214.8 942.38,-178.8 1069.62,-178.8 1069.62,-214.8"/>
<text text-anchor="middle" x="1006" y="-192.6" font-family="Times,serif" font-size="14.00">SessionComponent </text>
</g>
<!-- SessionModule&#45;&gt;SessionComponent  -->
<g id="edge21" class="edge">
<title>SessionModule&#45;&gt;SessionComponent </title>
<path fill="none" stroke="black" stroke-dasharray="5,2" d="M1127.57,-146.8C1096.06,-146.8 1061.74,-146.8 1061.74,-146.8 1061.74,-146.8 1061.74,-168.75 1061.74,-168.75"/>
<polygon fill="black" stroke="black" points="1058.24,-168.75 1061.74,-178.75 1065.24,-168.75 1058.24,-168.75"/>
</g>
<!-- ReactiveFormsModule -->
<g id="node7" class="node">
<title>ReactiveFormsModule</title>
<polygon fill="#8dd3c7" stroke="black" points="1707.31,-84.8 1704.31,-88.8 1683.31,-88.8 1680.31,-84.8 1562.69,-84.8 1562.69,-48.8 1707.31,-48.8 1707.31,-84.8"/>
<text text-anchor="middle" x="1635" y="-62.6" font-family="Times,serif" font-size="14.00">ReactiveFormsModule</text>
</g>
<!-- ReactiveFormsModule&#45;&gt;SessionModule -->
<g id="edge6" class="edge">
<title>ReactiveFormsModule&#45;&gt;SessionModule</title>
<path fill="none" stroke="black" d="M1635,-84.83C1635,-101.86 1635,-124.8 1635,-124.8 1635,-124.8 1240.42,-124.8 1240.42,-124.8"/>
<polygon fill="black" stroke="black" points="1240.42,-121.3 1230.42,-124.8 1240.42,-128.3 1240.42,-121.3"/>
</g>
<!-- FormsModule -->
<g id="node8" class="node">
<title>FormsModule</title>
<polygon fill="#8dd3c7" stroke="black" points="1544.84,-84.8 1541.84,-88.8 1520.84,-88.8 1517.84,-84.8 1449.16,-84.8 1449.16,-48.8 1544.84,-48.8 1544.84,-84.8"/>
<text text-anchor="middle" x="1497" y="-62.6" font-family="Times,serif" font-size="14.00">FormsModule</text>
</g>
<!-- FormsModule&#45;&gt;SessionModule -->
<g id="edge7" class="edge">
<title>FormsModule&#45;&gt;SessionModule</title>
<path fill="none" stroke="black" d="M1454.46,-84.81C1454.46,-100.85 1454.46,-121.8 1454.46,-121.8 1454.46,-121.8 1240.49,-121.8 1240.49,-121.8"/>
<polygon fill="black" stroke="black" points="1240.49,-118.3 1230.49,-121.8 1240.49,-125.3 1240.49,-118.3"/>
</g>
<!-- MatInputModule -->
<g id="node9" class="node">
<title>MatInputModule</title>
<polygon fill="#8dd3c7" stroke="black" points="1431.66,-84.8 1428.66,-88.8 1407.66,-88.8 1404.66,-84.8 1320.34,-84.8 1320.34,-48.8 1431.66,-48.8 1431.66,-84.8"/>
<text text-anchor="middle" x="1376" y="-62.6" font-family="Times,serif" font-size="14.00">MatInputModule</text>
</g>
<!-- MatInputModule&#45;&gt;SessionModule -->
<g id="edge8" class="edge">
<title>MatInputModule&#45;&gt;SessionModule</title>
<path fill="none" stroke="black" d="M1376,-84.92C1376,-99.58 1376,-117.8 1376,-117.8 1376,-117.8 1240.25,-117.8 1240.25,-117.8"/>
<polygon fill="black" stroke="black" points="1240.25,-114.3 1230.25,-117.8 1240.25,-121.3 1240.25,-114.3"/>
</g>
<!-- CommonModule -->
<g id="node10" class="node">
<title>CommonModule</title>
<polygon fill="#8dd3c7" stroke="black" points="1301.67,-84.8 1298.67,-88.8 1277.67,-88.8 1274.67,-84.8 1190.33,-84.8 1190.33,-48.8 1301.67,-48.8 1301.67,-84.8"/>
<text text-anchor="middle" x="1246" y="-62.6" font-family="Times,serif" font-size="14.00">CommonModule</text>
</g>
<!-- CommonModule&#45;&gt;SessionModule -->
<g id="edge9" class="edge">
<title>CommonModule&#45;&gt;SessionModule</title>
<path fill="none" stroke="black" d="M1210.17,-84.91C1210.17,-84.91 1210.17,-103.79 1210.17,-103.79"/>
<polygon fill="black" stroke="black" points="1206.67,-103.79 1210.17,-113.79 1213.67,-103.79 1206.67,-103.79"/>
</g>
<!-- HttpClientModule -->
<g id="node11" class="node">
<title>HttpClientModule</title>
<polygon fill="#8dd3c7" stroke="black" points="1172.16,-84.8 1169.16,-88.8 1148.16,-88.8 1145.16,-84.8 1053.84,-84.8 1053.84,-48.8 1172.16,-48.8 1172.16,-84.8"/>
<text text-anchor="middle" x="1113" y="-62.6" font-family="Times,serif" font-size="14.00">HttpClientModule</text>
</g>
<!-- HttpClientModule&#45;&gt;SessionModule -->
<g id="edge10" class="edge">
<title>HttpClientModule&#45;&gt;SessionModule</title>
<path fill="none" stroke="black" d="M1150.08,-84.91C1150.08,-84.91 1150.08,-103.79 1150.08,-103.79"/>
<polygon fill="black" stroke="black" points="1146.58,-103.79 1150.08,-113.79 1153.58,-103.79 1146.58,-103.79"/>
</g>
<!-- MatTableModule -->
<g id="node12" class="node">
<title>MatTableModule</title>
<polygon fill="#8dd3c7" stroke="black" points="1035.97,-84.8 1032.97,-88.8 1011.97,-88.8 1008.97,-84.8 922.03,-84.8 922.03,-48.8 1035.97,-48.8 1035.97,-84.8"/>
<text text-anchor="middle" x="979" y="-62.6" font-family="Times,serif" font-size="14.00">MatTableModule</text>
</g>
<!-- MatTableModule&#45;&gt;SessionModule -->
<g id="edge11" class="edge">
<title>MatTableModule&#45;&gt;SessionModule</title>
<path fill="none" stroke="black" d="M989.09,-84.92C989.09,-99.58 989.09,-117.8 989.09,-117.8 989.09,-117.8 1117.61,-117.8 1117.61,-117.8"/>
<polygon fill="black" stroke="black" points="1117.61,-121.3 1127.61,-117.8 1117.61,-114.3 1117.61,-121.3"/>
</g>
<!-- MatPaginatorModule -->
<g id="node13" class="node">
<title>MatPaginatorModule</title>
<polygon fill="#8dd3c7" stroke="black" points="903.76,-84.8 900.76,-88.8 879.76,-88.8 876.76,-84.8 768.24,-84.8 768.24,-48.8 903.76,-48.8 903.76,-84.8"/>
<text text-anchor="middle" x="836" y="-62.6" font-family="Times,serif" font-size="14.00">MatPaginatorModule</text>
</g>
<!-- MatPaginatorModule&#45;&gt;SessionModule -->
<g id="edge12" class="edge">
<title>MatPaginatorModule&#45;&gt;SessionModule</title>
<path fill="none" stroke="black" d="M836,-84.81C836,-100.85 836,-121.8 836,-121.8 836,-121.8 1117.65,-121.8 1117.65,-121.8"/>
<polygon fill="black" stroke="black" points="1117.65,-125.3 1127.65,-121.8 1117.65,-118.3 1117.65,-125.3"/>
</g>
<!-- MatSortModule -->
<g id="node14" class="node">
<title>MatSortModule</title>
<polygon fill="#8dd3c7" stroke="black" points="749.94,-84.8 746.94,-88.8 725.94,-88.8 722.94,-84.8 644.06,-84.8 644.06,-48.8 749.94,-48.8 749.94,-84.8"/>
<text text-anchor="middle" x="697" y="-62.6" font-family="Times,serif" font-size="14.00">MatSortModule</text>
</g>
<!-- MatSortModule&#45;&gt;SessionModule -->
<g id="edge13" class="edge">
<title>MatSortModule&#45;&gt;SessionModule</title>
<path fill="none" stroke="black" d="M697,-84.83C697,-101.86 697,-124.8 697,-124.8 697,-124.8 1117.42,-124.8 1117.42,-124.8"/>
<polygon fill="black" stroke="black" points="1117.42,-128.3 1127.42,-124.8 1117.42,-121.3 1117.42,-128.3"/>
</g>
<!-- CdTimerModule -->
<g id="node15" class="node">
<title>CdTimerModule</title>
<polygon fill="#8dd3c7" stroke="black" points="626.1,-84.8 623.1,-88.8 602.1,-88.8 599.1,-84.8 515.9,-84.8 515.9,-48.8 626.1,-48.8 626.1,-84.8"/>
<text text-anchor="middle" x="571" y="-62.6" font-family="Times,serif" font-size="14.00">CdTimerModule</text>
</g>
<!-- CdTimerModule&#45;&gt;SessionModule -->
<g id="edge14" class="edge">
<title>CdTimerModule&#45;&gt;SessionModule</title>
<path fill="none" stroke="black" d="M571,-85.07C571,-103.36 571,-128.8 571,-128.8 571,-128.8 1117.69,-128.8 1117.69,-128.8"/>
<polygon fill="black" stroke="black" points="1117.69,-132.3 1127.69,-128.8 1117.69,-125.3 1117.69,-132.3"/>
</g>
<!-- ChipsModule -->
<g id="node16" class="node">
<title>ChipsModule</title>
<polygon fill="#8dd3c7" stroke="black" points="498.23,-84.8 495.23,-88.8 474.23,-88.8 471.23,-84.8 405.77,-84.8 405.77,-48.8 498.23,-48.8 498.23,-84.8"/>
<text text-anchor="middle" x="452" y="-62.6" font-family="Times,serif" font-size="14.00">ChipsModule</text>
</g>
<!-- ChipsModule&#45;&gt;SessionModule -->
<g id="edge15" class="edge">
<title>ChipsModule&#45;&gt;SessionModule</title>
<path fill="none" stroke="black" d="M452,-84.91C452,-104.14 452,-131.8 452,-131.8 452,-131.8 1117.59,-131.8 1117.59,-131.8"/>
<polygon fill="black" stroke="black" points="1117.59,-135.3 1127.59,-131.8 1117.59,-128.3 1117.59,-135.3"/>
</g>
<!-- InputTextareaModule -->
<g id="node17" class="node">
<title>InputTextareaModule</title>
<polygon fill="#8dd3c7" stroke="black" points="388.06,-84.8 385.06,-88.8 364.06,-88.8 361.06,-84.8 249.94,-84.8 249.94,-48.8 388.06,-48.8 388.06,-84.8"/>
<text text-anchor="middle" x="319" y="-62.6" font-family="Times,serif" font-size="14.00">InputTextareaModule</text>
</g>
<!-- InputTextareaModule&#45;&gt;SessionModule -->
<g id="edge16" class="edge">
<title>InputTextareaModule&#45;&gt;SessionModule</title>
<path fill="none" stroke="black" d="M319,-84.93C319,-105.37 319,-135.8 319,-135.8 319,-135.8 1117.78,-135.8 1117.78,-135.8"/>
<polygon fill="black" stroke="black" points="1117.78,-139.3 1127.78,-135.8 1117.78,-132.3 1117.78,-139.3"/>
</g>
<!-- TableModule -->
<g id="node18" class="node">
<title>TableModule</title>
<polygon fill="#8dd3c7" stroke="black" points="231.92,-84.8 228.92,-88.8 207.92,-88.8 204.92,-84.8 140.08,-84.8 140.08,-48.8 231.92,-48.8 231.92,-84.8"/>
<text text-anchor="middle" x="186" y="-62.6" font-family="Times,serif" font-size="14.00">TableModule</text>
</g>
<!-- TableModule&#45;&gt;SessionModule -->
<g id="edge17" class="edge">
<title>TableModule&#45;&gt;SessionModule</title>
<path fill="none" stroke="black" d="M186,-84.84C186,-106.46 186,-139.8 186,-139.8 186,-139.8 1117.7,-139.8 1117.7,-139.8"/>
<polygon fill="black" stroke="black" points="1117.7,-143.3 1127.7,-139.8 1117.7,-136.3 1117.7,-143.3"/>
</g>
<!-- ButtonModule -->
<g id="node19" class="node">
<title>ButtonModule</title>
<polygon fill="#8dd3c7" stroke="black" points="121.67,-84.8 118.67,-88.8 97.67,-88.8 94.67,-84.8 24.33,-84.8 24.33,-48.8 121.67,-48.8 121.67,-84.8"/>
<text text-anchor="middle" x="73" y="-62.6" font-family="Times,serif" font-size="14.00">ButtonModule</text>
</g>
<!-- ButtonModule&#45;&gt;SessionModule -->
<g id="edge18" class="edge">
<title>ButtonModule&#45;&gt;SessionModule</title>
<path fill="none" stroke="black" d="M73,-84.81C73,-107.29 73,-142.8 73,-142.8 73,-142.8 1117.51,-142.8 1117.51,-142.8"/>
<polygon fill="black" stroke="black" points="1117.51,-146.3 1127.51,-142.8 1117.51,-139.3 1117.51,-146.3"/>
</g>
</g>
</svg>
