<?xml version="1.0" encoding="UTF-8" standalone="no"?>
<!DOCTYPE svg PUBLIC "-//W3C//DTD SVG 1.1//EN"
 "http://www.w3.org/Graphics/SVG/1.1/DTD/svg11.dtd">
<!-- Generated by graphviz version 3.0.0 (20220226.1711)
 -->
<!-- Title: dependencies Pages: 1 -->
<svg width="358pt" height="247pt"
 viewBox="0.00 0.00 358.00 246.80" xmlns="http://www.w3.org/2000/svg" xmlns:xlink="http://www.w3.org/1999/xlink">
<g id="graph0" class="graph" transform="scale(1 1) rotate(0) translate(4 242.8)">
<title>dependencies</title>
<polygon fill="white" stroke="transparent" points="-4,4 -4,-242.8 354,-242.8 354,4 -4,4"/>
<text text-anchor="middle" x="175" y="-8.2" font-family="sans-serif" font-size="14.00">dependencies</text>
<g id="clust1" class="cluster">
<title>cluster_SessionModule</title>
<polygon fill="none" stroke="black" stroke-dasharray="1,5" points="8,-32.8 8,-230.8 342,-230.8 342,-32.8 8,-32.8"/>
</g>
<g id="clust2" class="cluster">
<title>cluster_SessionModule_declarations</title>
<polygon fill="none" stroke="black" points="16,-40.8 16,-92.8 334,-92.8 334,-40.8 16,-40.8"/>
</g>
<g id="clust6" class="cluster">
<title>cluster_SessionModule_exports</title>
<polygon fill="none" stroke="black" points="95,-170.8 95,-222.8 231,-222.8 231,-170.8 95,-170.8"/>
</g>
<!-- DisplaySessionComponent -->
<g id="node1" class="node">
<title>DisplaySessionComponent</title>
<polygon fill="#ffffb3" stroke="black" points="325.67,-84.8 158.33,-84.8 158.33,-48.8 325.67,-48.8 325.67,-84.8"/>
<text text-anchor="middle" x="242" y="-62.6" font-family="Times,serif" font-size="14.00">DisplaySessionComponent</text>
</g>
<!-- SessionModule -->
<g id="node3" class="node">
<title>SessionModule</title>
<polygon fill="#8dd3c7" stroke="black" points="214.34,-149.8 211.34,-153.8 190.34,-153.8 187.34,-149.8 111.66,-149.8 111.66,-113.8 214.34,-113.8 214.34,-149.8"/>
<text text-anchor="middle" x="163" y="-127.6" font-family="Times,serif" font-size="14.00">SessionModule</text>
</g>
<!-- DisplaySessionComponent&#45;&gt;SessionModule -->
<g id="edge1" class="edge">
<title>DisplaySessionComponent&#45;&gt;SessionModule</title>
<path fill="none" stroke="black" d="M186.17,-84.91C186.17,-84.91 186.17,-103.79 186.17,-103.79"/>
<polygon fill="black" stroke="black" points="182.67,-103.79 186.17,-113.79 189.67,-103.79 182.67,-103.79"/>
</g>
<!-- SessionTimerComponent -->
<g id="node2" class="node">
<title>SessionTimerComponent</title>
<polygon fill="#ffffb3" stroke="black" points="139.54,-84.8 24.46,-84.8 24.46,-48.8 139.54,-48.8 139.54,-84.8"/>
<text text-anchor="middle" x="82" y="-62.6" font-family="Times,serif" font-size="14.00">SessionTimerComponent</text>
</g>
<!-- SessionTimerComponent&#45;&gt;SessionModule -->
<g id="edge2" class="edge">
<title>SessionTimerComponent&#45;&gt;SessionModule</title>
<path fill="none" stroke="black" d="M125.8,-84.91C125.8,-84.91 125.8,-103.79 125.8,-103.79"/>
<polygon fill="black" stroke="black" points="122.3,-103.79 125.8,-113.79 129.3,-103.79 122.3,-103.79"/>
</g>
<!-- SessionTimerComponent  -->
<g id="node4" class="node">
<title>SessionTimerComponent </title>
<polygon fill="#fb8072" stroke="black" points="222.54,-214.8 103.46,-214.8 103.46,-178.8 222.54,-178.8 222.54,-214.8"/>
<text text-anchor="middle" x="163" y="-192.6" font-family="Times,serif" font-size="14.00">SessionTimerComponent </text>
</g>
<!-- SessionModule&#45;&gt;SessionTimerComponent  -->
<g id="edge3" class="edge">
<title>SessionModule&#45;&gt;SessionTimerComponent </title>
<path fill="none" stroke="black" stroke-dasharray="5,2" d="M163,-149.91C163,-149.91 163,-168.79 163,-168.79"/>
<polygon fill="black" stroke="black" points="159.5,-168.79 163,-178.79 166.5,-168.79 159.5,-168.79"/>
</g>
</g>
</svg>
