<?xml version="1.0" encoding="UTF-8" standalone="no"?>
<!DOCTYPE svg PUBLIC "-//W3C//DTD SVG 1.1//EN"
 "http://www.w3.org/Graphics/SVG/1.1/DTD/svg11.dtd">
<!-- Generated by graphviz version 3.0.0 (20220226.1711)
 -->
<!-- Title: dependencies Pages: 1 -->
<svg width="696pt" height="247pt"
 viewBox="0.00 0.00 696.00 246.80" xmlns="http://www.w3.org/2000/svg" xmlns:xlink="http://www.w3.org/1999/xlink">
<g id="graph0" class="graph" transform="scale(1 1) rotate(0) translate(4 242.8)">
<title>dependencies</title>
<polygon fill="white" stroke="transparent" points="-4,4 -4,-242.8 692,-242.8 692,4 -4,4"/>
<text text-anchor="middle" x="344" y="-8.2" font-family="sans-serif" font-size="14.00">dependencies</text>
<g id="clust1" class="cluster">
<title>cluster_SessionModule</title>
<polygon fill="none" stroke="black" stroke-dasharray="1,5" points="8,-32.8 8,-230.8 680,-230.8 680,-32.8 8,-32.8"/>
</g>
<g id="clust2" class="cluster">
<title>cluster_SessionModule_declarations</title>
<polygon fill="none" stroke="black" points="16,-40.8 16,-92.8 672,-92.8 672,-40.8 16,-40.8"/>
</g>
<g id="clust8" class="cluster">
<title>cluster_SessionModule_exports</title>
<polygon fill="none" stroke="black" points="236,-170.8 236,-222.8 372,-222.8 372,-170.8 236,-170.8"/>
</g>
<!-- DisplaySessionComponent -->
<g id="node1" class="node">
<title>DisplaySessionComponent</title>
<polygon fill="#ffffb3" stroke="black" points="663.67,-84.8 496.33,-84.8 496.33,-48.8 663.67,-48.8 663.67,-84.8"/>
<text text-anchor="middle" x="580" y="-62.6" font-family="Times,serif" font-size="14.00">DisplaySessionComponent</text>
</g>
<!-- SessionModule -->
<g id="node5" class="node">
<title>SessionModule</title>
<polygon fill="#8dd3c7" stroke="black" points="355.34,-149.8 352.34,-153.8 331.34,-153.8 328.34,-149.8 252.66,-149.8 252.66,-113.8 355.34,-113.8 355.34,-149.8"/>
<text text-anchor="middle" x="304" y="-127.6" font-family="Times,serif" font-size="14.00">SessionModule</text>
</g>
<!-- DisplaySessionComponent&#45;&gt;SessionModule -->
<g id="edge1" class="edge">
<title>DisplaySessionComponent&#45;&gt;SessionModule</title>
<path fill="none" stroke="black" d="M580,-84.91C580,-104.14 580,-131.8 580,-131.8 580,-131.8 365.27,-131.8 365.27,-131.8"/>
<polygon fill="black" stroke="black" points="365.27,-128.3 355.27,-131.8 365.27,-135.3 365.27,-128.3"/>
</g>
<!-- PreviousSessionsComponent -->
<g id="node2" class="node">
<title>PreviousSessionsComponent</title>
<polygon fill="#ffffb3" stroke="black" points="478.07,-84.8 299.93,-84.8 299.93,-48.8 478.07,-48.8 478.07,-84.8"/>
<text text-anchor="middle" x="389" y="-62.6" font-family="Times,serif" font-size="14.00">PreviousSessionsComponent</text>
</g>
<!-- PreviousSessionsComponent&#45;&gt;SessionModule -->
<g id="edge2" class="edge">
<title>PreviousSessionsComponent&#45;&gt;SessionModule</title>
<path fill="none" stroke="black" d="M327.44,-84.91C327.44,-84.91 327.44,-103.79 327.44,-103.79"/>
<polygon fill="black" stroke="black" points="323.94,-103.79 327.44,-113.79 330.94,-103.79 323.94,-103.79"/>
</g>
<!-- SessionComponent -->
<g id="node3" class="node">
<title>SessionComponent</title>
<polygon fill="#ffffb3" stroke="black" points="282.12,-84.8 157.88,-84.8 157.88,-48.8 282.12,-48.8 282.12,-84.8"/>
<text text-anchor="middle" x="220" y="-62.6" font-family="Times,serif" font-size="14.00">SessionComponent</text>
</g>
<!-- SessionComponent&#45;&gt;SessionModule -->
<g id="edge3" class="edge">
<title>SessionComponent&#45;&gt;SessionModule</title>
<path fill="none" stroke="black" d="M267.44,-84.91C267.44,-84.91 267.44,-103.79 267.44,-103.79"/>
<polygon fill="black" stroke="black" points="263.94,-103.79 267.44,-113.79 270.94,-103.79 263.94,-103.79"/>
</g>
<!-- TimerComponent -->
<g id="node4" class="node">
<title>TimerComponent</title>
<polygon fill="#ffffb3" stroke="black" points="139.54,-84.8 24.46,-84.8 24.46,-48.8 139.54,-48.8 139.54,-84.8"/>
<text text-anchor="middle" x="82" y="-62.6" font-family="Times,serif" font-size="14.00">TimerComponent</text>
</g>
<!-- TimerComponent&#45;&gt;SessionModule -->
<g id="edge4" class="edge">
<title>TimerComponent&#45;&gt;SessionModule</title>
<path fill="none" stroke="black" d="M82,-84.91C82,-104.14 82,-131.8 82,-131.8 82,-131.8 242.79,-131.8 242.79,-131.8"/>
<polygon fill="black" stroke="black" points="242.79,-135.3 252.79,-131.8 242.79,-128.3 242.79,-135.3"/>
</g>
<!-- TimerComponent  -->
<g id="node6" class="node">
<title>TimerComponent </title>
<polygon fill="#fb8072" stroke="black" points="363.54,-214.8 244.46,-214.8 244.46,-178.8 363.54,-178.8 363.54,-214.8"/>
<text text-anchor="middle" x="304" y="-192.6" font-family="Times,serif" font-size="14.00">TimerComponent </text>
</g>
<!-- SessionModule&#45;&gt;TimerComponent  -->
<g id="edge5" class="edge">
<title>SessionModule&#45;&gt;TimerComponent </title>
<path fill="none" stroke="black" stroke-dasharray="5,2" d="M304,-149.91C304,-149.91 304,-168.79 304,-168.79"/>
<polygon fill="black" stroke="black" points="300.5,-168.79 304,-178.79 307.5,-168.79 300.5,-168.79"/>
</g>
</g>
</svg>
