<?xml version="1.0" encoding="UTF-8" standalone="no"?>
<!DOCTYPE svg PUBLIC "-//W3C//DTD SVG 1.1//EN"
 "http://www.w3.org/Graphics/SVG/1.1/DTD/svg11.dtd">
<!-- Generated by graphviz version 3.0.0 (20220226.1711)
 -->
<!-- Title: dependencies Pages: 1 -->
<svg width="1799pt" height="323pt"
 viewBox="0.00 0.00 1799.00 322.80" xmlns="http://www.w3.org/2000/svg" xmlns:xlink="http://www.w3.org/1999/xlink">
<g id="graph0" class="graph" transform="scale(1 1) rotate(0) translate(4 318.8)">
<title>dependencies</title>
<polygon fill="white" stroke="transparent" points="-4,4 -4,-318.8 1795,-318.8 1795,4 -4,4"/>
<text text-anchor="middle" x="895.5" y="-8.2" font-family="sans-serif" font-size="14.00">dependencies</text>
<g id="clust1" class="cluster">
<title>cluster_AppModule</title>
<polygon fill="none" stroke="black" stroke-dasharray="1,5" points="39,-108.8 39,-306.8 1633,-306.8 1633,-108.8 39,-108.8"/>
</g>
<g id="clust2" class="cluster">
<title>cluster_AppModule_declarations</title>
<polygon fill="none" stroke="black" points="440,-116.8 440,-168.8 1625,-168.8 1625,-116.8 440,-116.8"/>
</g>
<g id="clust11" class="cluster">
<title>cluster_AppModule_imports</title>
<polygon fill="none" stroke="black" points="47,-116.8 47,-168.8 432,-168.8 432,-116.8 47,-116.8"/>
</g>
<g id="clust13" class="cluster">
<title>cluster_AppModule_bootstrap</title>
<polygon fill="none" stroke="black" points="759,-246.8 759,-298.8 883,-298.8 883,-246.8 759,-246.8"/>
</g>
<g id="clust21" class="cluster">
<title>cluster_SessionModule</title>
<polygon fill="none" stroke="black" stroke-dasharray="1,5" points="8,-32.8 8,-100.8 486,-100.8 486,-32.8 8,-32.8"/>
</g>
<g id="clust22" class="cluster">
<title>cluster_SessionModule_declarations</title>
<polygon fill="none" stroke="black" points="160,-40.8 160,-92.8 478,-92.8 478,-40.8 160,-40.8"/>
</g>
<g id="clust26" class="cluster">
<title>cluster_SessionModule_exports</title>
<polygon fill="none" stroke="black" points="16,-40.8 16,-92.8 152,-92.8 152,-40.8 16,-40.8"/>
</g>
<g id="clust41" class="cluster">
<title>cluster_SongModule</title>
<polygon fill="none" stroke="black" stroke-dasharray="1,5" points="1641,-32.8 1641,-168.8 1783,-168.8 1783,-32.8 1641,-32.8"/>
</g>
<g id="clust42" class="cluster">
<title>cluster_SongModule_declarations</title>
<polygon fill="none" stroke="black" points="1649,-40.8 1649,-92.8 1775,-92.8 1775,-40.8 1649,-40.8"/>
</g>
<!-- AppComponent -->
<g id="node1" class="node">
<title>AppComponent</title>
<polygon fill="#ffffb3" stroke="black" points="1616.94,-160.8 1511.06,-160.8 1511.06,-124.8 1616.94,-124.8 1616.94,-160.8"/>
<text text-anchor="middle" x="1564" y="-138.6" font-family="Times,serif" font-size="14.00">AppComponent</text>
</g>
<!-- AppModule -->
<g id="node9" class="node">
<title>AppModule</title>
<polygon fill="#8dd3c7" stroke="black" points="862.66,-225.8 859.66,-229.8 838.66,-229.8 835.66,-225.8 779.34,-225.8 779.34,-189.8 862.66,-189.8 862.66,-225.8"/>
<text text-anchor="middle" x="821" y="-203.6" font-family="Times,serif" font-size="14.00">AppModule</text>
</g>
<!-- AppComponent&#45;&gt;AppModule -->
<g id="edge1" class="edge">
<title>AppComponent&#45;&gt;AppModule</title>
<path fill="none" stroke="black" d="M1564,-161.05C1564,-183.82 1564,-219.8 1564,-219.8 1564,-219.8 872.81,-219.8 872.81,-219.8"/>
<polygon fill="black" stroke="black" points="872.81,-216.3 862.81,-219.8 872.81,-223.3 872.81,-216.3"/>
</g>
<!-- ChordComponent -->
<g id="node2" class="node">
<title>ChordComponent</title>
<polygon fill="#ffffb3" stroke="black" points="1493.33,-160.8 1376.67,-160.8 1376.67,-124.8 1493.33,-124.8 1493.33,-160.8"/>
<text text-anchor="middle" x="1435" y="-138.6" font-family="Times,serif" font-size="14.00">ChordComponent</text>
</g>
<!-- ChordComponent&#45;&gt;AppModule -->
<g id="edge2" class="edge">
<title>ChordComponent&#45;&gt;AppModule</title>
<path fill="none" stroke="black" d="M1435,-161.08C1435,-182.12 1435,-213.8 1435,-213.8 1435,-213.8 872.72,-213.8 872.72,-213.8"/>
<polygon fill="black" stroke="black" points="872.72,-210.3 862.72,-213.8 872.72,-217.3 872.72,-210.3"/>
</g>
<!-- FooterComponent -->
<g id="node3" class="node">
<title>FooterComponent</title>
<polygon fill="#ffffb3" stroke="black" points="1358.88,-160.8 1241.12,-160.8 1241.12,-124.8 1358.88,-124.8 1358.88,-160.8"/>
<text text-anchor="middle" x="1300" y="-138.6" font-family="Times,serif" font-size="14.00">FooterComponent</text>
</g>
<!-- FooterComponent&#45;&gt;AppModule -->
<g id="edge3" class="edge">
<title>FooterComponent&#45;&gt;AppModule</title>
<path fill="none" stroke="black" d="M1300,-160.91C1300,-180.14 1300,-207.8 1300,-207.8 1300,-207.8 872.67,-207.8 872.67,-207.8"/>
<polygon fill="black" stroke="black" points="872.67,-204.3 862.67,-207.8 872.67,-211.3 872.67,-204.3"/>
</g>
<!-- HeaderComponent -->
<g id="node4" class="node">
<title>HeaderComponent</title>
<polygon fill="#ffffb3" stroke="black" points="1222.75,-160.8 1101.25,-160.8 1101.25,-124.8 1222.75,-124.8 1222.75,-160.8"/>
<text text-anchor="middle" x="1162" y="-138.6" font-family="Times,serif" font-size="14.00">HeaderComponent</text>
</g>
<!-- HeaderComponent&#45;&gt;AppModule -->
<g id="edge4" class="edge">
<title>HeaderComponent&#45;&gt;AppModule</title>
<path fill="none" stroke="black" d="M1162,-160.82C1162,-178.17 1162,-201.8 1162,-201.8 1162,-201.8 872.81,-201.8 872.81,-201.8"/>
<polygon fill="black" stroke="black" points="872.81,-198.3 862.81,-201.8 872.81,-205.3 872.81,-198.3"/>
</g>
<!-- LandingPageComponent -->
<g id="node5" class="node">
<title>LandingPageComponent</title>
<polygon fill="#ffffb3" stroke="black" points="1083.7,-160.8 928.3,-160.8 928.3,-124.8 1083.7,-124.8 1083.7,-160.8"/>
<text text-anchor="middle" x="1006" y="-138.6" font-family="Times,serif" font-size="14.00">LandingPageComponent</text>
</g>
<!-- LandingPageComponent&#45;&gt;AppModule -->
<g id="edge5" class="edge">
<title>LandingPageComponent&#45;&gt;AppModule</title>
<path fill="none" stroke="black" d="M1006,-161.04C1006,-176.37 1006,-195.8 1006,-195.8 1006,-195.8 872.98,-195.8 872.98,-195.8"/>
<polygon fill="black" stroke="black" points="872.98,-192.3 862.98,-195.8 872.98,-199.3 872.98,-192.3"/>
</g>
<!-- PreviousSessionsComponent -->
<g id="node6" class="node">
<title>PreviousSessionsComponent</title>
<polygon fill="#ffffb3" stroke="black" points="910.07,-160.8 731.93,-160.8 731.93,-124.8 910.07,-124.8 910.07,-160.8"/>
<text text-anchor="middle" x="821" y="-138.6" font-family="Times,serif" font-size="14.00">PreviousSessionsComponent</text>
</g>
<!-- PreviousSessionsComponent&#45;&gt;AppModule -->
<g id="edge6" class="edge">
<title>PreviousSessionsComponent&#45;&gt;AppModule</title>
<path fill="none" stroke="black" d="M821,-160.91C821,-160.91 821,-179.79 821,-179.79"/>
<polygon fill="black" stroke="black" points="817.5,-179.79 821,-189.79 824.5,-179.79 817.5,-179.79"/>
</g>
<!-- SessionComponent -->
<g id="node7" class="node">
<title>SessionComponent</title>
<polygon fill="#ffffb3" stroke="black" points="714.12,-160.8 589.88,-160.8 589.88,-124.8 714.12,-124.8 714.12,-160.8"/>
<text text-anchor="middle" x="652" y="-138.6" font-family="Times,serif" font-size="14.00">SessionComponent</text>
</g>
<!-- SessionComponent&#45;&gt;AppModule -->
<g id="edge7" class="edge">
<title>SessionComponent&#45;&gt;AppModule</title>
<path fill="none" stroke="black" d="M652,-161.04C652,-176.37 652,-195.8 652,-195.8 652,-195.8 769.22,-195.8 769.22,-195.8"/>
<polygon fill="black" stroke="black" points="769.22,-199.3 779.22,-195.8 769.22,-192.3 769.22,-199.3"/>
</g>
<!-- SidebarComponent -->
<g id="node8" class="node">
<title>SidebarComponent</title>
<polygon fill="#ffffb3" stroke="black" points="572.1,-160.8 447.9,-160.8 447.9,-124.8 572.1,-124.8 572.1,-160.8"/>
<text text-anchor="middle" x="510" y="-138.6" font-family="Times,serif" font-size="14.00">SidebarComponent</text>
</g>
<!-- SidebarComponent&#45;&gt;AppModule -->
<g id="edge8" class="edge">
<title>SidebarComponent&#45;&gt;AppModule</title>
<path fill="none" stroke="black" d="M510,-160.82C510,-178.17 510,-201.8 510,-201.8 510,-201.8 769.06,-201.8 769.06,-201.8"/>
<polygon fill="black" stroke="black" points="769.06,-205.3 779.06,-201.8 769.06,-198.3 769.06,-205.3"/>
</g>
<!-- AppComponent  -->
<g id="node13" class="node">
<title>AppComponent </title>
<polygon fill="#80b1d3" stroke="black" points="875.44,-290.8 766.56,-290.8 766.56,-254.8 875.44,-254.8 875.44,-290.8"/>
<text text-anchor="middle" x="821" y="-268.6" font-family="Times,serif" font-size="14.00">AppComponent </text>
</g>
<!-- AppModule&#45;&gt;AppComponent  -->
<g id="edge12" class="edge">
<title>AppModule&#45;&gt;AppComponent </title>
<path fill="none" stroke="black" stroke-dasharray="1,5" d="M821,-225.91C821,-225.91 821,-244.79 821,-244.79"/>
<polygon fill="black" stroke="black" points="817.5,-244.79 821,-254.79 824.5,-244.79 817.5,-244.79"/>
</g>
<!-- AppRoutingModule -->
<g id="node10" class="node">
<title>AppRoutingModule</title>
<polygon fill="#8dd3c7" stroke="black" points="424.28,-160.8 421.28,-164.8 400.28,-164.8 397.28,-160.8 295.72,-160.8 295.72,-124.8 424.28,-124.8 424.28,-160.8"/>
<text text-anchor="middle" x="360" y="-138.6" font-family="Times,serif" font-size="14.00">AppRoutingModule</text>
</g>
<!-- AppRoutingModule&#45;&gt;AppModule -->
<g id="edge9" class="edge">
<title>AppRoutingModule&#45;&gt;AppModule</title>
<path fill="none" stroke="black" d="M360,-160.91C360,-180.14 360,-207.8 360,-207.8 360,-207.8 769.28,-207.8 769.28,-207.8"/>
<polygon fill="black" stroke="black" points="769.28,-211.3 779.28,-207.8 769.28,-204.3 769.28,-211.3"/>
</g>
<!-- SessionModule -->
<g id="node11" class="node">
<title>SessionModule</title>
<polygon fill="#8dd3c7" stroke="black" points="277.34,-160.8 274.34,-164.8 253.34,-164.8 250.34,-160.8 174.66,-160.8 174.66,-124.8 277.34,-124.8 277.34,-160.8"/>
<text text-anchor="middle" x="226" y="-138.6" font-family="Times,serif" font-size="14.00">SessionModule</text>
</g>
<!-- SessionModule&#45;&gt;AppModule -->
<g id="edge10" class="edge">
<title>SessionModule&#45;&gt;AppModule</title>
<path fill="none" stroke="black" d="M226,-161.08C226,-182.12 226,-213.8 226,-213.8 226,-213.8 769.16,-213.8 769.16,-213.8"/>
<polygon fill="black" stroke="black" points="769.16,-217.3 779.16,-213.8 769.16,-210.3 769.16,-217.3"/>
</g>
<!-- TimerComponent  -->
<g id="node16" class="node">
<title>TimerComponent </title>
<polygon fill="#fb8072" stroke="black" points="143.54,-84.8 24.46,-84.8 24.46,-48.8 143.54,-48.8 143.54,-84.8"/>
<text text-anchor="middle" x="84" y="-62.6" font-family="Times,serif" font-size="14.00">TimerComponent </text>
</g>
<!-- SessionModule&#45;&gt;TimerComponent  -->
<g id="edge15" class="edge">
<title>SessionModule&#45;&gt;TimerComponent </title>
<path fill="none" stroke="black" stroke-dasharray="5,2" d="M174.6,-142.8C167.56,-142.8 162.69,-142.8 162.69,-142.8 162.69,-142.8 162.69,-66.8 162.69,-66.8 162.69,-66.8 153.65,-66.8 153.65,-66.8"/>
<polygon fill="black" stroke="black" points="153.65,-63.3 143.65,-66.8 153.64,-70.3 153.65,-63.3"/>
</g>
<!-- SidebarModule -->
<g id="node12" class="node">
<title>SidebarModule</title>
<polygon fill="#8dd3c7" stroke="black" points="157.32,-160.8 154.32,-164.8 133.32,-164.8 130.32,-160.8 54.68,-160.8 54.68,-124.8 157.32,-124.8 157.32,-160.8"/>
<text text-anchor="middle" x="106" y="-138.6" font-family="Times,serif" font-size="14.00">SidebarModule</text>
</g>
<!-- SidebarModule&#45;&gt;AppModule -->
<g id="edge11" class="edge">
<title>SidebarModule&#45;&gt;AppModule</title>
<path fill="none" stroke="black" d="M106,-161.05C106,-183.82 106,-219.8 106,-219.8 106,-219.8 769.21,-219.8 769.21,-219.8"/>
<polygon fill="black" stroke="black" points="769.21,-223.3 779.21,-219.8 769.21,-216.3 769.21,-223.3"/>
</g>
<!-- DisplaySessionComponent -->
<g id="node14" class="node">
<title>DisplaySessionComponent</title>
<polygon fill="#ffffb3" stroke="black" points="469.67,-84.8 302.33,-84.8 302.33,-48.8 469.67,-48.8 469.67,-84.8"/>
<text text-anchor="middle" x="386" y="-62.6" font-family="Times,serif" font-size="14.00">DisplaySessionComponent</text>
</g>
<!-- DisplaySessionComponent&#45;&gt;SessionModule -->
<g id="edge13" class="edge">
<title>DisplaySessionComponent&#45;&gt;SessionModule</title>
<path fill="none" stroke="black" d="M302.28,-66.8C294.63,-66.8 289.69,-66.8 289.69,-66.8 289.69,-66.8 289.69,-142.8 289.69,-142.8 289.69,-142.8 287.41,-142.8 287.41,-142.8"/>
<polygon fill="black" stroke="black" points="287.41,-139.3 277.41,-142.8 287.41,-146.3 287.41,-139.3"/>
</g>
<!-- TimerComponent -->
<g id="node15" class="node">
<title>TimerComponent</title>
<polygon fill="#ffffb3" stroke="black" points="283.54,-84.8 168.46,-84.8 168.46,-48.8 283.54,-48.8 283.54,-84.8"/>
<text text-anchor="middle" x="226" y="-62.6" font-family="Times,serif" font-size="14.00">TimerComponent</text>
</g>
<!-- TimerComponent&#45;&gt;SessionModule -->
<g id="edge14" class="edge">
<title>TimerComponent&#45;&gt;SessionModule</title>
<path fill="none" stroke="black" d="M226,-84.81C226,-84.81 226,-114.65 226,-114.65"/>
<polygon fill="black" stroke="black" points="222.5,-114.65 226,-124.65 229.5,-114.65 222.5,-114.65"/>
</g>
<!-- SongComponent -->
<g id="node17" class="node">
<title>SongComponent</title>
<polygon fill="#ffffb3" stroke="black" points="1767.12,-84.8 1656.88,-84.8 1656.88,-48.8 1767.12,-48.8 1767.12,-84.8"/>
<text text-anchor="middle" x="1712" y="-62.6" font-family="Times,serif" font-size="14.00">SongComponent</text>
</g>
<!-- SongModule -->
<g id="node18" class="node">
<title>SongModule</title>
<polygon fill="#8dd3c7" stroke="black" points="1756.34,-160.8 1753.34,-164.8 1732.34,-164.8 1729.34,-160.8 1667.66,-160.8 1667.66,-124.8 1756.34,-124.8 1756.34,-160.8"/>
<text text-anchor="middle" x="1712" y="-138.6" font-family="Times,serif" font-size="14.00">SongModule</text>
</g>
<!-- SongComponent&#45;&gt;SongModule -->
<g id="edge16" class="edge">
<title>SongComponent&#45;&gt;SongModule</title>
<path fill="none" stroke="black" d="M1712,-84.81C1712,-84.81 1712,-114.65 1712,-114.65"/>
<polygon fill="black" stroke="black" points="1708.5,-114.65 1712,-124.65 1715.5,-114.65 1708.5,-114.65"/>
</g>
</g>
</svg>
