<?xml version="1.0" encoding="UTF-8" standalone="no"?>
<!DOCTYPE svg PUBLIC "-//W3C//DTD SVG 1.1//EN"
 "http://www.w3.org/Graphics/SVG/1.1/DTD/svg11.dtd">
<!-- Generated by graphviz version 3.0.0 (20220226.1711)
 -->
<!-- Title: dependencies Pages: 1 -->
<svg width="1599pt" height="323pt"
 viewBox="0.00 0.00 1599.00 322.80" xmlns="http://www.w3.org/2000/svg" xmlns:xlink="http://www.w3.org/1999/xlink">
<g id="graph0" class="graph" transform="scale(1 1) rotate(0) translate(4 318.8)">
<title>dependencies</title>
<polygon fill="white" stroke="transparent" points="-4,4 -4,-318.8 1595,-318.8 1595,4 -4,4"/>
<text text-anchor="middle" x="795.5" y="-8.2" font-family="sans-serif" font-size="14.00">dependencies</text>
<g id="clust1" class="cluster">
<title>cluster_AppModule</title>
<polygon fill="none" stroke="black" stroke-dasharray="1,5" points="177,-108.8 177,-306.8 1433,-306.8 1433,-108.8 177,-108.8"/>
</g>
<g id="clust2" class="cluster">
<title>cluster_AppModule_declarations</title>
<polygon fill="none" stroke="black" points="578,-116.8 578,-168.8 1425,-168.8 1425,-116.8 578,-116.8"/>
</g>
<g id="clust9" class="cluster">
<title>cluster_AppModule_imports</title>
<polygon fill="none" stroke="black" points="185,-116.8 185,-168.8 570,-168.8 570,-116.8 185,-116.8"/>
</g>
<g id="clust11" class="cluster">
<title>cluster_AppModule_bootstrap</title>
<polygon fill="none" stroke="black" points="744,-246.8 744,-298.8 868,-298.8 868,-246.8 744,-246.8"/>
</g>
<g id="clust19" class="cluster">
<title>cluster_SessionModule</title>
<polygon fill="none" stroke="black" stroke-dasharray="1,5" points="8,-32.8 8,-100.8 824,-100.8 824,-32.8 8,-32.8"/>
</g>
<g id="clust20" class="cluster">
<title>cluster_SessionModule_declarations</title>
<polygon fill="none" stroke="black" points="160,-40.8 160,-92.8 816,-92.8 816,-40.8 160,-40.8"/>
</g>
<g id="clust26" class="cluster">
<title>cluster_SessionModule_exports</title>
<polygon fill="none" stroke="black" points="16,-40.8 16,-92.8 152,-92.8 152,-40.8 16,-40.8"/>
</g>
<g id="clust35" class="cluster">
<title>cluster_SongModule</title>
<polygon fill="none" stroke="black" stroke-dasharray="1,5" points="1441,-32.8 1441,-168.8 1583,-168.8 1583,-32.8 1441,-32.8"/>
</g>
<g id="clust36" class="cluster">
<title>cluster_SongModule_declarations</title>
<polygon fill="none" stroke="black" points="1449,-40.8 1449,-92.8 1575,-92.8 1575,-40.8 1449,-40.8"/>
</g>
<!-- AppComponent -->
<g id="node1" class="node">
<title>AppComponent</title>
<polygon fill="#ffffb3" stroke="black" points="1416.94,-160.8 1311.06,-160.8 1311.06,-124.8 1416.94,-124.8 1416.94,-160.8"/>
<text text-anchor="middle" x="1364" y="-138.6" font-family="Times,serif" font-size="14.00">AppComponent</text>
</g>
<!-- AppModule -->
<g id="node7" class="node">
<title>AppModule</title>
<polygon fill="#8dd3c7" stroke="black" points="847.66,-225.8 844.66,-229.8 823.66,-229.8 820.66,-225.8 764.34,-225.8 764.34,-189.8 847.66,-189.8 847.66,-225.8"/>
<text text-anchor="middle" x="806" y="-203.6" font-family="Times,serif" font-size="14.00">AppModule</text>
</g>
<!-- AppComponent&#45;&gt;AppModule -->
<g id="edge1" class="edge">
<title>AppComponent&#45;&gt;AppModule</title>
<path fill="none" stroke="black" d="M1364,-160.81C1364,-183.29 1364,-218.8 1364,-218.8 1364,-218.8 857.94,-218.8 857.94,-218.8"/>
<polygon fill="black" stroke="black" points="857.94,-215.3 847.94,-218.8 857.94,-222.3 857.94,-215.3"/>
</g>
<!-- ChordComponent -->
<g id="node2" class="node">
<title>ChordComponent</title>
<polygon fill="#ffffb3" stroke="black" points="1293.33,-160.8 1176.67,-160.8 1176.67,-124.8 1293.33,-124.8 1293.33,-160.8"/>
<text text-anchor="middle" x="1235" y="-138.6" font-family="Times,serif" font-size="14.00">ChordComponent</text>
</g>
<!-- ChordComponent&#45;&gt;AppModule -->
<g id="edge2" class="edge">
<title>ChordComponent&#45;&gt;AppModule</title>
<path fill="none" stroke="black" d="M1235,-160.93C1235,-181.37 1235,-211.8 1235,-211.8 1235,-211.8 857.92,-211.8 857.92,-211.8"/>
<polygon fill="black" stroke="black" points="857.92,-208.3 847.92,-211.8 857.92,-215.3 857.92,-208.3"/>
</g>
<!-- FooterComponent -->
<g id="node3" class="node">
<title>FooterComponent</title>
<polygon fill="#ffffb3" stroke="black" points="1158.88,-160.8 1041.12,-160.8 1041.12,-124.8 1158.88,-124.8 1158.88,-160.8"/>
<text text-anchor="middle" x="1100" y="-138.6" font-family="Times,serif" font-size="14.00">FooterComponent</text>
</g>
<!-- FooterComponent&#45;&gt;AppModule -->
<g id="edge3" class="edge">
<title>FooterComponent&#45;&gt;AppModule</title>
<path fill="none" stroke="black" d="M1100,-161.07C1100,-179.36 1100,-204.8 1100,-204.8 1100,-204.8 857.81,-204.8 857.81,-204.8"/>
<polygon fill="black" stroke="black" points="857.81,-201.3 847.81,-204.8 857.81,-208.3 857.81,-201.3"/>
</g>
<!-- HeaderComponent -->
<g id="node4" class="node">
<title>HeaderComponent</title>
<polygon fill="#ffffb3" stroke="black" points="1022.75,-160.8 901.25,-160.8 901.25,-124.8 1022.75,-124.8 1022.75,-160.8"/>
<text text-anchor="middle" x="962" y="-138.6" font-family="Times,serif" font-size="14.00">HeaderComponent</text>
</g>
<!-- HeaderComponent&#45;&gt;AppModule -->
<g id="edge4" class="edge">
<title>HeaderComponent&#45;&gt;AppModule</title>
<path fill="none" stroke="black" d="M962,-160.81C962,-176.85 962,-197.8 962,-197.8 962,-197.8 857.81,-197.8 857.81,-197.8"/>
<polygon fill="black" stroke="black" points="857.81,-194.3 847.81,-197.8 857.81,-201.3 857.81,-194.3"/>
</g>
<!-- LandingPageComponent -->
<g id="node5" class="node">
<title>LandingPageComponent</title>
<polygon fill="#ffffb3" stroke="black" points="883.7,-160.8 728.3,-160.8 728.3,-124.8 883.7,-124.8 883.7,-160.8"/>
<text text-anchor="middle" x="806" y="-138.6" font-family="Times,serif" font-size="14.00">LandingPageComponent</text>
</g>
<!-- LandingPageComponent&#45;&gt;AppModule -->
<g id="edge5" class="edge">
<title>LandingPageComponent&#45;&gt;AppModule</title>
<path fill="none" stroke="black" d="M806,-160.91C806,-160.91 806,-179.79 806,-179.79"/>
<polygon fill="black" stroke="black" points="802.5,-179.79 806,-189.79 809.5,-179.79 802.5,-179.79"/>
</g>
<!-- SidebarComponent -->
<g id="node6" class="node">
<title>SidebarComponent</title>
<polygon fill="#ffffb3" stroke="black" points="710.1,-160.8 585.9,-160.8 585.9,-124.8 710.1,-124.8 710.1,-160.8"/>
<text text-anchor="middle" x="648" y="-138.6" font-family="Times,serif" font-size="14.00">SidebarComponent</text>
</g>
<!-- SidebarComponent&#45;&gt;AppModule -->
<g id="edge6" class="edge">
<title>SidebarComponent&#45;&gt;AppModule</title>
<path fill="none" stroke="black" d="M648,-160.81C648,-176.85 648,-197.8 648,-197.8 648,-197.8 754.07,-197.8 754.07,-197.8"/>
<polygon fill="black" stroke="black" points="754.07,-201.3 764.07,-197.8 754.07,-194.3 754.07,-201.3"/>
</g>
<!-- AppComponent  -->
<g id="node11" class="node">
<title>AppComponent </title>
<polygon fill="#80b1d3" stroke="black" points="860.44,-290.8 751.56,-290.8 751.56,-254.8 860.44,-254.8 860.44,-290.8"/>
<text text-anchor="middle" x="806" y="-268.6" font-family="Times,serif" font-size="14.00">AppComponent </text>
</g>
<!-- AppModule&#45;&gt;AppComponent  -->
<g id="edge10" class="edge">
<title>AppModule&#45;&gt;AppComponent </title>
<path fill="none" stroke="black" stroke-dasharray="1,5" d="M806,-225.91C806,-225.91 806,-244.79 806,-244.79"/>
<polygon fill="black" stroke="black" points="802.5,-244.79 806,-254.79 809.5,-244.79 802.5,-244.79"/>
</g>
<!-- AppRoutingModule -->
<g id="node8" class="node">
<title>AppRoutingModule</title>
<polygon fill="#8dd3c7" stroke="black" points="562.28,-160.8 559.28,-164.8 538.28,-164.8 535.28,-160.8 433.72,-160.8 433.72,-124.8 562.28,-124.8 562.28,-160.8"/>
<text text-anchor="middle" x="498" y="-138.6" font-family="Times,serif" font-size="14.00">AppRoutingModule</text>
</g>
<!-- AppRoutingModule&#45;&gt;AppModule -->
<g id="edge7" class="edge">
<title>AppRoutingModule&#45;&gt;AppModule</title>
<path fill="none" stroke="black" d="M498,-161.07C498,-179.36 498,-204.8 498,-204.8 498,-204.8 754.14,-204.8 754.14,-204.8"/>
<polygon fill="black" stroke="black" points="754.14,-208.3 764.14,-204.8 754.14,-201.3 754.14,-208.3"/>
</g>
<!-- SessionModule -->
<g id="node9" class="node">
<title>SessionModule</title>
<polygon fill="#8dd3c7" stroke="black" points="415.34,-160.8 412.34,-164.8 391.34,-164.8 388.34,-160.8 312.66,-160.8 312.66,-124.8 415.34,-124.8 415.34,-160.8"/>
<text text-anchor="middle" x="364" y="-138.6" font-family="Times,serif" font-size="14.00">SessionModule</text>
</g>
<!-- SessionModule&#45;&gt;AppModule -->
<g id="edge8" class="edge">
<title>SessionModule&#45;&gt;AppModule</title>
<path fill="none" stroke="black" d="M364,-160.93C364,-181.37 364,-211.8 364,-211.8 364,-211.8 754.02,-211.8 754.02,-211.8"/>
<polygon fill="black" stroke="black" points="754.02,-215.3 764.02,-211.8 754.02,-208.3 754.02,-215.3"/>
</g>
<!-- TimerComponent  -->
<g id="node16" class="node">
<title>TimerComponent </title>
<polygon fill="#fb8072" stroke="black" points="143.54,-84.8 24.46,-84.8 24.46,-48.8 143.54,-48.8 143.54,-84.8"/>
<text text-anchor="middle" x="84" y="-62.6" font-family="Times,serif" font-size="14.00">TimerComponent </text>
</g>
<!-- SessionModule&#45;&gt;TimerComponent  -->
<g id="edge15" class="edge">
<title>SessionModule&#45;&gt;TimerComponent </title>
<path fill="none" stroke="black" stroke-dasharray="5,2" d="M333.3,-124.59C333.3,-119.25 333.3,-114.8 333.3,-114.8 333.3,-114.8 84,-114.8 84,-114.8 84,-114.8 84,-94.95 84,-94.95"/>
<polygon fill="black" stroke="black" points="87.5,-94.95 84,-84.95 80.5,-94.95 87.5,-94.95"/>
</g>
<!-- SidebarModule -->
<g id="node10" class="node">
<title>SidebarModule</title>
<polygon fill="#8dd3c7" stroke="black" points="295.32,-160.8 292.32,-164.8 271.32,-164.8 268.32,-160.8 192.68,-160.8 192.68,-124.8 295.32,-124.8 295.32,-160.8"/>
<text text-anchor="middle" x="244" y="-138.6" font-family="Times,serif" font-size="14.00">SidebarModule</text>
</g>
<!-- SidebarModule&#45;&gt;AppModule -->
<g id="edge9" class="edge">
<title>SidebarModule&#45;&gt;AppModule</title>
<path fill="none" stroke="black" d="M244,-160.81C244,-183.29 244,-218.8 244,-218.8 244,-218.8 754.22,-218.8 754.22,-218.8"/>
<polygon fill="black" stroke="black" points="754.22,-222.3 764.22,-218.8 754.22,-215.3 754.22,-222.3"/>
</g>
<!-- DisplaySessionComponent -->
<g id="node12" class="node">
<title>DisplaySessionComponent</title>
<polygon fill="#ffffb3" stroke="black" points="807.67,-84.8 640.33,-84.8 640.33,-48.8 807.67,-48.8 807.67,-84.8"/>
<text text-anchor="middle" x="724" y="-62.6" font-family="Times,serif" font-size="14.00">DisplaySessionComponent</text>
</g>
<!-- DisplaySessionComponent&#45;&gt;SessionModule -->
<g id="edge11" class="edge">
<title>DisplaySessionComponent&#45;&gt;SessionModule</title>
<path fill="none" stroke="black" d="M675.11,-85.01C675.11,-90.35 675.11,-94.8 675.11,-94.8 675.11,-94.8 394.7,-94.8 394.7,-94.8 394.7,-94.8 394.7,-114.65 394.7,-114.65"/>
<polygon fill="black" stroke="black" points="391.2,-114.65 394.7,-124.65 398.2,-114.65 391.2,-114.65"/>
</g>
<!-- PreviousSessionsComponent -->
<g id="node13" class="node">
<title>PreviousSessionsComponent</title>
<polygon fill="#ffffb3" stroke="black" points="622.07,-84.8 443.93,-84.8 443.93,-48.8 622.07,-48.8 622.07,-84.8"/>
<text text-anchor="middle" x="533" y="-62.6" font-family="Times,serif" font-size="14.00">PreviousSessionsComponent</text>
</g>
<!-- PreviousSessionsComponent&#45;&gt;SessionModule -->
<g id="edge12" class="edge">
<title>PreviousSessionsComponent&#45;&gt;SessionModule</title>
<path fill="none" stroke="black" d="M443.75,-66.8C435.31,-66.8 429.83,-66.8 429.83,-66.8 429.83,-66.8 429.83,-142.8 429.83,-142.8 429.83,-142.8 425.22,-142.8 425.22,-142.8"/>
<polygon fill="black" stroke="black" points="425.22,-139.3 415.22,-142.8 425.22,-146.3 425.22,-139.3"/>
</g>
<!-- SessionComponent -->
<g id="node14" class="node">
<title>SessionComponent</title>
<polygon fill="#ffffb3" stroke="black" points="426.12,-84.8 301.88,-84.8 301.88,-48.8 426.12,-48.8 426.12,-84.8"/>
<text text-anchor="middle" x="364" y="-62.6" font-family="Times,serif" font-size="14.00">SessionComponent</text>
</g>
<!-- SessionComponent&#45;&gt;SessionModule -->
<g id="edge13" class="edge">
<title>SessionComponent&#45;&gt;SessionModule</title>
<path fill="none" stroke="black" d="M374.23,-84.81C374.23,-84.81 374.23,-114.65 374.23,-114.65"/>
<polygon fill="black" stroke="black" points="370.73,-114.65 374.23,-124.65 377.73,-114.65 370.73,-114.65"/>
</g>
<!-- TimerComponent -->
<g id="node15" class="node">
<title>TimerComponent</title>
<polygon fill="#ffffb3" stroke="black" points="283.54,-84.8 168.46,-84.8 168.46,-48.8 283.54,-48.8 283.54,-84.8"/>
<text text-anchor="middle" x="226" y="-62.6" font-family="Times,serif" font-size="14.00">TimerComponent</text>
</g>
<!-- TimerComponent&#45;&gt;SessionModule -->
<g id="edge14" class="edge">
<title>TimerComponent&#45;&gt;SessionModule</title>
<path fill="none" stroke="black" d="M238.31,-84.91C238.31,-94.7 238.31,-104.8 238.31,-104.8 238.31,-104.8 353.77,-104.8 353.77,-104.8 353.77,-104.8 353.77,-114.69 353.77,-114.69"/>
<polygon fill="black" stroke="black" points="350.27,-114.69 353.77,-124.69 357.27,-114.69 350.27,-114.69"/>
</g>
<!-- SongComponent -->
<g id="node17" class="node">
<title>SongComponent</title>
<polygon fill="#ffffb3" stroke="black" points="1567.12,-84.8 1456.88,-84.8 1456.88,-48.8 1567.12,-48.8 1567.12,-84.8"/>
<text text-anchor="middle" x="1512" y="-62.6" font-family="Times,serif" font-size="14.00">SongComponent</text>
</g>
<!-- SongModule -->
<g id="node18" class="node">
<title>SongModule</title>
<polygon fill="#8dd3c7" stroke="black" points="1556.34,-160.8 1553.34,-164.8 1532.34,-164.8 1529.34,-160.8 1467.66,-160.8 1467.66,-124.8 1556.34,-124.8 1556.34,-160.8"/>
<text text-anchor="middle" x="1512" y="-138.6" font-family="Times,serif" font-size="14.00">SongModule</text>
</g>
<!-- SongComponent&#45;&gt;SongModule -->
<g id="edge16" class="edge">
<title>SongComponent&#45;&gt;SongModule</title>
<path fill="none" stroke="black" d="M1512,-84.81C1512,-84.81 1512,-114.65 1512,-114.65"/>
<polygon fill="black" stroke="black" points="1508.5,-114.65 1512,-124.65 1515.5,-114.65 1508.5,-114.65"/>
</g>
</g>
</svg>
